<?xml version="1.0" encoding="UTF-8" standalone="no"?><svg xmlns="http://www.w3.org/2000/svg" xmlns:xlink="http://www.w3.org/1999/xlink" contentScriptType="application/ecmascript" contentStyleType="text/css" height="283px" preserveAspectRatio="none" style="width:769px;height:283px;" version="1.1" viewBox="0 0 769 283" width="769px" zoomAndPan="magnify"><defs><filter height="300%" id="fhzk2hy20q72k" width="300%" x="-1" y="-1"><feGaussianBlur result="blurOut" stdDeviation="2.0"/><feColorMatrix in="blurOut" result="blurOut2" type="matrix" values="0 0 0 0 0 0 0 0 0 0 0 0 0 0 0 0 0 0 .4 0"/><feOffset dx="4.0" dy="4.0" in="blurOut2" result="blurOut3"/><feBlend in="SourceGraphic" in2="blurOut3" mode="normal"/></filter></defs><g><!--class Container--><rect fill="#FEFECE" filter="url(#fhzk2hy20q72k)" height="48" id="Container" style="stroke: #A80036; stroke-width: 1.5;" width="93" x="332" y="8"/><ellipse cx="347" cy="24" fill="#B4A7E5" rx="11" ry="11" style="stroke: #A80036; stroke-width: 1.0;"/><path d="M342.9219,19.7656 L342.9219,17.6094 L350.3125,17.6094 L350.3125,19.7656 L347.8438,19.7656 L347.8438,27.8438 L350.3125,27.8438 L350.3125,30 L342.9219,30 L342.9219,27.8438 L345.3906,27.8438 L345.3906,19.7656 L342.9219,19.7656 Z "/><text fill="#000000" font-family="sans-serif" font-size="12" font-style="italic" lengthAdjust="spacingAndGlyphs" textLength="61" x="361" y="28.1543">Container</text><line style="stroke: #A80036; stroke-width: 1.5;" x1="333" x2="424" y1="40" y2="40"/><line style="stroke: #A80036; stroke-width: 1.5;" x1="333" x2="424" y1="48" y2="48"/><!--class Engine--><rect fill="#FEFECE" filter="url(#fhzk2hy20q72k)" height="48" id="Engine" style="stroke: #A80036; stroke-width: 1.5;" width="75" x="110" y="117"/><ellipse cx="125" cy="133" fill="#B4A7E5" rx="11" ry="11" style="stroke: #A80036; stroke-width: 1.0;"/><path d="M120.9219,128.7656 L120.9219,126.6094 L128.3125,126.6094 L128.3125,128.7656 L125.8438,128.7656 L125.8438,136.8438 L128.3125,136.8438 L128.3125,139 L120.9219,139 L120.9219,136.8438 L123.3906,136.8438 L123.3906,128.7656 L120.9219,128.7656 Z "/><text fill="#000000" font-family="sans-serif" font-size="12" font-style="italic" lengthAdjust="spacingAndGlyphs" textLength="43" x="139" y="137.1543">Engine</text><line style="stroke: #A80036; stroke-width: 1.5;" x1="111" x2="184" y1="149" y2="149"/><line style="stroke: #A80036; stroke-width: 1.5;" x1="111" x2="184" y1="157" y2="157"/><!--class Host--><rect fill="#FEFECE" filter="url(#fhzk2hy20q72k)" height="48" id="Host" style="stroke: #A80036; stroke-width: 1.5;" width="60" x="272.5" y="117"/><ellipse cx="287.5" cy="133" fill="#B4A7E5" rx="11" ry="11" style="stroke: #A80036; stroke-width: 1.0;"/><path d="M283.4219,128.7656 L283.4219,126.6094 L290.8125,126.6094 L290.8125,128.7656 L288.3438,128.7656 L288.3438,136.8438 L290.8125,136.8438 L290.8125,139 L283.4219,139 L283.4219,136.8438 L285.8906,136.8438 L285.8906,128.7656 L283.4219,128.7656 Z "/><text fill="#000000" font-family="sans-serif" font-size="12" font-style="italic" lengthAdjust="spacingAndGlyphs" textLength="28" x="301.5" y="137.1543">Host</text><line style="stroke: #A80036; stroke-width: 1.5;" x1="273.5" x2="331.5" y1="149" y2="149"/><line style="stroke: #A80036; stroke-width: 1.5;" x1="273.5" x2="331.5" y1="157" y2="157"/><!--class Context--><rect fill="#FEFECE" filter="url(#fhzk2hy20q72k)" height="48" id="Context" style="stroke: #A80036; stroke-width: 1.5;" width="81" x="416" y="117"/><ellipse cx="431" cy="133" fill="#B4A7E5" rx="11" ry="11" style="stroke: #A80036; stroke-width: 1.0;"/><path d="M426.9219,128.7656 L426.9219,126.6094 L434.3125,126.6094 L434.3125,128.7656 L431.8438,128.7656 L431.8438,136.8438 L434.3125,136.8438 L434.3125,139 L426.9219,139 L426.9219,136.8438 L429.3906,136.8438 L429.3906,128.7656 L426.9219,128.7656 Z "/><text fill="#000000" font-family="sans-serif" font-size="12" font-style="italic" lengthAdjust="spacingAndGlyphs" textLength="49" x="445" y="137.1543">Context</text><line style="stroke: #A80036; stroke-width: 1.5;" x1="417" x2="496" y1="149" y2="149"/><line style="stroke: #A80036; stroke-width: 1.5;" x1="417" x2="496" y1="157" y2="157"/><!--class Wrapper--><rect fill="#FEFECE" filter="url(#fhzk2hy20q72k)" height="48" id="Wrapper" style="stroke: #A80036; stroke-width: 1.5;" width="86" x="603.5" y="117"/><ellipse cx="618.5" cy="133" fill="#B4A7E5" rx="11" ry="11" style="stroke: #A80036; stroke-width: 1.0;"/><path d="M614.4219,128.7656 L614.4219,126.6094 L621.8125,126.6094 L621.8125,128.7656 L619.3438,128.7656 L619.3438,136.8438 L621.8125,136.8438 L621.8125,139 L614.4219,139 L614.4219,136.8438 L616.8906,136.8438 L616.8906,128.7656 L614.4219,128.7656 Z "/><text fill="#000000" font-family="sans-serif" font-size="12" font-style="italic" lengthAdjust="spacingAndGlyphs" textLength="54" x="632.5" y="137.1543">Wrapper</text><line style="stroke: #A80036; stroke-width: 1.5;" x1="604.5" x2="688.5" y1="149" y2="149"/><line style="stroke: #A80036; stroke-width: 1.5;" x1="604.5" x2="688.5" y1="157" y2="157"/><!--class StandardWrapper--><rect fill="#FEFECE" filter="url(#fhzk2hy20q72k)" height="48" id="StandardWrapper" style="stroke: #A80036; stroke-width: 1.5;" width="143" x="617" y="226"/><ellipse cx="632" cy="242" fill="#ADD1B2" rx="11" ry="11" style="stroke: #A80036; stroke-width: 1.0;"/><path d="M634.9688,247.6406 Q634.3906,247.9375 633.75,248.0859 Q633.1094,248.2344 632.4063,248.2344 Q629.9063,248.2344 628.5859,246.5859 Q627.2656,244.9375 627.2656,241.8125 Q627.2656,238.6875 628.5859,237.0313 Q629.9063,235.375 632.4063,235.375 Q633.1094,235.375 633.7578,235.5313 Q634.4063,235.6875 634.9688,235.9844 L634.9688,238.7031 Q634.3438,238.125 633.75,237.8516 Q633.1563,237.5781 632.5313,237.5781 Q631.1875,237.5781 630.5,238.6484 Q629.8125,239.7188 629.8125,241.8125 Q629.8125,243.9063 630.5,244.9766 Q631.1875,246.0469 632.5313,246.0469 Q633.1563,246.0469 633.75,245.7734 Q634.3438,245.5 634.9688,244.9219 L634.9688,247.6406 Z "/><text fill="#000000" font-family="sans-serif" font-size="12" lengthAdjust="spacingAndGlyphs" textLength="111" x="646" y="246.1543">StandardWrapper</text><line style="stroke: #A80036; stroke-width: 1.5;" x1="618" x2="759" y1="258" y2="258"/><line style="stroke: #A80036; stroke-width: 1.5;" x1="618" x2="759" y1="266" y2="266"/><!--class StandardContext--><rect fill="#FEFECE" filter="url(#fhzk2hy20q72k)" height="48" id="StandardContext" style="stroke: #A80036; stroke-width: 1.5;" width="138" x="405.5" y="226"/><ellipse cx="420.5" cy="242" fill="#ADD1B2" rx="11" ry="11" style="stroke: #A80036; stroke-width: 1.0;"/><path d="M423.4688,247.6406 Q422.8906,247.9375 422.25,248.0859 Q421.6094,248.2344 420.9063,248.2344 Q418.4063,248.2344 417.0859,246.5859 Q415.7656,244.9375 415.7656,241.8125 Q415.7656,238.6875 417.0859,237.0313 Q418.4063,235.375 420.9063,235.375 Q421.6094,235.375 422.2578,235.5313 Q422.9063,235.6875 423.4688,235.9844 L423.4688,238.7031 Q422.8438,238.125 422.25,237.8516 Q421.6563,237.5781 421.0313,237.5781 Q419.6875,237.5781 419,238.6484 Q418.3125,239.7188 418.3125,241.8125 Q418.3125,243.9063 419,244.9766 Q419.6875,246.0469 421.0313,246.0469 Q421.6563,246.0469 422.25,245.7734 Q422.8438,245.5 423.4688,244.9219 L423.4688,247.6406 Z "/><text fill="#000000" font-family="sans-serif" font-size="12" lengthAdjust="spacingAndGlyphs" textLength="106" x="434.5" y="246.1543">StandardContext</text><line style="stroke: #A80036; stroke-width: 1.5;" x1="406.5" x2="542.5" y1="258" y2="258"/><line style="stroke: #A80036; stroke-width: 1.5;" x1="406.5" x2="542.5" y1="266" y2="266"/><!--class StandardHost--><rect fill="#FEFECE" filter="url(#fhzk2hy20q72k)" height="48" id="StandardHost" style="stroke: #A80036; stroke-width: 1.5;" width="119" x="213" y="226"/><ellipse cx="228" cy="242" fill="#ADD1B2" rx="11" ry="11" style="stroke: #A80036; stroke-width: 1.0;"/><path d="M230.9688,247.6406 Q230.3906,247.9375 229.75,248.0859 Q229.1094,248.2344 228.4063,248.2344 Q225.9063,248.2344 224.5859,246.5859 Q223.2656,244.9375 223.2656,241.8125 Q223.2656,238.6875 224.5859,237.0313 Q225.9063,235.375 228.4063,235.375 Q229.1094,235.375 229.7578,235.5313 Q230.4063,235.6875 230.9688,235.9844 L230.9688,238.7031 Q230.3438,238.125 229.75,237.8516 Q229.1563,237.5781 228.5313,237.5781 Q227.1875,237.5781 226.5,238.6484 Q225.8125,239.7188 225.8125,241.8125 Q225.8125,243.9063 226.5,244.9766 Q227.1875,246.0469 228.5313,246.0469 Q229.1563,246.0469 229.75,245.7734 Q230.3438,245.5 230.9688,244.9219 L230.9688,247.6406 Z "/><text fill="#000000" font-family="sans-serif" font-size="12" lengthAdjust="spacingAndGlyphs" textLength="87" x="242" y="246.1543">StandardHost</text><line style="stroke: #A80036; stroke-width: 1.5;" x1="214" x2="331" y1="258" y2="258"/><line style="stroke: #A80036; stroke-width: 1.5;" x1="214" x2="331" y1="266" y2="266"/><!--class StandardEngine--><rect fill="#FEFECE" filter="url(#fhzk2hy20q72k)" height="48" id="StandardEngine" style="stroke: #A80036; stroke-width: 1.5;" width="133" x="6" y="226"/><ellipse cx="21" cy="242" fill="#ADD1B2" rx="11" ry="11" style="stroke: #A80036; stroke-width: 1.0;"/><path d="M23.9688,247.6406 Q23.3906,247.9375 22.75,248.0859 Q22.1094,248.2344 21.4063,248.2344 Q18.9063,248.2344 17.5859,246.5859 Q16.2656,244.9375 16.2656,241.8125 Q16.2656,238.6875 17.5859,237.0313 Q18.9063,235.375 21.4063,235.375 Q22.1094,235.375 22.7578,235.5313 Q23.4063,235.6875 23.9688,235.9844 L23.9688,238.7031 Q23.3438,238.125 22.75,237.8516 Q22.1563,237.5781 21.5313,237.5781 Q20.1875,237.5781 19.5,238.6484 Q18.8125,239.7188 18.8125,241.8125 Q18.8125,243.9063 19.5,244.9766 Q20.1875,246.0469 21.5313,246.0469 Q22.1563,246.0469 22.75,245.7734 Q23.3438,245.5 23.9688,244.9219 L23.9688,247.6406 Z "/><text fill="#000000" font-family="sans-serif" font-size="12" lengthAdjust="spacingAndGlyphs" textLength="101" x="35" y="246.1543">StandardEngine</text><line style="stroke: #A80036; stroke-width: 1.5;" x1="7" x2="138" y1="258" y2="258"/><line style="stroke: #A80036; stroke-width: 1.5;" x1="7" x2="138" y1="266" y2="266"/><!--link Container to Engine--><path d="M313.557,63.082 C272.07,82.299 219.74,106.538 185.032,122.615 " fill="none" id="Container-Engine" style="stroke: #A80036; stroke-width: 1.0;"/><polygon fill="none" points="310.664,56.707,331.754,54.653,316.548,69.411,310.664,56.707" style="stroke: #A80036; stroke-width: 1.0;"/><!--link Container to Host--><path d="M350.325,72.667 C339.764,87.537 328.115,103.936 318.959,116.828 " fill="none" id="Container-Host" style="stroke: #A80036; stroke-width: 1.0;"/><polygon fill="none" points="344.721,68.469,362.009,56.217,356.135,76.576,344.721,68.469" style="stroke: #A80036; stroke-width: 1.0;"/><!--link Container to Context--><path d="M407.416,72.667 C418.256,87.537 430.211,103.936 439.608,116.828 " fill="none" id="Container-Context" style="stroke: #A80036; stroke-width: 1.0;"/><polygon fill="none" points="401.55,76.503,395.425,56.217,412.863,68.256,401.55,76.503" style="stroke: #A80036; stroke-width: 1.0;"/><!--link Container to Wrapper--><path d="M443.944,59.129 C493.576,78.944 560.382,105.617 603.45,122.812 " fill="none" id="Container-Wrapper" style="stroke: #A80036; stroke-width: 1.0;"/><polygon fill="none" points="441.161,65.555,425.182,51.638,446.352,52.553,441.161,65.555" style="stroke: #A80036; stroke-width: 1.0;"/><!--link Wrapper to StandardWrapper--><path d="M663.027,184.1046 C668.603,198.3088 674.619,213.637 679.404,225.8279 " fill="none" id="Wrapper-StandardWrapper" style="stroke: #A80036; stroke-width: 1.0;"/><polygon fill="none" points="656.405,186.3923,655.613,165.217,669.437,181.2769,656.405,186.3923" style="stroke: #A80036; stroke-width: 1.0;"/><!--link Context to StandardContext--><path d="M463.748,185.0859 C466.091,199.0119 468.598,213.9172 470.602,225.8279 " fill="none" id="Context-StandardContext" style="stroke: #A80036; stroke-width: 1.0;"/><polygon fill="none" points="456.821,186.1016,460.406,165.217,470.627,183.779,456.821,186.1016" style="stroke: #A80036; stroke-width: 1.0;"/><!--link Host to StandardHost--><path d="M290.558,184.5948 C286.614,198.6608 282.376,213.7771 278.997,225.8279 " fill="none" id="Host-StandardHost" style="stroke: #A80036; stroke-width: 1.0;"/><polygon fill="none" points="283.851,182.585,295.99,165.217,297.331,186.3646,283.851,182.585" style="stroke: #A80036; stroke-width: 1.0;"/><!--link Engine to StandardEngine--><path d="M119.696,181.6675 C109.273,196.5366 97.7783,212.9364 88.7421,225.8279 " fill="none" id="Engine-StandardEngine" style="stroke: #A80036; stroke-width: 1.0;"/><polygon fill="none" points="114.014,177.577,131.226,165.217,125.479,185.6127,114.014,177.577" style="stroke: #A80036; stroke-width: 1.0;"/><!--link StandardEngine to StandardHost--><path d="M139.097,250 C162.96,250 189.69,250 212.921,250 " fill="none" id="StandardEngine-StandardHost" style="stroke: #A80036; stroke-width: 1.0;"/><text fill="#000000" font-family="sans-serif" font-size="13" lengthAdjust="spacingAndGlyphs" textLength="24" x="157.5" y="243.0669">add</text><polygon fill="#000000" points="184.5,237.0664,190.5,240.0664,184.5,243.0664,184.5,237.0664" style="stroke: #000000; stroke-width: 1.0;"/><!--link StandardHost to StandardContext--><path d="M332.014,250 C355.057,250 381.586,250 405.46,250 " fill="none" id="StandardHost-StandardContext" style="stroke: #A80036; stroke-width: 1.0;"/><text fill="#000000" font-family="sans-serif" font-size="13" lengthAdjust="spacingAndGlyphs" textLength="24" x="350.25" y="243.0669">add</text><polygon fill="#000000" points="377.25,237.0664,383.25,240.0664,377.25,243.0664,377.25,237.0664" style="stroke: #000000; stroke-width: 1.0;"/><!--link StandardContext to StandardWrapper--><path d="M543.684,250 C567.13,250 593.357,250 616.981,250 " fill="none" id="StandardContext-StandardWrapper" style="stroke: #A80036; stroke-width: 1.0;"/><text fill="#000000" font-family="sans-serif" font-size="13" lengthAdjust="spacingAndGlyphs" textLength="24" x="561.75" y="243.0669">add</text><polygon fill="#000000" points="588.75,237.0664,594.75,240.0664,588.75,243.0664,588.75,237.0664" style="stroke: #000000; stroke-width: 1.0;"/><!--
@startuml
interface Container
interface Engine
interface Host
interface Context
interface Wrapper

Container <|- - Engine
Container <|- - Host
Container <|- - Context
Container <|- - Wrapper
Wrapper <|- - StandardWrapper
Context <|- - StandardContext
Host <|- - StandardHost
Engine <|- - StandardEngine
StandardEngine - StandardHost : add >
StandardHost - StandardContext : add >
StandardContext - StandardWrapper : add >
@enduml

PlantUML version 1.2017.12(Thu Apr 27 00:06:36 CST 2017)
(GPL source distribution)
Java Runtime: Java(TM) SE Runtime Environment
JVM: Java HotSpot(TM) 64-Bit Server VM
Java Version: 1.8.0_111-b14
Operating System: Linux
OS Version: 4.4.0-75-generic
Default Encoding: UTF-8
Language: en
Country: US
--></g></svg>