<?xml version="1.0" encoding="UTF-8" standalone="no"?><svg xmlns="http://www.w3.org/2000/svg" xmlns:xlink="http://www.w3.org/1999/xlink" contentScriptType="application/ecmascript" contentStyleType="text/css" height="294px" preserveAspectRatio="none" style="width:785px;height:294px;" version="1.1" viewBox="0 0 785 294" width="785px" zoomAndPan="magnify"><defs><filter height="300%" id="f1wlgw4w3evsj3" width="300%" x="-1" y="-1"><feGaussianBlur result="blurOut" stdDeviation="2.0"/><feColorMatrix in="blurOut" result="blurOut2" type="matrix" values="0 0 0 0 0 0 0 0 0 0 0 0 0 0 0 0 0 0 .4 0"/><feOffset dx="4.0" dy="4.0" in="blurOut2" result="blurOut3"/><feBlend in="SourceGraphic" in2="blurOut3" mode="normal"/></filter></defs><g><!--class Valve--><rect fill="#FEFECE" filter="url(#f1wlgw4w3evsj3)" height="60.8047" id="Valve" style="stroke: #A80036; stroke-width: 1.5;" width="166" x="206.5" y="8"/><ellipse cx="268.75" cy="24" fill="#B4A7E5" rx="11" ry="11" style="stroke: #A80036; stroke-width: 1.0;"/><path d="M264.6719,19.7656 L264.6719,17.6094 L272.0625,17.6094 L272.0625,19.7656 L269.5938,19.7656 L269.5938,27.8438 L272.0625,27.8438 L272.0625,30 L264.6719,30 L264.6719,27.8438 L267.1406,27.8438 L267.1406,19.7656 L264.6719,19.7656 Z "/><text fill="#000000" font-family="sans-serif" font-size="12" font-style="italic" lengthAdjust="spacingAndGlyphs" textLength="33" x="289.25" y="28.1543">Valve</text><line style="stroke: #A80036; stroke-width: 1.5;" x1="207.5" x2="371.5" y1="40" y2="40"/><line style="stroke: #A80036; stroke-width: 1.5;" x1="207.5" x2="371.5" y1="48" y2="48"/><text fill="#000000" font-family="sans-serif" font-size="11" lengthAdjust="spacingAndGlyphs" textLength="154" x="212.5" y="62.2104">invoke(Request, Response)</text><!--class Contained--><rect fill="#FEFECE" filter="url(#f1wlgw4w3evsj3)" height="60.8047" id="Contained" style="stroke: #A80036; stroke-width: 1.5;" width="148" x="407.5" y="8"/><ellipse cx="445.9" cy="24" fill="#B4A7E5" rx="11" ry="11" style="stroke: #A80036; stroke-width: 1.0;"/><path d="M441.8219,19.7656 L441.8219,17.6094 L449.2125,17.6094 L449.2125,19.7656 L446.7438,19.7656 L446.7438,27.8438 L449.2125,27.8438 L449.2125,30 L441.8219,30 L441.8219,27.8438 L444.2906,27.8438 L444.2906,19.7656 L441.8219,19.7656 Z "/><text fill="#000000" font-family="sans-serif" font-size="12" font-style="italic" lengthAdjust="spacingAndGlyphs" textLength="64" x="465.1" y="28.1543">Contained</text><line style="stroke: #A80036; stroke-width: 1.5;" x1="408.5" x2="554.5" y1="40" y2="40"/><line style="stroke: #A80036; stroke-width: 1.5;" x1="408.5" x2="554.5" y1="48" y2="48"/><text fill="#000000" font-family="sans-serif" font-size="11" lengthAdjust="spacingAndGlyphs" textLength="136" x="413.5" y="62.2104">setContainer(Container)</text><!--class ValveBase--><rect fill="#FEFECE" filter="url(#f1wlgw4w3evsj3)" height="48" id="ValveBase" style="stroke: #A80036; stroke-width: 1.5;" width="95" x="338" y="129"/><ellipse cx="353" cy="145" fill="#A9DCDF" rx="11" ry="11" style="stroke: #A80036; stroke-width: 1.0;"/><path d="M353.1094,140.3438 L351.9531,145.4219 L354.2813,145.4219 L353.1094,140.3438 Z M351.625,138.1094 L354.6094,138.1094 L357.9688,150.5 L355.5156,150.5 L354.75,147.4375 L351.4688,147.4375 L350.7188,150.5 L348.2813,150.5 L351.625,138.1094 Z "/><text fill="#000000" font-family="sans-serif" font-size="12" font-style="italic" lengthAdjust="spacingAndGlyphs" textLength="63" x="367" y="149.1543">ValveBase</text><line style="stroke: #A80036; stroke-width: 1.5;" x1="339" x2="432" y1="161" y2="161"/><line style="stroke: #A80036; stroke-width: 1.5;" x1="339" x2="432" y1="169" y2="169"/><!--class StandardContextValve--><rect fill="#FEFECE" filter="url(#f1wlgw4w3evsj3)" height="48" id="StandardContextValve" style="stroke: #A80036; stroke-width: 1.5;" width="171" x="6" y="237"/><ellipse cx="21" cy="253" fill="#ADD1B2" rx="11" ry="11" style="stroke: #A80036; stroke-width: 1.0;"/><path d="M23.9688,258.6406 Q23.3906,258.9375 22.75,259.0859 Q22.1094,259.2344 21.4063,259.2344 Q18.9063,259.2344 17.5859,257.5859 Q16.2656,255.9375 16.2656,252.8125 Q16.2656,249.6875 17.5859,248.0313 Q18.9063,246.375 21.4063,246.375 Q22.1094,246.375 22.7578,246.5313 Q23.4063,246.6875 23.9688,246.9844 L23.9688,249.7031 Q23.3438,249.125 22.75,248.8516 Q22.1563,248.5781 21.5313,248.5781 Q20.1875,248.5781 19.5,249.6484 Q18.8125,250.7188 18.8125,252.8125 Q18.8125,254.9063 19.5,255.9766 Q20.1875,257.0469 21.5313,257.0469 Q22.1563,257.0469 22.75,256.7734 Q23.3438,256.5 23.9688,255.9219 L23.9688,258.6406 Z "/><text fill="#000000" font-family="sans-serif" font-size="12" lengthAdjust="spacingAndGlyphs" textLength="139" x="35" y="257.1543">StandardContextValve</text><line style="stroke: #A80036; stroke-width: 1.5;" x1="7" x2="176" y1="269" y2="269"/><line style="stroke: #A80036; stroke-width: 1.5;" x1="7" x2="176" y1="277" y2="277"/><!--class StandardHostValve--><rect fill="#FEFECE" filter="url(#f1wlgw4w3evsj3)" height="48" id="StandardHostValve" style="stroke: #A80036; stroke-width: 1.5;" width="152" x="212.5" y="237"/><ellipse cx="227.5" cy="253" fill="#ADD1B2" rx="11" ry="11" style="stroke: #A80036; stroke-width: 1.0;"/><path d="M230.4688,258.6406 Q229.8906,258.9375 229.25,259.0859 Q228.6094,259.2344 227.9063,259.2344 Q225.4063,259.2344 224.0859,257.5859 Q222.7656,255.9375 222.7656,252.8125 Q222.7656,249.6875 224.0859,248.0313 Q225.4063,246.375 227.9063,246.375 Q228.6094,246.375 229.2578,246.5313 Q229.9063,246.6875 230.4688,246.9844 L230.4688,249.7031 Q229.8438,249.125 229.25,248.8516 Q228.6563,248.5781 228.0313,248.5781 Q226.6875,248.5781 226,249.6484 Q225.3125,250.7188 225.3125,252.8125 Q225.3125,254.9063 226,255.9766 Q226.6875,257.0469 228.0313,257.0469 Q228.6563,257.0469 229.25,256.7734 Q229.8438,256.5 230.4688,255.9219 L230.4688,258.6406 Z "/><text fill="#000000" font-family="sans-serif" font-size="12" lengthAdjust="spacingAndGlyphs" textLength="120" x="241.5" y="257.1543">StandardHostValve</text><line style="stroke: #A80036; stroke-width: 1.5;" x1="213.5" x2="363.5" y1="269" y2="269"/><line style="stroke: #A80036; stroke-width: 1.5;" x1="213.5" x2="363.5" y1="277" y2="277"/><!--class StandardEngineValve--><rect fill="#FEFECE" filter="url(#f1wlgw4w3evsj3)" height="48" id="StandardEngineValve" style="stroke: #A80036; stroke-width: 1.5;" width="166" x="399.5" y="237"/><ellipse cx="414.5" cy="253" fill="#ADD1B2" rx="11" ry="11" style="stroke: #A80036; stroke-width: 1.0;"/><path d="M417.4688,258.6406 Q416.8906,258.9375 416.25,259.0859 Q415.6094,259.2344 414.9063,259.2344 Q412.4063,259.2344 411.0859,257.5859 Q409.7656,255.9375 409.7656,252.8125 Q409.7656,249.6875 411.0859,248.0313 Q412.4063,246.375 414.9063,246.375 Q415.6094,246.375 416.2578,246.5313 Q416.9063,246.6875 417.4688,246.9844 L417.4688,249.7031 Q416.8438,249.125 416.25,248.8516 Q415.6563,248.5781 415.0313,248.5781 Q413.6875,248.5781 413,249.6484 Q412.3125,250.7188 412.3125,252.8125 Q412.3125,254.9063 413,255.9766 Q413.6875,257.0469 415.0313,257.0469 Q415.6563,257.0469 416.25,256.7734 Q416.8438,256.5 417.4688,255.9219 L417.4688,258.6406 Z "/><text fill="#000000" font-family="sans-serif" font-size="12" lengthAdjust="spacingAndGlyphs" textLength="134" x="428.5" y="257.1543">StandardEngineValve</text><line style="stroke: #A80036; stroke-width: 1.5;" x1="400.5" x2="564.5" y1="269" y2="269"/><line style="stroke: #A80036; stroke-width: 1.5;" x1="400.5" x2="564.5" y1="277" y2="277"/><!--class StandardWrapperValve--><rect fill="#FEFECE" filter="url(#f1wlgw4w3evsj3)" height="48" id="StandardWrapperValve" style="stroke: #A80036; stroke-width: 1.5;" width="176" x="600.5" y="237"/><ellipse cx="615.5" cy="253" fill="#ADD1B2" rx="11" ry="11" style="stroke: #A80036; stroke-width: 1.0;"/><path d="M618.4688,258.6406 Q617.8906,258.9375 617.25,259.0859 Q616.6094,259.2344 615.9063,259.2344 Q613.4063,259.2344 612.0859,257.5859 Q610.7656,255.9375 610.7656,252.8125 Q610.7656,249.6875 612.0859,248.0313 Q613.4063,246.375 615.9063,246.375 Q616.6094,246.375 617.2578,246.5313 Q617.9063,246.6875 618.4688,246.9844 L618.4688,249.7031 Q617.8438,249.125 617.25,248.8516 Q616.6563,248.5781 616.0313,248.5781 Q614.6875,248.5781 614,249.6484 Q613.3125,250.7188 613.3125,252.8125 Q613.3125,254.9063 614,255.9766 Q614.6875,257.0469 616.0313,257.0469 Q616.6563,257.0469 617.25,256.7734 Q617.8438,256.5 618.4688,255.9219 L618.4688,258.6406 Z "/><text fill="#000000" font-family="sans-serif" font-size="12" lengthAdjust="spacingAndGlyphs" textLength="144" x="629.5" y="257.1543">StandardWrapperValve</text><line style="stroke: #A80036; stroke-width: 1.5;" x1="601.5" x2="775.5" y1="269" y2="269"/><line style="stroke: #A80036; stroke-width: 1.5;" x1="601.5" x2="775.5" y1="277" y2="277"/><!--link Valve to ValveBase--><path d="M327.708,84.275 C340.675,99.471 354.638,115.834 365.591,128.669 " fill="none" id="Valve-ValveBase" style="stroke: #A80036; stroke-width: 1.0;"/><polygon fill="none" points="322.38,88.816,314.723,69.058,333.03,79.728,322.38,88.816" style="stroke: #A80036; stroke-width: 1.0;"/><!--link Contained to ValveBase--><path d="M443.292,84.275 C430.325,99.471 416.362,115.834 405.409,128.669 " fill="none" id="Contained-ValveBase" style="stroke: #A80036; stroke-width: 1.0;"/><polygon fill="none" points="437.97,79.728,456.277,69.058,448.62,88.816,437.97,79.728" style="stroke: #A80036; stroke-width: 1.0;"/><!--link ValveBase to StandardContextValve--><path d="M319.098,177.941 C270.119,195.5999 203.86,219.4891 155.467,236.937 " fill="none" id="ValveBase-StandardContextValve" style="stroke: #A80036; stroke-width: 1.0;"/><polygon fill="none" points="316.748,171.347,337.937,171.149,321.497,184.517,316.748,171.347" style="stroke: #A80036; stroke-width: 1.0;"/><!--link ValveBase to StandardHostValve--><path d="M350.519,192.227 C336.912,207.0966 321.762,223.6523 309.841,236.6784 " fill="none" id="ValveBase-StandardHostValve" style="stroke: #A80036; stroke-width: 1.0;"/><polygon fill="none" points="345.786,187.0294,364.452,177,356.115,196.4807,345.786,187.0294" style="stroke: #A80036; stroke-width: 1.0;"/><!--link ValveBase to StandardEngineValve--><path d="M420.481,192.227 C434.088,207.0966 449.238,223.6523 461.159,236.6784 " fill="none" id="ValveBase-StandardEngineValve" style="stroke: #A80036; stroke-width: 1.0;"/><polygon fill="none" points="414.885,196.4807,406.548,177,425.214,187.0294,414.885,196.4807" style="stroke: #A80036; stroke-width: 1.0;"/><!--link ValveBase to StandardWrapperValve--><path d="M452.264,177.356 C502.884,195.0649 572.107,219.2816 622.53,236.9215 " fill="none" id="ValveBase-StandardWrapperValve" style="stroke: #A80036; stroke-width: 1.0;"/><polygon fill="none" points="449.744,183.891,433.177,170.679,454.367,170.676,449.744,183.891" style="stroke: #A80036; stroke-width: 1.0;"/><!--
@startuml
interface Valve
interface Contained
abstract ValveBase

Valve : invoke(Request, Response)
Contained : setContainer(Container)

Valve <|- - ValveBase
Contained <|- - ValveBase
ValveBase <|- - StandardContextValve
ValveBase <|- - StandardHostValve
ValveBase <|- - StandardEngineValve
ValveBase <|- - StandardWrapperValve
@enduml

PlantUML version 1.2017.12(Thu Apr 27 00:06:36 CST 2017)
(GPL source distribution)
Java Runtime: Java(TM) SE Runtime Environment
JVM: Java HotSpot(TM) 64-Bit Server VM
Java Version: 1.8.0_111-b14
Operating System: Linux
OS Version: 4.4.0-75-generic
Default Encoding: UTF-8
Language: en
Country: US
--></g></svg>