<?xml version="1.0" encoding="UTF-8" standalone="no"?><svg xmlns="http://www.w3.org/2000/svg" xmlns:xlink="http://www.w3.org/1999/xlink" contentScriptType="application/ecmascript" contentStyleType="text/css" height="281px" preserveAspectRatio="none" style="width:561px;height:281px;" version="1.1" viewBox="0 0 561 281" width="561px" zoomAndPan="magnify"><defs><filter height="300%" id="f19wm6i121hwzk" width="300%" x="-1" y="-1"><feGaussianBlur result="blurOut" stdDeviation="2.0"/><feColorMatrix in="blurOut" result="blurOut2" type="matrix" values="0 0 0 0 0 0 0 0 0 0 0 0 0 0 0 0 0 0 .4 0"/><feOffset dx="4.0" dy="4.0" in="blurOut2" result="blurOut3"/><feBlend in="SourceGraphic" in2="blurOut3" mode="normal"/></filter></defs><g><!--class BeanDefinition--><rect fill="#FEFECE" filter="url(#f19wm6i121hwzk)" height="48" id="BeanDefinition" style="stroke: #A80036; stroke-width: 1.5;" width="123" x="208.5" y="8"/><ellipse cx="223.5" cy="24" fill="#B4A7E5" rx="11" ry="11" style="stroke: #A80036; stroke-width: 1.0;"/><path d="M219.4219,19.7656 L219.4219,17.6094 L226.8125,17.6094 L226.8125,19.7656 L224.3438,19.7656 L224.3438,27.8438 L226.8125,27.8438 L226.8125,30 L219.4219,30 L219.4219,27.8438 L221.8906,27.8438 L221.8906,19.7656 L219.4219,19.7656 Z "/><text fill="#000000" font-family="sans-serif" font-size="12" font-style="italic" lengthAdjust="spacingAndGlyphs" textLength="91" x="237.5" y="28.1543">BeanDefinition</text><line style="stroke: #A80036; stroke-width: 1.5;" x1="209.5" x2="330.5" y1="40" y2="40"/><line style="stroke: #A80036; stroke-width: 1.5;" x1="209.5" x2="330.5" y1="48" y2="48"/><!--class AbstractBeanDefinition--><rect fill="#FEFECE" filter="url(#f19wm6i121hwzk)" height="48" id="AbstractBeanDefinition" style="stroke: #A80036; stroke-width: 1.5;" width="175" x="182.5" y="116"/><ellipse cx="197.5" cy="132" fill="#A9DCDF" rx="11" ry="11" style="stroke: #A80036; stroke-width: 1.0;"/><path d="M197.6094,127.3438 L196.4531,132.4219 L198.7813,132.4219 L197.6094,127.3438 Z M196.125,125.1094 L199.1094,125.1094 L202.4688,137.5 L200.0156,137.5 L199.25,134.4375 L195.9688,134.4375 L195.2188,137.5 L192.7813,137.5 L196.125,125.1094 Z "/><text fill="#000000" font-family="sans-serif" font-size="12" font-style="italic" lengthAdjust="spacingAndGlyphs" textLength="143" x="211.5" y="136.1543">AbstractBeanDefinition</text><line style="stroke: #A80036; stroke-width: 1.5;" x1="183.5" x2="356.5" y1="148" y2="148"/><line style="stroke: #A80036; stroke-width: 1.5;" x1="183.5" x2="356.5" y1="156" y2="156"/><!--class RootBeanDefinition--><rect fill="#FEFECE" filter="url(#f19wm6i121hwzk)" height="48" id="RootBeanDefinition" style="stroke: #A80036; stroke-width: 1.5;" width="152" x="6" y="224"/><ellipse cx="21" cy="240" fill="#ADD1B2" rx="11" ry="11" style="stroke: #A80036; stroke-width: 1.0;"/><path d="M23.9688,245.6406 Q23.3906,245.9375 22.75,246.0859 Q22.1094,246.2344 21.4063,246.2344 Q18.9063,246.2344 17.5859,244.5859 Q16.2656,242.9375 16.2656,239.8125 Q16.2656,236.6875 17.5859,235.0313 Q18.9063,233.375 21.4063,233.375 Q22.1094,233.375 22.7578,233.5313 Q23.4063,233.6875 23.9688,233.9844 L23.9688,236.7031 Q23.3438,236.125 22.75,235.8516 Q22.1563,235.5781 21.5313,235.5781 Q20.1875,235.5781 19.5,236.6484 Q18.8125,237.7188 18.8125,239.8125 Q18.8125,241.9063 19.5,242.9766 Q20.1875,244.0469 21.5313,244.0469 Q22.1563,244.0469 22.75,243.7734 Q23.3438,243.5 23.9688,242.9219 L23.9688,245.6406 Z "/><text fill="#000000" font-family="sans-serif" font-size="12" lengthAdjust="spacingAndGlyphs" textLength="120" x="35" y="244.1543">RootBeanDefinition</text><line style="stroke: #A80036; stroke-width: 1.5;" x1="7" x2="157" y1="256" y2="256"/><line style="stroke: #A80036; stroke-width: 1.5;" x1="7" x2="157" y1="264" y2="264"/><!--class ChildBeanDefinition--><rect fill="#FEFECE" filter="url(#f19wm6i121hwzk)" height="48" id="ChildBeanDefinition" style="stroke: #A80036; stroke-width: 1.5;" width="153" x="193.5" y="224"/><ellipse cx="208.5" cy="240" fill="#ADD1B2" rx="11" ry="11" style="stroke: #A80036; stroke-width: 1.0;"/><path d="M211.4688,245.6406 Q210.8906,245.9375 210.25,246.0859 Q209.6094,246.2344 208.9063,246.2344 Q206.4063,246.2344 205.0859,244.5859 Q203.7656,242.9375 203.7656,239.8125 Q203.7656,236.6875 205.0859,235.0313 Q206.4063,233.375 208.9063,233.375 Q209.6094,233.375 210.2578,233.5313 Q210.9063,233.6875 211.4688,233.9844 L211.4688,236.7031 Q210.8438,236.125 210.25,235.8516 Q209.6563,235.5781 209.0313,235.5781 Q207.6875,235.5781 207,236.6484 Q206.3125,237.7188 206.3125,239.8125 Q206.3125,241.9063 207,242.9766 Q207.6875,244.0469 209.0313,244.0469 Q209.6563,244.0469 210.25,243.7734 Q210.8438,243.5 211.4688,242.9219 L211.4688,245.6406 Z "/><text fill="#000000" font-family="sans-serif" font-size="12" lengthAdjust="spacingAndGlyphs" textLength="121" x="222.5" y="244.1543">ChildBeanDefinition</text><line style="stroke: #A80036; stroke-width: 1.5;" x1="194.5" x2="345.5" y1="256" y2="256"/><line style="stroke: #A80036; stroke-width: 1.5;" x1="194.5" x2="345.5" y1="264" y2="264"/><!--class GenericBeanDefinition--><rect fill="#FEFECE" filter="url(#f19wm6i121hwzk)" height="48" id="GenericBeanDefinition" style="stroke: #A80036; stroke-width: 1.5;" width="171" x="381.5" y="224"/><ellipse cx="396.5" cy="240" fill="#ADD1B2" rx="11" ry="11" style="stroke: #A80036; stroke-width: 1.0;"/><path d="M399.4688,245.6406 Q398.8906,245.9375 398.25,246.0859 Q397.6094,246.2344 396.9063,246.2344 Q394.4063,246.2344 393.0859,244.5859 Q391.7656,242.9375 391.7656,239.8125 Q391.7656,236.6875 393.0859,235.0313 Q394.4063,233.375 396.9063,233.375 Q397.6094,233.375 398.2578,233.5313 Q398.9063,233.6875 399.4688,233.9844 L399.4688,236.7031 Q398.8438,236.125 398.25,235.8516 Q397.6563,235.5781 397.0313,235.5781 Q395.6875,235.5781 395,236.6484 Q394.3125,237.7188 394.3125,239.8125 Q394.3125,241.9063 395,242.9766 Q395.6875,244.0469 397.0313,244.0469 Q397.6563,244.0469 398.25,243.7734 Q398.8438,243.5 399.4688,242.9219 L399.4688,245.6406 Z "/><text fill="#000000" font-family="sans-serif" font-size="12" lengthAdjust="spacingAndGlyphs" textLength="139" x="410.5" y="244.1543">GenericBeanDefinition</text><line style="stroke: #A80036; stroke-width: 1.5;" x1="382.5" x2="551.5" y1="256" y2="256"/><line style="stroke: #A80036; stroke-width: 1.5;" x1="382.5" x2="551.5" y1="264" y2="264"/><!--link BeanDefinition to AbstractBeanDefinition--><path d="M270,76.024 C270,89.579 270,104.038 270,115.678 " fill="none" id="BeanDefinition-AbstractBeanDefinition" style="stroke: #A80036; stroke-width: 1.0;"/><polygon fill="none" points="263,76,270,56,277,76,263,76" style="stroke: #A80036; stroke-width: 1.0;"/><!--link AbstractBeanDefinition to RootBeanDefinition--><path d="M211.666,173.8904 C182.937,190.0885 148.99,209.229 123.038,223.8617 " fill="none" id="AbstractBeanDefinition-RootBeanDefinition" style="stroke: #A80036; stroke-width: 1.0;"/><polygon fill="none" points="208.347,167.726,229.207,164,215.223,179.9209,208.347,167.726" style="stroke: #A80036; stroke-width: 1.0;"/><!--link AbstractBeanDefinition to ChildBeanDefinition--><path d="M270,184.0236 C270,197.5792 270,212.0381 270,223.6784 " fill="none" id="AbstractBeanDefinition-ChildBeanDefinition" style="stroke: #A80036; stroke-width: 1.0;"/><polygon fill="none" points="263,184.0005,270,164,277,184.0004,263,184.0005" style="stroke: #A80036; stroke-width: 1.0;"/><!--link AbstractBeanDefinition to GenericBeanDefinition--><path d="M330.699,173.6603 C360.893,189.907 396.674,209.1597 423.998,223.8617 " fill="none" id="AbstractBeanDefinition-GenericBeanDefinition" style="stroke: #A80036; stroke-width: 1.0;"/><polygon fill="none" points="327.042,179.6414,312.746,164,333.675,167.313,327.042,179.6414" style="stroke: #A80036; stroke-width: 1.0;"/><!--
@startuml
interface BeanDefinition
abstract AbstractBeanDefinition
BeanDefinition <|- - AbstractBeanDefinition
AbstractBeanDefinition <|- - RootBeanDefinition
AbstractBeanDefinition <|- - ChildBeanDefinition
AbstractBeanDefinition <|- - GenericBeanDefinition
@enduml

PlantUML version 1.2017.12(Thu Apr 27 00:06:36 CST 2017)
(GPL source distribution)
Java Runtime: Java(TM) SE Runtime Environment
JVM: Java HotSpot(TM) 64-Bit Server VM
Java Version: 1.8.0_111-b14
Operating System: Linux
OS Version: 4.4.0-75-generic
Default Encoding: UTF-8
Language: en
Country: US
--></g></svg>