<?xml version="1.0" encoding="UTF-8" standalone="no"?><svg xmlns="http://www.w3.org/2000/svg" xmlns:xlink="http://www.w3.org/1999/xlink" contentScriptType="application/ecmascript" contentStyleType="text/css" height="713px" preserveAspectRatio="none" style="width:515px;height:713px;" version="1.1" viewBox="0 0 515 713" width="515px" zoomAndPan="magnify"><defs><filter height="300%" id="f1my2ojjzkbhbz" width="300%" x="-1" y="-1"><feGaussianBlur result="blurOut" stdDeviation="2.0"/><feColorMatrix in="blurOut" result="blurOut2" type="matrix" values="0 0 0 0 0 0 0 0 0 0 0 0 0 0 0 0 0 0 .4 0"/><feOffset dx="4.0" dy="4.0" in="blurOut2" result="blurOut3"/><feBlend in="SourceGraphic" in2="blurOut3" mode="normal"/></filter></defs><g><!--class AliasRegistry--><rect fill="#FEFECE" filter="url(#f1my2ojjzkbhbz)" height="48" id="AliasRegistry" style="stroke: #A80036; stroke-width: 1.5;" width="110" x="101.5" y="8"/><ellipse cx="116.5" cy="24" fill="#B4A7E5" rx="11" ry="11" style="stroke: #A80036; stroke-width: 1.0;"/><path d="M112.4219,19.7656 L112.4219,17.6094 L119.8125,17.6094 L119.8125,19.7656 L117.3438,19.7656 L117.3438,27.8438 L119.8125,27.8438 L119.8125,30 L112.4219,30 L112.4219,27.8438 L114.8906,27.8438 L114.8906,19.7656 L112.4219,19.7656 Z "/><text fill="#000000" font-family="sans-serif" font-size="12" font-style="italic" lengthAdjust="spacingAndGlyphs" textLength="78" x="130.5" y="28.1543">AliasRegistry</text><line style="stroke: #A80036; stroke-width: 1.5;" x1="102.5" x2="210.5" y1="40" y2="40"/><line style="stroke: #A80036; stroke-width: 1.5;" x1="102.5" x2="210.5" y1="48" y2="48"/><!--class BeanDefinitionRegistry--><rect fill="#FEFECE" filter="url(#f1my2ojjzkbhbz)" height="48" id="BeanDefinitionRegistry" style="stroke: #A80036; stroke-width: 1.5;" width="173" x="6" y="224"/><ellipse cx="21" cy="240" fill="#B4A7E5" rx="11" ry="11" style="stroke: #A80036; stroke-width: 1.0;"/><path d="M16.9219,235.7656 L16.9219,233.6094 L24.3125,233.6094 L24.3125,235.7656 L21.8438,235.7656 L21.8438,243.8438 L24.3125,243.8438 L24.3125,246 L16.9219,246 L16.9219,243.8438 L19.3906,243.8438 L19.3906,235.7656 L16.9219,235.7656 Z "/><text fill="#000000" font-family="sans-serif" font-size="12" font-style="italic" lengthAdjust="spacingAndGlyphs" textLength="141" x="35" y="244.1543">BeanDefinitionRegistry</text><line style="stroke: #A80036; stroke-width: 1.5;" x1="7" x2="178" y1="256" y2="256"/><line style="stroke: #A80036; stroke-width: 1.5;" x1="7" x2="178" y1="264" y2="264"/><!--class SingletonBeanRegistry--><rect fill="#FEFECE" filter="url(#f1my2ojjzkbhbz)" height="48" id="SingletonBeanRegistry" style="stroke: #A80036; stroke-width: 1.5;" width="173" x="333" y="116"/><ellipse cx="348" cy="132" fill="#B4A7E5" rx="11" ry="11" style="stroke: #A80036; stroke-width: 1.0;"/><path d="M343.9219,127.7656 L343.9219,125.6094 L351.3125,125.6094 L351.3125,127.7656 L348.8438,127.7656 L348.8438,135.8438 L351.3125,135.8438 L351.3125,138 L343.9219,138 L343.9219,135.8438 L346.3906,135.8438 L346.3906,127.7656 L343.9219,127.7656 Z "/><text fill="#000000" font-family="sans-serif" font-size="12" font-style="italic" lengthAdjust="spacingAndGlyphs" textLength="141" x="362" y="136.1543">SingletonBeanRegistry</text><line style="stroke: #A80036; stroke-width: 1.5;" x1="334" x2="505" y1="148" y2="148"/><line style="stroke: #A80036; stroke-width: 1.5;" x1="334" x2="505" y1="156" y2="156"/><!--class FactoryBeanRegistrySupport--><rect fill="#FEFECE" filter="url(#f1my2ojjzkbhbz)" height="48" id="FactoryBeanRegistrySupport" style="stroke: #A80036; stroke-width: 1.5;" width="211" x="215" y="332"/><ellipse cx="230" cy="348" fill="#A9DCDF" rx="11" ry="11" style="stroke: #A80036; stroke-width: 1.0;"/><path d="M230.1094,343.3438 L228.9531,348.4219 L231.2813,348.4219 L230.1094,343.3438 Z M228.625,341.1094 L231.6094,341.1094 L234.9688,353.5 L232.5156,353.5 L231.75,350.4375 L228.4688,350.4375 L227.7188,353.5 L225.2813,353.5 L228.625,341.1094 Z "/><text fill="#000000" font-family="sans-serif" font-size="12" font-style="italic" lengthAdjust="spacingAndGlyphs" textLength="179" x="244" y="352.1543">FactoryBeanRegistrySupport</text><line style="stroke: #A80036; stroke-width: 1.5;" x1="216" x2="425" y1="364" y2="364"/><line style="stroke: #A80036; stroke-width: 1.5;" x1="216" x2="425" y1="372" y2="372"/><!--class AbstractBeanFactory--><rect fill="#FEFECE" filter="url(#f1my2ojjzkbhbz)" height="48" id="AbstractBeanFactory" style="stroke: #A80036; stroke-width: 1.5;" width="163" x="228" y="440"/><ellipse cx="243" cy="456" fill="#A9DCDF" rx="11" ry="11" style="stroke: #A80036; stroke-width: 1.0;"/><path d="M243.1094,451.3438 L241.9531,456.4219 L244.2813,456.4219 L243.1094,451.3438 Z M241.625,449.1094 L244.6094,449.1094 L247.9688,461.5 L245.5156,461.5 L244.75,458.4375 L241.4688,458.4375 L240.7188,461.5 L238.2813,461.5 L241.625,449.1094 Z "/><text fill="#000000" font-family="sans-serif" font-size="12" font-style="italic" lengthAdjust="spacingAndGlyphs" textLength="131" x="257" y="460.1543">AbstractBeanFactory</text><line style="stroke: #A80036; stroke-width: 1.5;" x1="229" x2="390" y1="472" y2="472"/><line style="stroke: #A80036; stroke-width: 1.5;" x1="229" x2="390" y1="480" y2="480"/><!--class AbstractAutowireCapableBeanFactory--><rect fill="#FEFECE" filter="url(#f1my2ojjzkbhbz)" height="48" id="AbstractAutowireCapableBeanFactory" style="stroke: #A80036; stroke-width: 1.5;" width="269" x="170" y="548"/><ellipse cx="185" cy="564" fill="#A9DCDF" rx="11" ry="11" style="stroke: #A80036; stroke-width: 1.0;"/><path d="M185.1094,559.3438 L183.9531,564.4219 L186.2813,564.4219 L185.1094,559.3438 Z M183.625,557.1094 L186.6094,557.1094 L189.9688,569.5 L187.5156,569.5 L186.75,566.4375 L183.4688,566.4375 L182.7188,569.5 L180.2813,569.5 L183.625,557.1094 Z "/><text fill="#000000" font-family="sans-serif" font-size="12" font-style="italic" lengthAdjust="spacingAndGlyphs" textLength="237" x="199" y="568.1543">AbstractAutowireCapableBeanFactory</text><line style="stroke: #A80036; stroke-width: 1.5;" x1="171" x2="438" y1="580" y2="580"/><line style="stroke: #A80036; stroke-width: 1.5;" x1="171" x2="438" y1="588" y2="588"/><!--class SimpleAliasRegistry--><rect fill="#FEFECE" filter="url(#f1my2ojjzkbhbz)" height="48" id="SimpleAliasRegistry" style="stroke: #A80036; stroke-width: 1.5;" width="152" x="145.5" y="116"/><ellipse cx="160.5" cy="132" fill="#ADD1B2" rx="11" ry="11" style="stroke: #A80036; stroke-width: 1.0;"/><path d="M163.4688,137.6406 Q162.8906,137.9375 162.25,138.0859 Q161.6094,138.2344 160.9063,138.2344 Q158.4063,138.2344 157.0859,136.5859 Q155.7656,134.9375 155.7656,131.8125 Q155.7656,128.6875 157.0859,127.0313 Q158.4063,125.375 160.9063,125.375 Q161.6094,125.375 162.2578,125.5313 Q162.9063,125.6875 163.4688,125.9844 L163.4688,128.7031 Q162.8438,128.125 162.25,127.8516 Q161.6563,127.5781 161.0313,127.5781 Q159.6875,127.5781 159,128.6484 Q158.3125,129.7188 158.3125,131.8125 Q158.3125,133.9063 159,134.9766 Q159.6875,136.0469 161.0313,136.0469 Q161.6563,136.0469 162.25,135.7734 Q162.8438,135.5 163.4688,134.9219 L163.4688,137.6406 Z "/><text fill="#000000" font-family="sans-serif" font-size="12" lengthAdjust="spacingAndGlyphs" textLength="120" x="174.5" y="136.1543">SimpleAliasRegistry</text><line style="stroke: #A80036; stroke-width: 1.5;" x1="146.5" x2="296.5" y1="148" y2="148"/><line style="stroke: #A80036; stroke-width: 1.5;" x1="146.5" x2="296.5" y1="156" y2="156"/><!--class DefaultSingletonBeanRegistry--><rect fill="#FEFECE" filter="url(#f1my2ojjzkbhbz)" height="48" id="DefaultSingletonBeanRegistry" style="stroke: #A80036; stroke-width: 1.5;" width="218" x="214.5" y="224"/><ellipse cx="229.5" cy="240" fill="#ADD1B2" rx="11" ry="11" style="stroke: #A80036; stroke-width: 1.0;"/><path d="M232.4688,245.6406 Q231.8906,245.9375 231.25,246.0859 Q230.6094,246.2344 229.9063,246.2344 Q227.4063,246.2344 226.0859,244.5859 Q224.7656,242.9375 224.7656,239.8125 Q224.7656,236.6875 226.0859,235.0313 Q227.4063,233.375 229.9063,233.375 Q230.6094,233.375 231.2578,233.5313 Q231.9063,233.6875 232.4688,233.9844 L232.4688,236.7031 Q231.8438,236.125 231.25,235.8516 Q230.6563,235.5781 230.0313,235.5781 Q228.6875,235.5781 228,236.6484 Q227.3125,237.7188 227.3125,239.8125 Q227.3125,241.9063 228,242.9766 Q228.6875,244.0469 230.0313,244.0469 Q230.6563,244.0469 231.25,243.7734 Q231.8438,243.5 232.4688,242.9219 L232.4688,245.6406 Z "/><text fill="#000000" font-family="sans-serif" font-size="12" lengthAdjust="spacingAndGlyphs" textLength="186" x="243.5" y="244.1543">DefaultSingletonBeanRegistry</text><line style="stroke: #A80036; stroke-width: 1.5;" x1="215.5" x2="431.5" y1="256" y2="256"/><line style="stroke: #A80036; stroke-width: 1.5;" x1="215.5" x2="431.5" y1="264" y2="264"/><!--class DefaultListableBeanFactory--><rect fill="#FEFECE" filter="url(#f1my2ojjzkbhbz)" height="48" id="DefaultListableBeanFactory" style="stroke: #A80036; stroke-width: 1.5;" width="203" x="107" y="656"/><ellipse cx="122" cy="672" fill="#ADD1B2" rx="11" ry="11" style="stroke: #A80036; stroke-width: 1.0;"/><path d="M124.9688,677.6406 Q124.3906,677.9375 123.75,678.0859 Q123.1094,678.2344 122.4063,678.2344 Q119.9063,678.2344 118.5859,676.5859 Q117.2656,674.9375 117.2656,671.8125 Q117.2656,668.6875 118.5859,667.0313 Q119.9063,665.375 122.4063,665.375 Q123.1094,665.375 123.7578,665.5313 Q124.4063,665.6875 124.9688,665.9844 L124.9688,668.7031 Q124.3438,668.125 123.75,667.8516 Q123.1563,667.5781 122.5313,667.5781 Q121.1875,667.5781 120.5,668.6484 Q119.8125,669.7188 119.8125,671.8125 Q119.8125,673.9063 120.5,674.9766 Q121.1875,676.0469 122.5313,676.0469 Q123.1563,676.0469 123.75,675.7734 Q124.3438,675.5 124.9688,674.9219 L124.9688,677.6406 Z "/><text fill="#000000" font-family="sans-serif" font-size="12" lengthAdjust="spacingAndGlyphs" textLength="171" x="136" y="676.1543">DefaultListableBeanFactory</text><line style="stroke: #A80036; stroke-width: 1.5;" x1="108" x2="309" y1="688" y2="688"/><line style="stroke: #A80036; stroke-width: 1.5;" x1="108" x2="309" y1="696" y2="696"/><!--link AliasRegistry to BeanDefinitionRegistry--><path d="M141.112,75.075 C136.525,88.124 131.626,102.597 127.5,116 C116.004,153.348 104.7002,197.342 98.1733,223.659 " fill="none" id="AliasRegistry-BeanDefinitionRegistry" style="stroke: #A80036; stroke-width: 1.0;"/><polygon fill="none" points="134.573,72.571,147.905,56.101,147.754,77.29,134.573,72.571" style="stroke: #A80036; stroke-width: 1.0;"/><!--link AliasRegistry to SimpleAliasRegistry--><path d="M181.11,73.134 C189.919,87.499 199.551,103.207 207.199,115.678 " fill="none" id="AliasRegistry-SimpleAliasRegistry" style="stroke: #A80036; stroke-width: 1.0;"/><polygon fill="none" points="175.092,76.709,170.604,56,187.026,69.391,175.092,76.709" style="stroke: #A80036; stroke-width: 1.0;"/><!--link SimpleAliasRegistry to DefaultSingletonBeanRegistry--><path d="M257.828,178.753 C272.254,193.744 288.391,210.514 301.058,223.678 " fill="none" id="SimpleAliasRegistry-DefaultSingletonBeanRegistry" style="stroke: #A80036; stroke-width: 1.0;"/><polygon fill="none" points="252.456,183.266,243.632,164,262.544,173.558,252.456,183.266" style="stroke: #A80036; stroke-width: 1.0;"/><!--link SingletonBeanRegistry to DefaultSingletonBeanRegistry--><path d="M384.879,179.227 C371.412,194.097 356.419,210.652 344.621,223.678 " fill="none" id="SingletonBeanRegistry-DefaultSingletonBeanRegistry" style="stroke: #A80036; stroke-width: 1.0;"/><polygon fill="none" points="380.055,174.126,398.669,164,390.432,183.524,380.055,174.126" style="stroke: #A80036; stroke-width: 1.0;"/><!--link BeanDefinitionRegistry to DefaultListableBeanFactory--><path d="M94.1811,292.42 C98.055,359.727 110.792,492.295 152.5,596 C161.321,617.9333 176.574,639.9872 188.936,655.8435 " fill="none" id="BeanDefinitionRegistry-DefaultListableBeanFactory" style="stroke: #A80036; stroke-width: 1.0;"/><polygon fill="none" points="87.1792,292.555,93.1781,272.232,101.162,291.86,87.1792,292.555" style="stroke: #A80036; stroke-width: 1.0;"/><!--link DefaultSingletonBeanRegistry to FactoryBeanRegistrySupport--><path d="M322.282,292.024 C321.899,305.579 321.489,320.038 321.16,331.678 " fill="none" id="DefaultSingletonBeanRegistry-FactoryBeanRegistrySupport" style="stroke: #A80036; stroke-width: 1.0;"/><polygon fill="none" points="315.286,291.794,322.849,272,329.28,292.19,315.286,291.794" style="stroke: #A80036; stroke-width: 1.0;"/><!--link FactoryBeanRegistrySupport to AbstractBeanFactory--><path d="M316.035,400.024 C314.629,413.579 313.128,428.038 311.92,439.678 " fill="none" id="FactoryBeanRegistrySupport-AbstractBeanFactory" style="stroke: #A80036; stroke-width: 1.0;"/><polygon fill="none" points="309.086,399.171,318.113,380,323.011,400.616,309.086,399.171" style="stroke: #A80036; stroke-width: 1.0;"/><!--link AbstractBeanFactory to AbstractAutowireCapableBeanFactory--><path d="M307.471,508.024 C306.831,521.579 306.149,536.038 305.6,547.678 " fill="none" id="AbstractBeanFactory-AbstractAutowireCapableBeanFactory" style="stroke: #A80036; stroke-width: 1.0;"/><polygon fill="none" points="300.48,507.648,308.415,488,314.465,508.308,300.48,507.648" style="stroke: #A80036; stroke-width: 1.0;"/><!--link AbstractAutowireCapableBeanFactory to DefaultListableBeanFactory--><path d="M269.879,611.227 C256.412,626.0966 241.419,642.6523 229.621,655.6784 " fill="none" id="AbstractAutowireCapableBeanFactory-DefaultListableBeanFactory" style="stroke: #A80036; stroke-width: 1.0;"/><polygon fill="none" points="265.055,606.1256,283.669,596,275.432,615.5235,265.055,606.1256" style="stroke: #A80036; stroke-width: 1.0;"/><!--
@startuml
interface AliasRegistry
interface BeanDefinitionRegistry
interface SingletonBeanRegistry
abstract FactoryBeanRegistrySupport
abstract AbstractBeanFactory
abstract AbstractAutowireCapableBeanFactory

AliasRegistry <|- - BeanDefinitionRegistry
AliasRegistry <|- - SimpleAliasRegistry
SimpleAliasRegistry <|- - DefaultSingletonBeanRegistry
SingletonBeanRegistry <|- - DefaultSingletonBeanRegistry
BeanDefinitionRegistry <|- - DefaultListableBeanFactory
DefaultSingletonBeanRegistry <|- - FactoryBeanRegistrySupport
FactoryBeanRegistrySupport <|- - AbstractBeanFactory
AbstractBeanFactory <|- - AbstractAutowireCapableBeanFactory
AbstractAutowireCapableBeanFactory <|- - DefaultListableBeanFactory
@enduml

PlantUML version 1.2017.12(Thu Apr 27 00:06:36 CST 2017)
(GPL source distribution)
Java Runtime: Java(TM) SE Runtime Environment
JVM: Java HotSpot(TM) 64-Bit Server VM
Java Version: 1.8.0_111-b14
Operating System: Linux
OS Version: 4.4.0-75-generic
Default Encoding: UTF-8
Language: en
Country: US
--></g></svg>