<?xml version="1.0" encoding="UTF-8" standalone="no"?><svg xmlns="http://www.w3.org/2000/svg" xmlns:xlink="http://www.w3.org/1999/xlink" contentScriptType="application/ecmascript" contentStyleType="text/css" height="281px" preserveAspectRatio="none" style="width:215px;height:281px;" version="1.1" viewBox="0 0 215 281" width="215px" zoomAndPan="magnify"><defs><filter height="300%" id="f14ynx6pxqmtvy" width="300%" x="-1" y="-1"><feGaussianBlur result="blurOut" stdDeviation="2.0"/><feColorMatrix in="blurOut" result="blurOut2" type="matrix" values="0 0 0 0 0 0 0 0 0 0 0 0 0 0 0 0 0 0 .4 0"/><feOffset dx="4.0" dy="4.0" in="blurOut2" result="blurOut3"/><feBlend in="SourceGraphic" in2="blurOut3" mode="normal"/></filter></defs><g><!--class EventListener--><rect fill="#FEFECE" filter="url(#f14ynx6pxqmtvy)" height="48" id="EventListener" style="stroke: #A80036; stroke-width: 1.5;" width="117" x="47.5" y="8"/><ellipse cx="62.5" cy="24" fill="#B4A7E5" rx="11" ry="11" style="stroke: #A80036; stroke-width: 1.0;"/><path d="M58.4219,19.7656 L58.4219,17.6094 L65.8125,17.6094 L65.8125,19.7656 L63.3438,19.7656 L63.3438,27.8438 L65.8125,27.8438 L65.8125,30 L58.4219,30 L58.4219,27.8438 L60.8906,27.8438 L60.8906,19.7656 L58.4219,19.7656 Z "/><text fill="#000000" font-family="sans-serif" font-size="12" font-style="italic" lengthAdjust="spacingAndGlyphs" textLength="85" x="76.5" y="28.1543">EventListener</text><line style="stroke: #A80036; stroke-width: 1.5;" x1="48.5" x2="163.5" y1="40" y2="40"/><line style="stroke: #A80036; stroke-width: 1.5;" x1="48.5" x2="163.5" y1="48" y2="48"/><!--class ReaderEventListener--><rect fill="#FEFECE" filter="url(#f14ynx6pxqmtvy)" height="48" id="ReaderEventListener" style="stroke: #A80036; stroke-width: 1.5;" width="162" x="25" y="116"/><ellipse cx="40" cy="132" fill="#B4A7E5" rx="11" ry="11" style="stroke: #A80036; stroke-width: 1.0;"/><path d="M35.9219,127.7656 L35.9219,125.6094 L43.3125,125.6094 L43.3125,127.7656 L40.8438,127.7656 L40.8438,135.8438 L43.3125,135.8438 L43.3125,138 L35.9219,138 L35.9219,135.8438 L38.3906,135.8438 L38.3906,127.7656 L35.9219,127.7656 Z "/><text fill="#000000" font-family="sans-serif" font-size="12" font-style="italic" lengthAdjust="spacingAndGlyphs" textLength="130" x="54" y="136.1543">ReaderEventListener</text><line style="stroke: #A80036; stroke-width: 1.5;" x1="26" x2="186" y1="148" y2="148"/><line style="stroke: #A80036; stroke-width: 1.5;" x1="26" x2="186" y1="156" y2="156"/><!--class EmptyReaderEventListener--><rect fill="#FEFECE" filter="url(#f14ynx6pxqmtvy)" height="48" id="EmptyReaderEventListener" style="stroke: #A80036; stroke-width: 1.5;" width="200" x="6" y="224"/><ellipse cx="21" cy="240" fill="#ADD1B2" rx="11" ry="11" style="stroke: #A80036; stroke-width: 1.0;"/><path d="M23.9688,245.6406 Q23.3906,245.9375 22.75,246.0859 Q22.1094,246.2344 21.4063,246.2344 Q18.9063,246.2344 17.5859,244.5859 Q16.2656,242.9375 16.2656,239.8125 Q16.2656,236.6875 17.5859,235.0313 Q18.9063,233.375 21.4063,233.375 Q22.1094,233.375 22.7578,233.5313 Q23.4063,233.6875 23.9688,233.9844 L23.9688,236.7031 Q23.3438,236.125 22.75,235.8516 Q22.1563,235.5781 21.5313,235.5781 Q20.1875,235.5781 19.5,236.6484 Q18.8125,237.7188 18.8125,239.8125 Q18.8125,241.9063 19.5,242.9766 Q20.1875,244.0469 21.5313,244.0469 Q22.1563,244.0469 22.75,243.7734 Q23.3438,243.5 23.9688,242.9219 L23.9688,245.6406 Z "/><text fill="#000000" font-family="sans-serif" font-size="12" lengthAdjust="spacingAndGlyphs" textLength="168" x="35" y="244.1543">EmptyReaderEventListener</text><line style="stroke: #A80036; stroke-width: 1.5;" x1="7" x2="205" y1="256" y2="256"/><line style="stroke: #A80036; stroke-width: 1.5;" x1="7" x2="205" y1="264" y2="264"/><!--link EventListener to ReaderEventListener--><path d="M106,76.024 C106,89.579 106,104.038 106,115.678 " fill="none" id="EventListener-ReaderEventListener" style="stroke: #A80036; stroke-width: 1.0;"/><polygon fill="none" points="99.0001,76,106,56,113,76,99.0001,76" style="stroke: #A80036; stroke-width: 1.0;"/><!--link ReaderEventListener to EmptyReaderEventListener--><path d="M106,184.0236 C106,197.5792 106,212.0381 106,223.6784 " fill="none" id="ReaderEventListener-EmptyReaderEventListener" style="stroke: #A80036; stroke-width: 1.0;"/><polygon fill="none" points="99.0001,184.0005,106,164,113,184.0004,99.0001,184.0005" style="stroke: #A80036; stroke-width: 1.0;"/><!--
@startuml
interface EventListener
interface ReaderEventListener

EventListener <|- - ReaderEventListener
ReaderEventListener <|- - EmptyReaderEventListener
@enduml

PlantUML version 1.2017.12(Thu Apr 27 00:06:36 CST 2017)
(GPL source distribution)
Java Runtime: Java(TM) SE Runtime Environment
JVM: Java HotSpot(TM) 64-Bit Server VM
Java Version: 1.8.0_111-b14
Operating System: Linux
OS Version: 4.4.0-75-generic
Default Encoding: UTF-8
Language: en
Country: US
--></g></svg>