<?xml version="1.0" encoding="UTF-8" standalone="no"?><svg xmlns="http://www.w3.org/2000/svg" xmlns:xlink="http://www.w3.org/1999/xlink" contentScriptType="application/ecmascript" contentStyleType="text/css" height="283px" preserveAspectRatio="none" style="width:519px;height:283px;" version="1.1" viewBox="0 0 519 283" width="519px" zoomAndPan="magnify"><defs><filter height="300%" id="f12y75zbe1p7y4" width="300%" x="-1" y="-1"><feGaussianBlur result="blurOut" stdDeviation="2.0"/><feColorMatrix in="blurOut" result="blurOut2" type="matrix" values="0 0 0 0 0 0 0 0 0 0 0 0 0 0 0 0 0 0 .4 0"/><feOffset dx="4.0" dy="4.0" in="blurOut2" result="blurOut3"/><feBlend in="SourceGraphic" in2="blurOut3" mode="normal"/></filter></defs><g><!--class NamespaceHandlerResolver--><rect fill="#FEFECE" filter="url(#f12y75zbe1p7y4)" height="48" id="NamespaceHandlerResolver" style="stroke: #A80036; stroke-width: 1.5;" width="206" x="29.5" y="8"/><ellipse cx="44.5" cy="24" fill="#B4A7E5" rx="11" ry="11" style="stroke: #A80036; stroke-width: 1.0;"/><path d="M40.4219,19.7656 L40.4219,17.6094 L47.8125,17.6094 L47.8125,19.7656 L45.3438,19.7656 L45.3438,27.8438 L47.8125,27.8438 L47.8125,30 L40.4219,30 L40.4219,27.8438 L42.8906,27.8438 L42.8906,19.7656 L40.4219,19.7656 Z "/><text fill="#000000" font-family="sans-serif" font-size="12" font-style="italic" lengthAdjust="spacingAndGlyphs" textLength="174" x="58.5" y="28.1543">NamespaceHandlerResolver</text><line style="stroke: #A80036; stroke-width: 1.5;" x1="30.5" x2="234.5" y1="40" y2="40"/><line style="stroke: #A80036; stroke-width: 1.5;" x1="30.5" x2="234.5" y1="48" y2="48"/><!--class NamespaceHandler--><rect fill="#FEFECE" filter="url(#f12y75zbe1p7y4)" height="48" id="NamespaceHandler" style="stroke: #A80036; stroke-width: 1.5;" width="154" x="331.5" y="8"/><ellipse cx="346.5" cy="24" fill="#B4A7E5" rx="11" ry="11" style="stroke: #A80036; stroke-width: 1.0;"/><path d="M342.4219,19.7656 L342.4219,17.6094 L349.8125,17.6094 L349.8125,19.7656 L347.3438,19.7656 L347.3438,27.8438 L349.8125,27.8438 L349.8125,30 L342.4219,30 L342.4219,27.8438 L344.8906,27.8438 L344.8906,19.7656 L342.4219,19.7656 Z "/><text fill="#000000" font-family="sans-serif" font-size="12" font-style="italic" lengthAdjust="spacingAndGlyphs" textLength="122" x="360.5" y="28.1543">NamespaceHandler</text><line style="stroke: #A80036; stroke-width: 1.5;" x1="332.5" x2="484.5" y1="40" y2="40"/><line style="stroke: #A80036; stroke-width: 1.5;" x1="332.5" x2="484.5" y1="48" y2="48"/><!--class NamespaceHandlerSupport--><rect fill="#FEFECE" filter="url(#f12y75zbe1p7y4)" height="48" id="NamespaceHandlerSupport" style="stroke: #A80036; stroke-width: 1.5;" width="204" x="306.5" y="117"/><ellipse cx="321.5" cy="133" fill="#A9DCDF" rx="11" ry="11" style="stroke: #A80036; stroke-width: 1.0;"/><path d="M321.6094,128.3438 L320.4531,133.4219 L322.7813,133.4219 L321.6094,128.3438 Z M320.125,126.1094 L323.1094,126.1094 L326.4688,138.5 L324.0156,138.5 L323.25,135.4375 L319.9688,135.4375 L319.2188,138.5 L316.7813,138.5 L320.125,126.1094 Z "/><text fill="#000000" font-family="sans-serif" font-size="12" font-style="italic" lengthAdjust="spacingAndGlyphs" textLength="172" x="335.5" y="137.1543">NamespaceHandlerSupport</text><line style="stroke: #A80036; stroke-width: 1.5;" x1="307.5" x2="509.5" y1="149" y2="149"/><line style="stroke: #A80036; stroke-width: 1.5;" x1="307.5" x2="509.5" y1="157" y2="157"/><!--class DefaultNamespaceHandlerResolver--><rect fill="#FEFECE" filter="url(#f12y75zbe1p7y4)" height="48" id="DefaultNamespaceHandlerResolver" style="stroke: #A80036; stroke-width: 1.5;" width="253" x="6" y="117"/><ellipse cx="21" cy="133" fill="#ADD1B2" rx="11" ry="11" style="stroke: #A80036; stroke-width: 1.0;"/><path d="M23.9688,138.6406 Q23.3906,138.9375 22.75,139.0859 Q22.1094,139.2344 21.4063,139.2344 Q18.9063,139.2344 17.5859,137.5859 Q16.2656,135.9375 16.2656,132.8125 Q16.2656,129.6875 17.5859,128.0313 Q18.9063,126.375 21.4063,126.375 Q22.1094,126.375 22.7578,126.5313 Q23.4063,126.6875 23.9688,126.9844 L23.9688,129.7031 Q23.3438,129.125 22.75,128.8516 Q22.1563,128.5781 21.5313,128.5781 Q20.1875,128.5781 19.5,129.6484 Q18.8125,130.7188 18.8125,132.8125 Q18.8125,134.9063 19.5,135.9766 Q20.1875,137.0469 21.5313,137.0469 Q22.1563,137.0469 22.75,136.7734 Q23.3438,136.5 23.9688,135.9219 L23.9688,138.6406 Z "/><text fill="#000000" font-family="sans-serif" font-size="12" lengthAdjust="spacingAndGlyphs" textLength="221" x="35" y="137.1543">DefaultNamespaceHandlerResolver</text><line style="stroke: #A80036; stroke-width: 1.5;" x1="7" x2="258" y1="149" y2="149"/><line style="stroke: #A80036; stroke-width: 1.5;" x1="7" x2="258" y1="157" y2="157"/><!--class MotanNamespaceHandler--><rect fill="#FEFECE" filter="url(#f12y75zbe1p7y4)" height="48" id="MotanNamespaceHandler" style="stroke: #A80036; stroke-width: 1.5;" width="194" x="311.5" y="226"/><ellipse cx="326.5" cy="242" fill="#ADD1B2" rx="11" ry="11" style="stroke: #A80036; stroke-width: 1.0;"/><path d="M329.4688,247.6406 Q328.8906,247.9375 328.25,248.0859 Q327.6094,248.2344 326.9063,248.2344 Q324.4063,248.2344 323.0859,246.5859 Q321.7656,244.9375 321.7656,241.8125 Q321.7656,238.6875 323.0859,237.0313 Q324.4063,235.375 326.9063,235.375 Q327.6094,235.375 328.2578,235.5313 Q328.9063,235.6875 329.4688,235.9844 L329.4688,238.7031 Q328.8438,238.125 328.25,237.8516 Q327.6563,237.5781 327.0313,237.5781 Q325.6875,237.5781 325,238.6484 Q324.3125,239.7188 324.3125,241.8125 Q324.3125,243.9063 325,244.9766 Q325.6875,246.0469 327.0313,246.0469 Q327.6563,246.0469 328.25,245.7734 Q328.8438,245.5 329.4688,244.9219 L329.4688,247.6406 Z "/><text fill="#000000" font-family="sans-serif" font-size="12" lengthAdjust="spacingAndGlyphs" textLength="162" x="340.5" y="246.1543">MotanNamespaceHandler</text><line style="stroke: #A80036; stroke-width: 1.5;" x1="312.5" x2="504.5" y1="258" y2="258"/><line style="stroke: #A80036; stroke-width: 1.5;" x1="312.5" x2="504.5" y1="266" y2="266"/><!--link NamespaceHandlerResolver to NamespaceHandler--><path d="M235.665,32 C267.359,32 301.677,32 331.315,32 " fill="none" id="NamespaceHandlerResolver-NamespaceHandler" style="stroke: #A80036; stroke-width: 1.0;"/><text fill="#000000" font-family="sans-serif" font-size="13" lengthAdjust="spacingAndGlyphs" textLength="46" x="254" y="25.0669">revolve</text><polygon fill="#000000" points="303,19.0664,309,22.0664,303,25.0664,303,19.0664" style="stroke: #000000; stroke-width: 1.0;"/><!--link NamespaceHandlerResolver to DefaultNamespaceHandlerResolver--><path d="M132.5,76.578 C132.5,90.362 132.5,105.057 132.5,116.828 " fill="none" id="NamespaceHandlerResolver-DefaultNamespaceHandlerResolver" style="stroke: #A80036; stroke-width: 1.0;"/><polygon fill="none" points="125.5,76.217,132.5,56.217,139.5,76.217,125.5,76.217" style="stroke: #A80036; stroke-width: 1.0;"/><!--link NamespaceHandler to NamespaceHandlerSupport--><path d="M408.5,76.578 C408.5,90.362 408.5,105.057 408.5,116.828 " fill="none" id="NamespaceHandler-NamespaceHandlerSupport" style="stroke: #A80036; stroke-width: 1.0;"/><polygon fill="none" points="401.5,76.217,408.5,56.217,415.5,76.217,401.5,76.217" style="stroke: #A80036; stroke-width: 1.0;"/><!--link NamespaceHandlerSupport to MotanNamespaceHandler--><path d="M408.5,185.5778 C408.5,199.3622 408.5,214.0574 408.5,225.8279 " fill="none" id="NamespaceHandlerSupport-MotanNamespaceHandler" style="stroke: #A80036; stroke-width: 1.0;"/><polygon fill="none" points="401.5,185.2174,408.5,165.217,415.5,185.2174,401.5,185.2174" style="stroke: #A80036; stroke-width: 1.0;"/><!--
@startuml
interface NamespaceHandlerResolver
interface NamespaceHandler
abstract NamespaceHandlerSupport

NamespaceHandlerResolver - NamespaceHandler : revolve >
NamespaceHandlerResolver <|- - DefaultNamespaceHandlerResolver
NamespaceHandler <|- - NamespaceHandlerSupport
NamespaceHandlerSupport <|- - MotanNamespaceHandler
@enduml

PlantUML version 1.2017.12(Thu Apr 27 00:06:36 CST 2017)
(GPL source distribution)
Java Runtime: Java(TM) SE Runtime Environment
JVM: Java HotSpot(TM) 64-Bit Server VM
Java Version: 1.8.0_111-b14
Operating System: Linux
OS Version: 4.4.0-75-generic
Default Encoding: UTF-8
Language: en
Country: US
--></g></svg>