<?xml version="1.0" encoding="UTF-8" standalone="no"?><svg xmlns="http://www.w3.org/2000/svg" xmlns:xlink="http://www.w3.org/1999/xlink" contentScriptType="application/ecmascript" contentStyleType="text/css" height="174px" preserveAspectRatio="none" style="width:616px;height:174px;" version="1.1" viewBox="0 0 616 174" width="616px" zoomAndPan="magnify"><defs><filter height="300%" id="fowu0x84givk4" width="300%" x="-1" y="-1"><feGaussianBlur result="blurOut" stdDeviation="2.0"/><feColorMatrix in="blurOut" result="blurOut2" type="matrix" values="0 0 0 0 0 0 0 0 0 0 0 0 0 0 0 0 0 0 .4 0"/><feOffset dx="4.0" dy="4.0" in="blurOut2" result="blurOut3"/><feBlend in="SourceGraphic" in2="blurOut3" mode="normal"/></filter></defs><g><!--class Filter--><rect fill="#FEFECE" filter="url(#fowu0x84givk4)" height="48" id="Filter" style="stroke: #A80036; stroke-width: 1.5;" width="63" x="272" y="8"/><ellipse cx="287" cy="24" fill="#B4A7E5" rx="11" ry="11" style="stroke: #A80036; stroke-width: 1.0;"/><path d="M282.9219,19.7656 L282.9219,17.6094 L290.3125,17.6094 L290.3125,19.7656 L287.8438,19.7656 L287.8438,27.8438 L290.3125,27.8438 L290.3125,30 L282.9219,30 L282.9219,27.8438 L285.3906,27.8438 L285.3906,19.7656 L282.9219,19.7656 Z "/><text fill="#000000" font-family="sans-serif" font-size="12" font-style="italic" lengthAdjust="spacingAndGlyphs" textLength="31" x="301" y="28.1543">Filter</text><line style="stroke: #A80036; stroke-width: 1.5;" x1="273" x2="334" y1="40" y2="40"/><line style="stroke: #A80036; stroke-width: 1.5;" x1="273" x2="334" y1="48" y2="48"/><!--class Invocation--><rect fill="#FEFECE" filter="url(#fowu0x84givk4)" height="48" id="Invocation" style="stroke: #A80036; stroke-width: 1.5;" width="97" x="99" y="8"/><ellipse cx="114" cy="24" fill="#B4A7E5" rx="11" ry="11" style="stroke: #A80036; stroke-width: 1.0;"/><path d="M109.9219,19.7656 L109.9219,17.6094 L117.3125,17.6094 L117.3125,19.7656 L114.8438,19.7656 L114.8438,27.8438 L117.3125,27.8438 L117.3125,30 L109.9219,30 L109.9219,27.8438 L112.3906,27.8438 L112.3906,19.7656 L109.9219,19.7656 Z "/><text fill="#000000" font-family="sans-serif" font-size="12" font-style="italic" lengthAdjust="spacingAndGlyphs" textLength="65" x="128" y="28.1543">Invocation</text><line style="stroke: #A80036; stroke-width: 1.5;" x1="100" x2="195" y1="40" y2="40"/><line style="stroke: #A80036; stroke-width: 1.5;" x1="100" x2="195" y1="48" y2="48"/><!--class Result--><rect fill="#FEFECE" filter="url(#fowu0x84givk4)" height="48" id="Result" style="stroke: #A80036; stroke-width: 1.5;" width="70" x="410.5" y="8"/><ellipse cx="425.5" cy="24" fill="#B4A7E5" rx="11" ry="11" style="stroke: #A80036; stroke-width: 1.0;"/><path d="M421.4219,19.7656 L421.4219,17.6094 L428.8125,17.6094 L428.8125,19.7656 L426.3438,19.7656 L426.3438,27.8438 L428.8125,27.8438 L428.8125,30 L421.4219,30 L421.4219,27.8438 L423.8906,27.8438 L423.8906,19.7656 L421.4219,19.7656 Z "/><text fill="#000000" font-family="sans-serif" font-size="12" font-style="italic" lengthAdjust="spacingAndGlyphs" textLength="38" x="439.5" y="28.1543">Result</text><line style="stroke: #A80036; stroke-width: 1.5;" x1="411.5" x2="479.5" y1="40" y2="40"/><line style="stroke: #A80036; stroke-width: 1.5;" x1="411.5" x2="479.5" y1="48" y2="48"/><!--class TpsLimitFilter--><rect fill="#FEFECE" filter="url(#fowu0x84givk4)" height="48" id="TpsLimitFilter" style="stroke: #A80036; stroke-width: 1.5;" width="113" x="6" y="117"/><ellipse cx="21" cy="133" fill="#ADD1B2" rx="11" ry="11" style="stroke: #A80036; stroke-width: 1.0;"/><path d="M23.9688,138.6406 Q23.3906,138.9375 22.75,139.0859 Q22.1094,139.2344 21.4063,139.2344 Q18.9063,139.2344 17.5859,137.5859 Q16.2656,135.9375 16.2656,132.8125 Q16.2656,129.6875 17.5859,128.0313 Q18.9063,126.375 21.4063,126.375 Q22.1094,126.375 22.7578,126.5313 Q23.4063,126.6875 23.9688,126.9844 L23.9688,129.7031 Q23.3438,129.125 22.75,128.8516 Q22.1563,128.5781 21.5313,128.5781 Q20.1875,128.5781 19.5,129.6484 Q18.8125,130.7188 18.8125,132.8125 Q18.8125,134.9063 19.5,135.9766 Q20.1875,137.0469 21.5313,137.0469 Q22.1563,137.0469 22.75,136.7734 Q23.3438,136.5 23.9688,135.9219 L23.9688,138.6406 Z "/><text fill="#000000" font-family="sans-serif" font-size="12" lengthAdjust="spacingAndGlyphs" textLength="81" x="35" y="137.1543">TpsLimitFilter</text><line style="stroke: #A80036; stroke-width: 1.5;" x1="7" x2="118" y1="149" y2="149"/><line style="stroke: #A80036; stroke-width: 1.5;" x1="7" x2="118" y1="157" y2="157"/><!--class ActiveLimitFilter--><rect fill="#FEFECE" filter="url(#fowu0x84givk4)" height="48" id="ActiveLimitFilter" style="stroke: #A80036; stroke-width: 1.5;" width="128" x="154.5" y="117"/><ellipse cx="169.5" cy="133" fill="#ADD1B2" rx="11" ry="11" style="stroke: #A80036; stroke-width: 1.0;"/><path d="M172.4688,138.6406 Q171.8906,138.9375 171.25,139.0859 Q170.6094,139.2344 169.9063,139.2344 Q167.4063,139.2344 166.0859,137.5859 Q164.7656,135.9375 164.7656,132.8125 Q164.7656,129.6875 166.0859,128.0313 Q167.4063,126.375 169.9063,126.375 Q170.6094,126.375 171.2578,126.5313 Q171.9063,126.6875 172.4688,126.9844 L172.4688,129.7031 Q171.8438,129.125 171.25,128.8516 Q170.6563,128.5781 170.0313,128.5781 Q168.6875,128.5781 168,129.6484 Q167.3125,130.7188 167.3125,132.8125 Q167.3125,134.9063 168,135.9766 Q168.6875,137.0469 170.0313,137.0469 Q170.6563,137.0469 171.25,136.7734 Q171.8438,136.5 172.4688,135.9219 L172.4688,138.6406 Z "/><text fill="#000000" font-family="sans-serif" font-size="12" lengthAdjust="spacingAndGlyphs" textLength="96" x="183.5" y="137.1543">ActiveLimitFilter</text><line style="stroke: #A80036; stroke-width: 1.5;" x1="155.5" x2="281.5" y1="149" y2="149"/><line style="stroke: #A80036; stroke-width: 1.5;" x1="155.5" x2="281.5" y1="157" y2="157"/><!--class ExecuteLimitFilter--><rect fill="#FEFECE" filter="url(#fowu0x84givk4)" height="48" id="ExecuteLimitFilter" style="stroke: #A80036; stroke-width: 1.5;" width="141" x="318" y="117"/><ellipse cx="333" cy="133" fill="#ADD1B2" rx="11" ry="11" style="stroke: #A80036; stroke-width: 1.0;"/><path d="M335.9688,138.6406 Q335.3906,138.9375 334.75,139.0859 Q334.1094,139.2344 333.4063,139.2344 Q330.9063,139.2344 329.5859,137.5859 Q328.2656,135.9375 328.2656,132.8125 Q328.2656,129.6875 329.5859,128.0313 Q330.9063,126.375 333.4063,126.375 Q334.1094,126.375 334.7578,126.5313 Q335.4063,126.6875 335.9688,126.9844 L335.9688,129.7031 Q335.3438,129.125 334.75,128.8516 Q334.1563,128.5781 333.5313,128.5781 Q332.1875,128.5781 331.5,129.6484 Q330.8125,130.7188 330.8125,132.8125 Q330.8125,134.9063 331.5,135.9766 Q332.1875,137.0469 333.5313,137.0469 Q334.1563,137.0469 334.75,136.7734 Q335.3438,136.5 335.9688,135.9219 L335.9688,138.6406 Z "/><text fill="#000000" font-family="sans-serif" font-size="12" lengthAdjust="spacingAndGlyphs" textLength="109" x="347" y="137.1543">ExecuteLimitFilter</text><line style="stroke: #A80036; stroke-width: 1.5;" x1="319" x2="458" y1="149" y2="149"/><line style="stroke: #A80036; stroke-width: 1.5;" x1="319" x2="458" y1="157" y2="157"/><!--class TimeoutFilter--><rect fill="#FEFECE" filter="url(#fowu0x84givk4)" height="48" id="TimeoutFilter" style="stroke: #A80036; stroke-width: 1.5;" width="113" x="494" y="117"/><ellipse cx="509" cy="133" fill="#ADD1B2" rx="11" ry="11" style="stroke: #A80036; stroke-width: 1.0;"/><path d="M511.9688,138.6406 Q511.3906,138.9375 510.75,139.0859 Q510.1094,139.2344 509.4063,139.2344 Q506.9063,139.2344 505.5859,137.5859 Q504.2656,135.9375 504.2656,132.8125 Q504.2656,129.6875 505.5859,128.0313 Q506.9063,126.375 509.4063,126.375 Q510.1094,126.375 510.7578,126.5313 Q511.4063,126.6875 511.9688,126.9844 L511.9688,129.7031 Q511.3438,129.125 510.75,128.8516 Q510.1563,128.5781 509.5313,128.5781 Q508.1875,128.5781 507.5,129.6484 Q506.8125,130.7188 506.8125,132.8125 Q506.8125,134.9063 507.5,135.9766 Q508.1875,137.0469 509.5313,137.0469 Q510.1563,137.0469 510.75,136.7734 Q511.3438,136.5 511.9688,135.9219 L511.9688,138.6406 Z "/><text fill="#000000" font-family="sans-serif" font-size="12" lengthAdjust="spacingAndGlyphs" textLength="81" x="523" y="137.1543">TimeoutFilter</text><line style="stroke: #A80036; stroke-width: 1.5;" x1="495" x2="606" y1="149" y2="149"/><line style="stroke: #A80036; stroke-width: 1.5;" x1="495" x2="606" y1="157" y2="157"/><!--link Filter to TpsLimitFilter--><path d="M253.539,55.182 C212.964,73.1965 155.919,98.5233 114.742,116.8053 " fill="none" id="Filter-TpsLimitFilter" style="stroke: #A80036; stroke-width: 1.0;"/><polygon fill="none" points="250.874,48.706,271.993,46.988,256.555,61.502,250.874,48.706" style="stroke: #A80036; stroke-width: 1.0;"/><!--link Filter to ActiveLimitFilter--><path d="M272.373,72.1832 C260.46,87.1797 247.26,103.7962 236.908,116.8279 " fill="none" id="Filter-ActiveLimitFilter" style="stroke: #A80036; stroke-width: 1.0;"/><polygon fill="none" points="267.135,67.5234,285.056,56.217,278.097,76.2317,267.135,67.5234" style="stroke: #A80036; stroke-width: 1.0;"/><!--link Filter to ExecuteLimitFilter--><path d="M334.627,72.1832 C346.54,87.1797 359.74,103.7962 370.092,116.8279 " fill="none" id="Filter-ExecuteLimitFilter" style="stroke: #A80036; stroke-width: 1.0;"/><polygon fill="none" points="328.903,76.2317,321.944,56.217,339.865,67.5234,328.903,76.2317" style="stroke: #A80036; stroke-width: 1.0;"/><!--link Filter to TimeoutFilter--><path d="M353.666,54.732 C395.351,72.7895 454.511,98.4178 497.075,116.8562 " fill="none" id="Filter-TimeoutFilter" style="stroke: #A80036; stroke-width: 1.0;"/><polygon fill="none" points="350.603,61.034,335.034,46.66,356.168,48.187,350.603,61.034" style="stroke: #A80036; stroke-width: 1.0;"/><!--link Invocation to Filter--><path d="M196.004,32 C220.69,32 249.999,32 271.772,32 " fill="none" id="Invocation-Filter" style="stroke: #A80036; stroke-width: 1.0;"/><text fill="#000000" font-family="sans-serif" font-size="13" lengthAdjust="spacingAndGlyphs" textLength="26" x="214.5" y="25.0669">请求</text><polygon fill="#000000" points="243.5,19.0664,249.5,22.0664,243.5,25.0664,243.5,19.0664" style="stroke: #000000; stroke-width: 1.0;"/><!--link Filter to Result--><path d="M335.014,32 C357.321,32 387.251,32 410.333,32 " fill="none" id="Filter-Result" style="stroke: #A80036; stroke-width: 1.0;"/><text fill="#000000" font-family="sans-serif" font-size="13" lengthAdjust="spacingAndGlyphs" textLength="26" x="353.25" y="25.0669">得到</text><polygon fill="#000000" points="382.25,19.0664,388.25,22.0664,382.25,25.0664,382.25,19.0664" style="stroke: #000000; stroke-width: 1.0;"/><!--
@startuml
interface Filter
interface Invocation
interface Result

Filter <|- - TpsLimitFilter
Filter <|- - ActiveLimitFilter
Filter <|- - ExecuteLimitFilter
Filter <|- - TimeoutFilter

Invocation - Filter : 请求 >
Filter - Result : 得到 >
@enduml

PlantUML version 1.2017.12(Thu Apr 27 00:06:36 CST 2017)
(GPL source distribution)
Java Runtime: Java(TM) SE Runtime Environment
JVM: Java HotSpot(TM) 64-Bit Server VM
Java Version: 1.8.0_111-b14
Operating System: Linux
OS Version: 4.4.0-75-generic
Default Encoding: UTF-8
Language: en
Country: US
--></g></svg>