<?xml version="1.0" encoding="UTF-8" standalone="no"?><svg xmlns="http://www.w3.org/2000/svg" xmlns:xlink="http://www.w3.org/1999/xlink" contentScriptType="application/ecmascript" contentStyleType="text/css" height="224px" preserveAspectRatio="none" style="width:545px;height:224px;" version="1.1" viewBox="0 0 545 224" width="545px" zoomAndPan="magnify"><defs><filter height="300%" id="f1fqzm99uw4xp7" width="300%" x="-1" y="-1"><feGaussianBlur result="blurOut" stdDeviation="2.0"/><feColorMatrix in="blurOut" result="blurOut2" type="matrix" values="0 0 0 0 0 0 0 0 0 0 0 0 0 0 0 0 0 0 .4 0"/><feOffset dx="4.0" dy="4.0" in="blurOut2" result="blurOut3"/><feBlend in="SourceGraphic" in2="blurOut3" mode="normal"/></filter></defs><g><!--class Node--><rect fill="#FEFECE" filter="url(#f1fqzm99uw4xp7)" height="86.4141" id="Node" style="stroke: #A80036; stroke-width: 1.5;" width="80" x="244.5" y="8"/><ellipse cx="266.25" cy="24" fill="#B4A7E5" rx="11" ry="11" style="stroke: #A80036; stroke-width: 1.0;"/><path d="M262.1719,19.7656 L262.1719,17.6094 L269.5625,17.6094 L269.5625,19.7656 L267.0938,19.7656 L267.0938,27.8438 L269.5625,27.8438 L269.5625,30 L262.1719,30 L262.1719,27.8438 L264.6406,27.8438 L264.6406,19.7656 L262.1719,19.7656 Z "/><text fill="#000000" font-family="sans-serif" font-size="12" font-style="italic" lengthAdjust="spacingAndGlyphs" textLength="33" x="281.75" y="28.1543">Node</text><line style="stroke: #A80036; stroke-width: 1.5;" x1="245.5" x2="323.5" y1="40" y2="40"/><line style="stroke: #A80036; stroke-width: 1.5;" x1="245.5" x2="323.5" y1="48" y2="48"/><text fill="#000000" font-family="sans-serif" font-size="11" lengthAdjust="spacingAndGlyphs" textLength="42" x="250.5" y="62.2104">getUrl()</text><text fill="#000000" font-family="sans-serif" font-size="11" lengthAdjust="spacingAndGlyphs" textLength="68" x="250.5" y="75.0151">isAvailable()</text><text fill="#000000" font-family="sans-serif" font-size="11" lengthAdjust="spacingAndGlyphs" textLength="51" x="250.5" y="87.8198">destroy()</text><!--class Invocation--><rect fill="#FEFECE" filter="url(#f1fqzm99uw4xp7)" height="48" id="Invocation" style="stroke: #A80036; stroke-width: 1.5;" width="97" x="6" y="161.5"/><ellipse cx="21" cy="177.5" fill="#B4A7E5" rx="11" ry="11" style="stroke: #A80036; stroke-width: 1.0;"/><path d="M16.9219,173.2656 L16.9219,171.1094 L24.3125,171.1094 L24.3125,173.2656 L21.8438,173.2656 L21.8438,181.3438 L24.3125,181.3438 L24.3125,183.5 L16.9219,183.5 L16.9219,181.3438 L19.3906,181.3438 L19.3906,173.2656 L16.9219,173.2656 Z "/><text fill="#000000" font-family="sans-serif" font-size="12" font-style="italic" lengthAdjust="spacingAndGlyphs" textLength="65" x="35" y="181.6543">Invocation</text><line style="stroke: #A80036; stroke-width: 1.5;" x1="7" x2="102" y1="193.5" y2="193.5"/><line style="stroke: #A80036; stroke-width: 1.5;" x1="7" x2="102" y1="201.5" y2="201.5"/><!--class Invoker--><rect fill="#FEFECE" filter="url(#f1fqzm99uw4xp7)" height="60.8047" id="Invoker" style="stroke: #A80036; stroke-width: 1.5;" width="213" x="178" y="155"/><ellipse cx="257.25" cy="171" fill="#B4A7E5" rx="11" ry="11" style="stroke: #A80036; stroke-width: 1.0;"/><path d="M253.1719,166.7656 L253.1719,164.6094 L260.5625,164.6094 L260.5625,166.7656 L258.0938,166.7656 L258.0938,174.8438 L260.5625,174.8438 L260.5625,177 L253.1719,177 L253.1719,174.8438 L255.6406,174.8438 L255.6406,166.7656 L253.1719,166.7656 Z "/><text fill="#000000" font-family="sans-serif" font-size="12" font-style="italic" lengthAdjust="spacingAndGlyphs" textLength="46" x="277.75" y="175.1543">Invoker</text><line style="stroke: #A80036; stroke-width: 1.5;" x1="179" x2="390" y1="187" y2="187"/><line style="stroke: #A80036; stroke-width: 1.5;" x1="179" x2="390" y1="195" y2="195"/><text fill="#000000" font-family="sans-serif" font-size="11" lengthAdjust="spacingAndGlyphs" textLength="201" x="184" y="209.2104">Result invoke(Invocation invocation)</text><!--class Result--><rect fill="#FEFECE" filter="url(#f1fqzm99uw4xp7)" height="48" id="Result" style="stroke: #A80036; stroke-width: 1.5;" width="70" x="466.5" y="161.5"/><ellipse cx="481.5" cy="177.5" fill="#B4A7E5" rx="11" ry="11" style="stroke: #A80036; stroke-width: 1.0;"/><path d="M477.4219,173.2656 L477.4219,171.1094 L484.8125,171.1094 L484.8125,173.2656 L482.3438,173.2656 L482.3438,181.3438 L484.8125,181.3438 L484.8125,183.5 L477.4219,183.5 L477.4219,181.3438 L479.8906,181.3438 L479.8906,173.2656 L477.4219,173.2656 Z "/><text fill="#000000" font-family="sans-serif" font-size="12" font-style="italic" lengthAdjust="spacingAndGlyphs" textLength="38" x="495.5" y="181.6543">Result</text><line style="stroke: #A80036; stroke-width: 1.5;" x1="467.5" x2="535.5" y1="193.5" y2="193.5"/><line style="stroke: #A80036; stroke-width: 1.5;" x1="467.5" x2="535.5" y1="201.5" y2="201.5"/><!--link Node to Invoker--><path d="M284.5,114.43 C284.5,128.492 284.5,142.7845 284.5,154.7618 " fill="none" id="Node-Invoker" style="stroke: #A80036; stroke-width: 1.0;"/><polygon fill="none" points="277.5,114.288,284.5,94.288,291.5,114.288,277.5,114.288" style="stroke: #A80036; stroke-width: 1.0;"/><!--link Invocation to Invoker--><path d="M103.2771,185.5 C125.035,185.5 151.59,185.5 177.591,185.5 " fill="none" id="Invocation-Invoker" style="stroke: #A80036; stroke-width: 1.0;"/><text fill="#000000" font-family="sans-serif" font-size="13" lengthAdjust="spacingAndGlyphs" textLength="26" x="121" y="178.5669">经过</text><polygon fill="#000000" points="150,172.5664,156,175.5664,150,178.5664,150,172.5664" style="stroke: #000000; stroke-width: 1.0;"/><!--link Invoker to Result--><path d="M391.093,185.5 C418.318,185.5 445.702,185.5 466.388,185.5 " fill="none" id="Invoker-Result" style="stroke: #A80036; stroke-width: 1.0;"/><text fill="#000000" font-family="sans-serif" font-size="13" lengthAdjust="spacingAndGlyphs" textLength="26" x="409.25" y="178.5669">生成</text><polygon fill="#000000" points="438.25,172.5664,444.25,175.5664,438.25,178.5664,438.25,172.5664" style="stroke: #000000; stroke-width: 1.0;"/><!--
@startuml
interface Node
interface Invocation
interface Invoker
interface Result
Node : getUrl()
Node : isAvailable()
Node : destroy()

Invoker : Result invoke(Invocation invocation)

Node <|- - Invoker
Invocation - Invoker : 经过 >
Invoker - Result : 生成 >
@enduml

PlantUML version 1.2017.12(Thu Apr 27 00:06:36 CST 2017)
(GPL source distribution)
Java Runtime: Java(TM) SE Runtime Environment
JVM: Java HotSpot(TM) 64-Bit Server VM
Java Version: 1.8.0_111-b14
Operating System: Linux
OS Version: 4.4.0-75-generic
Default Encoding: UTF-8
Language: en
Country: US
--></g></svg>