<?xml version="1.0" encoding="UTF-8" standalone="no"?><svg xmlns="http://www.w3.org/2000/svg" xmlns:xlink="http://www.w3.org/1999/xlink" contentScriptType="application/ecmascript" contentStyleType="text/css" height="187px" preserveAspectRatio="none" style="width:1079px;height:187px;" version="1.1" viewBox="0 0 1079 187" width="1079px" zoomAndPan="magnify"><defs><filter height="300%" id="fscwzc4fo39mv" width="300%" x="-1" y="-1"><feGaussianBlur result="blurOut" stdDeviation="2.0"/><feColorMatrix in="blurOut" result="blurOut2" type="matrix" values="0 0 0 0 0 0 0 0 0 0 0 0 0 0 0 0 0 0 .4 0"/><feOffset dx="4.0" dy="4.0" in="blurOut2" result="blurOut3"/><feBlend in="SourceGraphic" in2="blurOut3" mode="normal"/></filter></defs><g><!--class Protocol--><rect fill="#FEFECE" filter="url(#fscwzc4fo39mv)" height="60.8047" id="Protocol" style="stroke: #A80036; stroke-width: 1.5;" width="244" x="469" y="8"/><ellipse cx="561.25" cy="24" fill="#B4A7E5" rx="11" ry="11" style="stroke: #A80036; stroke-width: 1.0;"/><path d="M557.1719,19.7656 L557.1719,17.6094 L564.5625,17.6094 L564.5625,19.7656 L562.0938,19.7656 L562.0938,27.8438 L564.5625,27.8438 L564.5625,30 L557.1719,30 L557.1719,27.8438 L559.6406,27.8438 L559.6406,19.7656 L557.1719,19.7656 Z "/><text fill="#000000" font-family="sans-serif" font-size="12" font-style="italic" lengthAdjust="spacingAndGlyphs" textLength="51" x="581.75" y="28.1543">Protocol</text><line style="stroke: #A80036; stroke-width: 1.5;" x1="470" x2="712" y1="40" y2="40"/><line style="stroke: #A80036; stroke-width: 1.5;" x1="470" x2="712" y1="48" y2="48"/><text fill="#000000" font-family="sans-serif" font-size="11" lengthAdjust="spacingAndGlyphs" textLength="232" x="475" y="62.2104">Exporter&lt;T&gt; export(Invoker&lt;T&gt; invoker)</text><!--class Exporter--><rect fill="#FEFECE" filter="url(#fscwzc4fo39mv)" height="48" id="Exporter" style="stroke: #A80036; stroke-width: 1.5;" width="86" x="880" y="14.5"/><ellipse cx="895" cy="30.5" fill="#B4A7E5" rx="11" ry="11" style="stroke: #A80036; stroke-width: 1.0;"/><path d="M890.9219,26.2656 L890.9219,24.1094 L898.3125,24.1094 L898.3125,26.2656 L895.8438,26.2656 L895.8438,34.3438 L898.3125,34.3438 L898.3125,36.5 L890.9219,36.5 L890.9219,34.3438 L893.3906,34.3438 L893.3906,26.2656 L890.9219,26.2656 Z "/><text fill="#000000" font-family="sans-serif" font-size="12" font-style="italic" lengthAdjust="spacingAndGlyphs" textLength="54" x="909" y="34.6543">Exporter</text><line style="stroke: #A80036; stroke-width: 1.5;" x1="881" x2="965" y1="46.5" y2="46.5"/><line style="stroke: #A80036; stroke-width: 1.5;" x1="881" x2="965" y1="54.5" y2="54.5"/><!--class Invoker--><rect fill="#FEFECE" filter="url(#fscwzc4fo39mv)" height="48" id="Invoker" style="stroke: #A80036; stroke-width: 1.5;" width="78" x="197" y="14.5"/><ellipse cx="212" cy="30.5" fill="#B4A7E5" rx="11" ry="11" style="stroke: #A80036; stroke-width: 1.0;"/><path d="M207.9219,26.2656 L207.9219,24.1094 L215.3125,24.1094 L215.3125,26.2656 L212.8438,26.2656 L212.8438,34.3438 L215.3125,34.3438 L215.3125,36.5 L207.9219,36.5 L207.9219,34.3438 L210.3906,34.3438 L210.3906,26.2656 L207.9219,26.2656 Z "/><text fill="#000000" font-family="sans-serif" font-size="12" font-style="italic" lengthAdjust="spacingAndGlyphs" textLength="46" x="226" y="34.6543">Invoker</text><line style="stroke: #A80036; stroke-width: 1.5;" x1="198" x2="274" y1="46.5" y2="46.5"/><line style="stroke: #A80036; stroke-width: 1.5;" x1="198" x2="274" y1="54.5" y2="54.5"/><!--class AbstractExporter--><rect fill="#FEFECE" filter="url(#fscwzc4fo39mv)" height="48" id="AbstractExporter" style="stroke: #A80036; stroke-width: 1.5;" width="138" x="932" y="130"/><ellipse cx="947" cy="146" fill="#A9DCDF" rx="11" ry="11" style="stroke: #A80036; stroke-width: 1.0;"/><path d="M947.1094,141.3438 L945.9531,146.4219 L948.2813,146.4219 L947.1094,141.3438 Z M945.625,139.1094 L948.6094,139.1094 L951.9688,151.5 L949.5156,151.5 L948.75,148.4375 L945.4688,148.4375 L944.7188,151.5 L942.2813,151.5 L945.625,139.1094 Z "/><text fill="#000000" font-family="sans-serif" font-size="12" font-style="italic" lengthAdjust="spacingAndGlyphs" textLength="106" x="961" y="150.1543">AbstractExporter</text><line style="stroke: #A80036; stroke-width: 1.5;" x1="933" x2="1069" y1="162" y2="162"/><line style="stroke: #A80036; stroke-width: 1.5;" x1="933" x2="1069" y1="170" y2="170"/><!--class AbstractProtocol--><rect fill="#FEFECE" filter="url(#fscwzc4fo39mv)" height="48" id="AbstractProtocol" style="stroke: #A80036; stroke-width: 1.5;" width="135" x="336.5" y="130"/><ellipse cx="351.5" cy="146" fill="#A9DCDF" rx="11" ry="11" style="stroke: #A80036; stroke-width: 1.0;"/><path d="M351.6094,141.3438 L350.4531,146.4219 L352.7813,146.4219 L351.6094,141.3438 Z M350.125,139.1094 L353.1094,139.1094 L356.4688,151.5 L354.0156,151.5 L353.25,148.4375 L349.9688,148.4375 L349.2188,151.5 L346.7813,151.5 L350.125,139.1094 Z "/><text fill="#000000" font-family="sans-serif" font-size="12" font-style="italic" lengthAdjust="spacingAndGlyphs" textLength="103" x="365.5" y="150.1543">AbstractProtocol</text><line style="stroke: #A80036; stroke-width: 1.5;" x1="337.5" x2="470.5" y1="162" y2="162"/><line style="stroke: #A80036; stroke-width: 1.5;" x1="337.5" x2="470.5" y1="170" y2="170"/><!--class AbstractInvoker--><rect fill="#FEFECE" filter="url(#fscwzc4fo39mv)" height="48" id="AbstractInvoker" style="stroke: #A80036; stroke-width: 1.5;" width="130" x="6" y="130"/><ellipse cx="21" cy="146" fill="#A9DCDF" rx="11" ry="11" style="stroke: #A80036; stroke-width: 1.0;"/><path d="M21.1094,141.3438 L19.9531,146.4219 L22.2813,146.4219 L21.1094,141.3438 Z M19.625,139.1094 L22.6094,139.1094 L25.9688,151.5 L23.5156,151.5 L22.75,148.4375 L19.4688,148.4375 L18.7188,151.5 L16.2813,151.5 L19.625,139.1094 Z "/><text fill="#000000" font-family="sans-serif" font-size="12" font-style="italic" lengthAdjust="spacingAndGlyphs" textLength="98" x="35" y="150.1543">AbstractInvoker</text><line style="stroke: #A80036; stroke-width: 1.5;" x1="7" x2="135" y1="162" y2="162"/><line style="stroke: #A80036; stroke-width: 1.5;" x1="7" x2="135" y1="170" y2="170"/><!--class ProtocolFilterWrapper--><rect fill="#FEFECE" filter="url(#fscwzc4fo39mv)" height="48" id="ProtocolFilterWrapper" style="stroke: #A80036; stroke-width: 1.5;" width="168" x="507" y="130"/><ellipse cx="522" cy="146" fill="#ADD1B2" rx="11" ry="11" style="stroke: #A80036; stroke-width: 1.0;"/><path d="M524.9688,151.6406 Q524.3906,151.9375 523.75,152.0859 Q523.1094,152.2344 522.4063,152.2344 Q519.9063,152.2344 518.5859,150.5859 Q517.2656,148.9375 517.2656,145.8125 Q517.2656,142.6875 518.5859,141.0313 Q519.9063,139.375 522.4063,139.375 Q523.1094,139.375 523.7578,139.5313 Q524.4063,139.6875 524.9688,139.9844 L524.9688,142.7031 Q524.3438,142.125 523.75,141.8516 Q523.1563,141.5781 522.5313,141.5781 Q521.1875,141.5781 520.5,142.6484 Q519.8125,143.7188 519.8125,145.8125 Q519.8125,147.9063 520.5,148.9766 Q521.1875,150.0469 522.5313,150.0469 Q523.1563,150.0469 523.75,149.7734 Q524.3438,149.5 524.9688,148.9219 L524.9688,151.6406 Z "/><text fill="#000000" font-family="sans-serif" font-size="12" lengthAdjust="spacingAndGlyphs" textLength="136" x="536" y="150.1543">ProtocolFilterWrapper</text><line style="stroke: #A80036; stroke-width: 1.5;" x1="508" x2="674" y1="162" y2="162"/><line style="stroke: #A80036; stroke-width: 1.5;" x1="508" x2="674" y1="170" y2="170"/><!--class ProtocolListenerWrapper--><rect fill="#FEFECE" filter="url(#fscwzc4fo39mv)" height="48" id="ProtocolListenerWrapper" style="stroke: #A80036; stroke-width: 1.5;" width="187" x="709.5" y="130"/><ellipse cx="724.5" cy="146" fill="#ADD1B2" rx="11" ry="11" style="stroke: #A80036; stroke-width: 1.0;"/><path d="M727.4688,151.6406 Q726.8906,151.9375 726.25,152.0859 Q725.6094,152.2344 724.9063,152.2344 Q722.4063,152.2344 721.0859,150.5859 Q719.7656,148.9375 719.7656,145.8125 Q719.7656,142.6875 721.0859,141.0313 Q722.4063,139.375 724.9063,139.375 Q725.6094,139.375 726.2578,139.5313 Q726.9063,139.6875 727.4688,139.9844 L727.4688,142.7031 Q726.8438,142.125 726.25,141.8516 Q725.6563,141.5781 725.0313,141.5781 Q723.6875,141.5781 723,142.6484 Q722.3125,143.7188 722.3125,145.8125 Q722.3125,147.9063 723,148.9766 Q723.6875,150.0469 725.0313,150.0469 Q725.6563,150.0469 726.25,149.7734 Q726.8438,149.5 727.4688,148.9219 L727.4688,151.6406 Z "/><text fill="#000000" font-family="sans-serif" font-size="12" lengthAdjust="spacingAndGlyphs" textLength="155" x="738.5" y="150.1543">ProtocolListenerWrapper</text><line style="stroke: #A80036; stroke-width: 1.5;" x1="710.5" x2="895.5" y1="162" y2="162"/><line style="stroke: #A80036; stroke-width: 1.5;" x1="710.5" x2="895.5" y1="170" y2="170"/><!--class InvokerWrapper--><rect fill="#FEFECE" filter="url(#fscwzc4fo39mv)" height="48" id="InvokerWrapper" style="stroke: #A80036; stroke-width: 1.5;" width="130" x="171" y="130"/><ellipse cx="186" cy="146" fill="#ADD1B2" rx="11" ry="11" style="stroke: #A80036; stroke-width: 1.0;"/><path d="M188.9688,151.6406 Q188.3906,151.9375 187.75,152.0859 Q187.1094,152.2344 186.4063,152.2344 Q183.9063,152.2344 182.5859,150.5859 Q181.2656,148.9375 181.2656,145.8125 Q181.2656,142.6875 182.5859,141.0313 Q183.9063,139.375 186.4063,139.375 Q187.1094,139.375 187.7578,139.5313 Q188.4063,139.6875 188.9688,139.9844 L188.9688,142.7031 Q188.3438,142.125 187.75,141.8516 Q187.1563,141.5781 186.5313,141.5781 Q185.1875,141.5781 184.5,142.6484 Q183.8125,143.7188 183.8125,145.8125 Q183.8125,147.9063 184.5,148.9766 Q185.1875,150.0469 186.5313,150.0469 Q187.1563,150.0469 187.75,149.7734 Q188.3438,149.5 188.9688,148.9219 L188.9688,151.6406 Z "/><text fill="#000000" font-family="sans-serif" font-size="12" lengthAdjust="spacingAndGlyphs" textLength="98" x="200" y="150.1543">InvokerWrapper</text><line style="stroke: #A80036; stroke-width: 1.5;" x1="172" x2="300" y1="162" y2="162"/><line style="stroke: #A80036; stroke-width: 1.5;" x1="172" x2="300" y1="170" y2="170"/><!--link Exporter to AbstractExporter--><path d="M950.325,79.2609 C961.934,96.1536 975.063,115.2586 985.049,129.7888 " fill="none" id="Exporter-AbstractExporter" style="stroke: #A80036; stroke-width: 1.0;"/><polygon fill="none" points="944.531,83.1899,938.973,62.742,956.069,75.261,944.531,83.1899" style="stroke: #A80036; stroke-width: 1.0;"/><!--link Protocol to AbstractProtocol--><path d="M525.158,79.4629 C497.344,96.3446 465.942,115.4042 442.077,129.8889 " fill="none" id="Protocol-AbstractProtocol" style="stroke: #A80036; stroke-width: 1.0;"/><polygon fill="none" points="521.627,73.418,542.356,69.024,528.891,85.3857,521.627,73.418" style="stroke: #A80036; stroke-width: 1.0;"/><!--link Protocol to ProtocolFilterWrapper--><path d="M591,89.4271 C591,103.4543 591,118.0457 591,129.7062 " fill="none" id="Protocol-ProtocolFilterWrapper" style="stroke: #A80036; stroke-width: 1.0;"/><polygon fill="none" points="584,89.0245,591,69.024,598,89.0245,584,89.0245" style="stroke: #A80036; stroke-width: 1.0;"/><!--link Protocol to ProtocolListenerWrapper--><path d="M663.856,78.5052 C695.824,95.6203 732.264,115.1296 759.832,129.8889 " fill="none" id="Protocol-ProtocolListenerWrapper" style="stroke: #A80036; stroke-width: 1.0;"/><polygon fill="none" points="660.475,84.6356,646.147,69.024,667.083,72.293,660.475,84.6356" style="stroke: #A80036; stroke-width: 1.0;"/><!--link Invoker to AbstractInvoker--><path d="M185.4,74.307 C159.109,92.392 127.708,113.992 104.4609,129.983 " fill="none" id="Invoker-AbstractInvoker" style="stroke: #A80036; stroke-width: 1.0;"/><polygon fill="none" points="181.766,68.31,202.212,62.742,189.701,79.8444,181.766,68.31" style="stroke: #A80036; stroke-width: 1.0;"/><!--link Invoker to InvokerWrapper--><path d="M236,82.7572 C236,98.7465 236,116.2528 236,129.7888 " fill="none" id="Invoker-InvokerWrapper" style="stroke: #A80036; stroke-width: 1.0;"/><polygon fill="none" points="229,82.7423,236,62.742,243,82.7423,229,82.7423" style="stroke: #A80036; stroke-width: 1.0;"/><!--link Invoker to Protocol--><path d="M275.007,38.5 C321.387,38.5 401.042,38.5 468.77,38.5 " fill="none" id="Invoker-Protocol" style="stroke: #A80036; stroke-width: 1.0;"/><text fill="#000000" font-family="sans-serif" font-size="13" lengthAdjust="spacingAndGlyphs" textLength="26" x="352.5" y="31.5669">通过</text><polygon fill="#000000" points="381.5,25.5664,387.5,28.5664,381.5,31.5664,381.5,25.5664" style="stroke: #000000; stroke-width: 1.0;"/><!--link Protocol to Exporter--><path d="M713.21,38.5 C771.636,38.5 837.855,38.5 879.993,38.5 " fill="none" id="Protocol-Exporter" style="stroke: #A80036; stroke-width: 1.0;"/><text fill="#000000" font-family="sans-serif" font-size="13" lengthAdjust="spacingAndGlyphs" textLength="39" x="770.5" y="31.5669">暴露为</text><polygon fill="#000000" points="812.5,25.5664,818.5,28.5664,812.5,31.5664,812.5,25.5664" style="stroke: #000000; stroke-width: 1.0;"/><!--
@startuml
interface Protocol
interface Exporter
interface Invoker
abstract AbstractExporter
abstract AbstractProtocol
abstract AbstractInvoker

Protocol : Exporter<T> export(Invoker<T> invoker)

Exporter <|- - AbstractExporter
Protocol <|- - AbstractProtocol
Protocol <|- - ProtocolFilterWrapper
Protocol <|- - ProtocolListenerWrapper
Invoker <|- - AbstractInvoker
Invoker <|- - InvokerWrapper
Invoker - Protocol : 通过 >
Protocol - Exporter : 暴露为 >
@enduml

PlantUML version 1.2017.12(Thu Apr 27 00:06:36 CST 2017)
(GPL source distribution)
Java Runtime: Java(TM) SE Runtime Environment
JVM: Java HotSpot(TM) 64-Bit Server VM
Java Version: 1.8.0_111-b14
Operating System: Linux
OS Version: 4.4.0-75-generic
Default Encoding: UTF-8
Language: en
Country: US
--></g></svg>