<?xml version="1.0" encoding="UTF-8" standalone="no"?><svg xmlns="http://www.w3.org/2000/svg" xmlns:xlink="http://www.w3.org/1999/xlink" contentScriptType="application/ecmascript" contentStyleType="text/css" height="296px" preserveAspectRatio="none" style="width:599px;height:296px;" version="1.1" viewBox="0 0 599 296" width="599px" zoomAndPan="magnify"><defs><filter height="300%" id="fbe4rp5nuw8zp" width="300%" x="-1" y="-1"><feGaussianBlur result="blurOut" stdDeviation="2.0"/><feColorMatrix in="blurOut" result="blurOut2" type="matrix" values="0 0 0 0 0 0 0 0 0 0 0 0 0 0 0 0 0 0 .4 0"/><feOffset dx="4.0" dy="4.0" in="blurOut2" result="blurOut3"/><feBlend in="SourceGraphic" in2="blurOut3" mode="normal"/></filter></defs><g><!--class ProxyFactory--><rect fill="#FEFECE" filter="url(#fbe4rp5nuw8zp)" height="60.8047" id="ProxyFactory" style="stroke: #A80036; stroke-width: 1.5;" width="191" x="202" y="8"/><ellipse cx="252.75" cy="24" fill="#B4A7E5" rx="11" ry="11" style="stroke: #A80036; stroke-width: 1.0;"/><path d="M248.6719,19.7656 L248.6719,17.6094 L256.0625,17.6094 L256.0625,19.7656 L253.5938,19.7656 L253.5938,27.8438 L256.0625,27.8438 L256.0625,30 L248.6719,30 L248.6719,27.8438 L251.1406,27.8438 L251.1406,19.7656 L248.6719,19.7656 Z "/><text fill="#000000" font-family="sans-serif" font-size="12" font-style="italic" lengthAdjust="spacingAndGlyphs" textLength="81" x="273.25" y="28.1543">ProxyFactory</text><line style="stroke: #A80036; stroke-width: 1.5;" x1="203" x2="392" y1="40" y2="40"/><line style="stroke: #A80036; stroke-width: 1.5;" x1="203" x2="392" y1="48" y2="48"/><text fill="#000000" font-family="sans-serif" font-size="11" lengthAdjust="spacingAndGlyphs" textLength="179" x="208" y="62.2104">T getProxy(Invoker&lt;T&gt; invoker)</text><!--class Invoker--><rect fill="#FEFECE" filter="url(#fbe4rp5nuw8zp)" height="48" id="Invoker" style="stroke: #A80036; stroke-width: 1.5;" width="78" x="48.5" y="14.5"/><ellipse cx="63.5" cy="30.5" fill="#B4A7E5" rx="11" ry="11" style="stroke: #A80036; stroke-width: 1.0;"/><path d="M59.4219,26.2656 L59.4219,24.1094 L66.8125,24.1094 L66.8125,26.2656 L64.3438,26.2656 L64.3438,34.3438 L66.8125,34.3438 L66.8125,36.5 L59.4219,36.5 L59.4219,34.3438 L61.8906,34.3438 L61.8906,26.2656 L59.4219,26.2656 Z "/><text fill="#000000" font-family="sans-serif" font-size="12" font-style="italic" lengthAdjust="spacingAndGlyphs" textLength="46" x="77.5" y="34.6543">Invoker</text><line style="stroke: #A80036; stroke-width: 1.5;" x1="49.5" x2="125.5" y1="46.5" y2="46.5"/><line style="stroke: #A80036; stroke-width: 1.5;" x1="49.5" x2="125.5" y1="54.5" y2="54.5"/><!--class AbstractProxyFactory--><rect fill="#FEFECE" filter="url(#fbe4rp5nuw8zp)" height="48" id="AbstractProxyFactory" style="stroke: #A80036; stroke-width: 1.5;" width="165" x="215" y="130"/><ellipse cx="230" cy="146" fill="#A9DCDF" rx="11" ry="11" style="stroke: #A80036; stroke-width: 1.0;"/><path d="M230.1094,141.3438 L228.9531,146.4219 L231.2813,146.4219 L230.1094,141.3438 Z M228.625,139.1094 L231.6094,139.1094 L234.9688,151.5 L232.5156,151.5 L231.75,148.4375 L228.4688,148.4375 L227.7188,151.5 L225.2813,151.5 L228.625,139.1094 Z "/><text fill="#000000" font-family="sans-serif" font-size="12" font-style="italic" lengthAdjust="spacingAndGlyphs" textLength="133" x="244" y="150.1543">AbstractProxyFactory</text><line style="stroke: #A80036; stroke-width: 1.5;" x1="216" x2="379" y1="162" y2="162"/><line style="stroke: #A80036; stroke-width: 1.5;" x1="216" x2="379" y1="170" y2="170"/><!--class JavassistProxyFactory--><rect fill="#FEFECE" filter="url(#fbe4rp5nuw8zp)" height="48" id="JavassistProxyFactory" style="stroke: #A80036; stroke-width: 1.5;" width="165" x="33" y="239"/><ellipse cx="48" cy="255" fill="#ADD1B2" rx="11" ry="11" style="stroke: #A80036; stroke-width: 1.0;"/><path d="M50.9688,260.6406 Q50.3906,260.9375 49.75,261.0859 Q49.1094,261.2344 48.4063,261.2344 Q45.9063,261.2344 44.5859,259.5859 Q43.2656,257.9375 43.2656,254.8125 Q43.2656,251.6875 44.5859,250.0313 Q45.9063,248.375 48.4063,248.375 Q49.1094,248.375 49.7578,248.5313 Q50.4063,248.6875 50.9688,248.9844 L50.9688,251.7031 Q50.3438,251.125 49.75,250.8516 Q49.1563,250.5781 48.5313,250.5781 Q47.1875,250.5781 46.5,251.6484 Q45.8125,252.7188 45.8125,254.8125 Q45.8125,256.9063 46.5,257.9766 Q47.1875,259.0469 48.5313,259.0469 Q49.1563,259.0469 49.75,258.7734 Q50.3438,258.5 50.9688,257.9219 L50.9688,260.6406 Z "/><text fill="#000000" font-family="sans-serif" font-size="12" lengthAdjust="spacingAndGlyphs" textLength="133" x="62" y="259.1543">JavassistProxyFactory</text><line style="stroke: #A80036; stroke-width: 1.5;" x1="34" x2="197" y1="271" y2="271"/><line style="stroke: #A80036; stroke-width: 1.5;" x1="34" x2="197" y1="279" y2="279"/><!--class JdkProxyFactory--><rect fill="#FEFECE" filter="url(#fbe4rp5nuw8zp)" height="48" id="JdkProxyFactory" style="stroke: #A80036; stroke-width: 1.5;" width="129" x="233" y="239"/><ellipse cx="248" cy="255" fill="#ADD1B2" rx="11" ry="11" style="stroke: #A80036; stroke-width: 1.0;"/><path d="M250.9688,260.6406 Q250.3906,260.9375 249.75,261.0859 Q249.1094,261.2344 248.4063,261.2344 Q245.9063,261.2344 244.5859,259.5859 Q243.2656,257.9375 243.2656,254.8125 Q243.2656,251.6875 244.5859,250.0313 Q245.9063,248.375 248.4063,248.375 Q249.1094,248.375 249.7578,248.5313 Q250.4063,248.6875 250.9688,248.9844 L250.9688,251.7031 Q250.3438,251.125 249.75,250.8516 Q249.1563,250.5781 248.5313,250.5781 Q247.1875,250.5781 246.5,251.6484 Q245.8125,252.7188 245.8125,254.8125 Q245.8125,256.9063 246.5,257.9766 Q247.1875,259.0469 248.5313,259.0469 Q249.1563,259.0469 249.75,258.7734 Q250.3438,258.5 250.9688,257.9219 L250.9688,260.6406 Z "/><text fill="#000000" font-family="sans-serif" font-size="12" lengthAdjust="spacingAndGlyphs" textLength="97" x="262" y="259.1543">JdkProxyFactory</text><line style="stroke: #A80036; stroke-width: 1.5;" x1="234" x2="361" y1="271" y2="271"/><line style="stroke: #A80036; stroke-width: 1.5;" x1="234" x2="361" y1="279" y2="279"/><!--class StubProxyFactoryWrapper--><rect fill="#FEFECE" filter="url(#fbe4rp5nuw8zp)" height="48" id="StubProxyFactoryWrapper" style="stroke: #A80036; stroke-width: 1.5;" width="193" x="397" y="239"/><ellipse cx="412" cy="255" fill="#ADD1B2" rx="11" ry="11" style="stroke: #A80036; stroke-width: 1.0;"/><path d="M414.9688,260.6406 Q414.3906,260.9375 413.75,261.0859 Q413.1094,261.2344 412.4063,261.2344 Q409.9063,261.2344 408.5859,259.5859 Q407.2656,257.9375 407.2656,254.8125 Q407.2656,251.6875 408.5859,250.0313 Q409.9063,248.375 412.4063,248.375 Q413.1094,248.375 413.7578,248.5313 Q414.4063,248.6875 414.9688,248.9844 L414.9688,251.7031 Q414.3438,251.125 413.75,250.8516 Q413.1563,250.5781 412.5313,250.5781 Q411.1875,250.5781 410.5,251.6484 Q409.8125,252.7188 409.8125,254.8125 Q409.8125,256.9063 410.5,257.9766 Q411.1875,259.0469 412.5313,259.0469 Q413.1563,259.0469 413.75,258.7734 Q414.3438,258.5 414.9688,257.9219 L414.9688,260.6406 Z "/><text fill="#000000" font-family="sans-serif" font-size="12" lengthAdjust="spacingAndGlyphs" textLength="161" x="426" y="259.1543">StubProxyFactoryWrapper</text><line style="stroke: #A80036; stroke-width: 1.5;" x1="398" x2="589" y1="271" y2="271"/><line style="stroke: #A80036; stroke-width: 1.5;" x1="398" x2="589" y1="279" y2="279"/><!--class AbstractProxyInvoker--><rect fill="#FEFECE" filter="url(#fbe4rp5nuw8zp)" height="48" id="AbstractProxyInvoker" style="stroke: #A80036; stroke-width: 1.5;" width="163" x="6" y="130"/><ellipse cx="21" cy="146" fill="#ADD1B2" rx="11" ry="11" style="stroke: #A80036; stroke-width: 1.0;"/><path d="M23.9688,151.6406 Q23.3906,151.9375 22.75,152.0859 Q22.1094,152.2344 21.4063,152.2344 Q18.9063,152.2344 17.5859,150.5859 Q16.2656,148.9375 16.2656,145.8125 Q16.2656,142.6875 17.5859,141.0313 Q18.9063,139.375 21.4063,139.375 Q22.1094,139.375 22.7578,139.5313 Q23.4063,139.6875 23.9688,139.9844 L23.9688,142.7031 Q23.3438,142.125 22.75,141.8516 Q22.1563,141.5781 21.5313,141.5781 Q20.1875,141.5781 19.5,142.6484 Q18.8125,143.7188 18.8125,145.8125 Q18.8125,147.9063 19.5,148.9766 Q20.1875,150.0469 21.5313,150.0469 Q22.1563,150.0469 22.75,149.7734 Q23.3438,149.5 23.9688,148.9219 L23.9688,151.6406 Z "/><text fill="#000000" font-family="sans-serif" font-size="12" lengthAdjust="spacingAndGlyphs" textLength="131" x="35" y="150.1543">AbstractProxyInvoker</text><line style="stroke: #A80036; stroke-width: 1.5;" x1="7" x2="168" y1="162" y2="162"/><line style="stroke: #A80036; stroke-width: 1.5;" x1="7" x2="168" y1="170" y2="170"/><!--link ProxyFactory to AbstractProxyFactory--><path d="M297.5,89.427 C297.5,103.454 297.5,118.046 297.5,129.706 " fill="none" id="ProxyFactory-AbstractProxyFactory" style="stroke: #A80036; stroke-width: 1.0;"/><polygon fill="none" points="290.5,89.025,297.5,69.024,304.5,89.024,290.5,89.025" style="stroke: #A80036; stroke-width: 1.0;"/><!--link AbstractProxyFactory to JavassistProxyFactory--><path d="M240.569,188.4702 C212.739,204.8319 179.94,224.1147 154.914,238.8279 " fill="none" id="AbstractProxyFactory-JavassistProxyFactory" style="stroke: #A80036; stroke-width: 1.0;"/><polygon fill="none" points="237.22,182.319,258.009,178.217,244.315,194.3881,237.22,182.319" style="stroke: #A80036; stroke-width: 1.0;"/><!--link AbstractProxyFactory to JdkProxyFactory--><path d="M297.5,198.5778 C297.5,212.3622 297.5,227.0574 297.5,238.8279 " fill="none" id="AbstractProxyFactory-JdkProxyFactory" style="stroke: #A80036; stroke-width: 1.0;"/><polygon fill="none" points="290.5,198.2174,297.5,178.217,304.5,198.2174,290.5,198.2174" style="stroke: #A80036; stroke-width: 1.0;"/><!--link AbstractProxyFactory to StubProxyFactoryWrapper--><path d="M357.955,188.0035 C388.107,204.4642 423.846,223.9746 451.054,238.8279 " fill="none" id="AbstractProxyFactory-StubProxyFactoryWrapper" style="stroke: #A80036; stroke-width: 1.0;"/><polygon fill="none" points="354.229,193.9448,340.029,178.217,360.938,181.657,354.229,193.9448" style="stroke: #A80036; stroke-width: 1.0;"/><!--link Invoker to AbstractProxyInvoker--><path d="M87.5,82.757 C87.5,98.747 87.5,116.253 87.5,129.789 " fill="none" id="Invoker-AbstractProxyInvoker" style="stroke: #A80036; stroke-width: 1.0;"/><polygon fill="none" points="80.5001,82.742,87.5,62.742,94.5001,82.742,80.5001,82.742" style="stroke: #A80036; stroke-width: 1.0;"/><!--link Invoker to ProxyFactory--><path d="M126.507,38.5 C147.858,38.5 175.33,38.5 201.981,38.5 " fill="none" id="Invoker-ProxyFactory" style="stroke: #A80036; stroke-width: 1.0;"/><text fill="#000000" font-family="sans-serif" font-size="13" lengthAdjust="spacingAndGlyphs" textLength="26" x="144.75" y="31.5669">经过</text><polygon fill="#000000" points="173.75,25.5664,179.75,28.5664,173.75,31.5664,173.75,25.5664" style="stroke: #000000; stroke-width: 1.0;"/><!--
@startuml
interface ProxyFactory
interface Invoker
abstract AbstractProxyFactory

ProxyFactory : T getProxy(Invoker<T> invoker)
ProxyFactory <|- - AbstractProxyFactory
AbstractProxyFactory <|- - JavassistProxyFactory
AbstractProxyFactory <|- - JdkProxyFactory
AbstractProxyFactory <|- - StubProxyFactoryWrapper
Invoker <|- - AbstractProxyInvoker
Invoker - ProxyFactory : 经过 >
@enduml

PlantUML version 1.2017.12(Thu Apr 27 00:06:36 CST 2017)
(GPL source distribution)
Java Runtime: Java(TM) SE Runtime Environment
JVM: Java HotSpot(TM) 64-Bit Server VM
Java Version: 1.8.0_111-b14
Operating System: Linux
OS Version: 4.4.0-75-generic
Default Encoding: UTF-8
Language: en
Country: US
--></g></svg>