<?xml version="1.0" encoding="UTF-8" standalone="no"?><svg xmlns="http://www.w3.org/2000/svg" xmlns:xlink="http://www.w3.org/1999/xlink" contentScriptType="application/ecmascript" contentStyleType="text/css" height="187px" preserveAspectRatio="none" style="width:485px;height:187px;" version="1.1" viewBox="0 0 485 187" width="485px" zoomAndPan="magnify"><defs><filter height="300%" id="f1qj7olxnp0gbo" width="300%" x="-1" y="-1"><feGaussianBlur result="blurOut" stdDeviation="2.0"/><feColorMatrix in="blurOut" result="blurOut2" type="matrix" values="0 0 0 0 0 0 0 0 0 0 0 0 0 0 0 0 0 0 .4 0"/><feOffset dx="4.0" dy="4.0" in="blurOut2" result="blurOut3"/><feBlend in="SourceGraphic" in2="blurOut3" mode="normal"/></filter></defs><g><!--class TPSLimiter--><rect fill="#FEFECE" filter="url(#f1qj7olxnp0gbo)" height="60.8047" id="TPSLimiter" style="stroke: #A80036; stroke-width: 1.5;" width="298" x="178.5" y="8"/><ellipse cx="291.25" cy="24" fill="#B4A7E5" rx="11" ry="11" style="stroke: #A80036; stroke-width: 1.0;"/><path d="M287.1719,19.7656 L287.1719,17.6094 L294.5625,17.6094 L294.5625,19.7656 L292.0938,19.7656 L292.0938,27.8438 L294.5625,27.8438 L294.5625,30 L287.1719,30 L287.1719,27.8438 L289.6406,27.8438 L289.6406,19.7656 L287.1719,19.7656 Z "/><text fill="#000000" font-family="sans-serif" font-size="12" font-style="italic" lengthAdjust="spacingAndGlyphs" textLength="64" x="311.75" y="28.1543">TPSLimiter</text><line style="stroke: #A80036; stroke-width: 1.5;" x1="179.5" x2="475.5" y1="40" y2="40"/><line style="stroke: #A80036; stroke-width: 1.5;" x1="179.5" x2="475.5" y1="48" y2="48"/><text fill="#000000" font-family="sans-serif" font-size="11" lengthAdjust="spacingAndGlyphs" textLength="286" x="184.5" y="62.2104">boolean isAllowable(URL url, Invocation invocation)</text><!--class Invocation--><rect fill="#FEFECE" filter="url(#f1qj7olxnp0gbo)" height="48" id="Invocation" style="stroke: #A80036; stroke-width: 1.5;" width="97" x="6" y="14.5"/><ellipse cx="21" cy="30.5" fill="#B4A7E5" rx="11" ry="11" style="stroke: #A80036; stroke-width: 1.0;"/><path d="M16.9219,26.2656 L16.9219,24.1094 L24.3125,24.1094 L24.3125,26.2656 L21.8438,26.2656 L21.8438,34.3438 L24.3125,34.3438 L24.3125,36.5 L16.9219,36.5 L16.9219,34.3438 L19.3906,34.3438 L19.3906,26.2656 L16.9219,26.2656 Z "/><text fill="#000000" font-family="sans-serif" font-size="12" font-style="italic" lengthAdjust="spacingAndGlyphs" textLength="65" x="35" y="34.6543">Invocation</text><line style="stroke: #A80036; stroke-width: 1.5;" x1="7" x2="102" y1="46.5" y2="46.5"/><line style="stroke: #A80036; stroke-width: 1.5;" x1="7" x2="102" y1="54.5" y2="54.5"/><!--class DefaultTPSLimiter--><rect fill="#FEFECE" filter="url(#f1qj7olxnp0gbo)" height="48" id="DefaultTPSLimiter" style="stroke: #A80036; stroke-width: 1.5;" width="141" x="257" y="130"/><ellipse cx="272" cy="146" fill="#ADD1B2" rx="11" ry="11" style="stroke: #A80036; stroke-width: 1.0;"/><path d="M274.9688,151.6406 Q274.3906,151.9375 273.75,152.0859 Q273.1094,152.2344 272.4063,152.2344 Q269.9063,152.2344 268.5859,150.5859 Q267.2656,148.9375 267.2656,145.8125 Q267.2656,142.6875 268.5859,141.0313 Q269.9063,139.375 272.4063,139.375 Q273.1094,139.375 273.7578,139.5313 Q274.4063,139.6875 274.9688,139.9844 L274.9688,142.7031 Q274.3438,142.125 273.75,141.8516 Q273.1563,141.5781 272.5313,141.5781 Q271.1875,141.5781 270.5,142.6484 Q269.8125,143.7188 269.8125,145.8125 Q269.8125,147.9063 270.5,148.9766 Q271.1875,150.0469 272.5313,150.0469 Q273.1563,150.0469 273.75,149.7734 Q274.3438,149.5 274.9688,148.9219 L274.9688,151.6406 Z "/><text fill="#000000" font-family="sans-serif" font-size="12" lengthAdjust="spacingAndGlyphs" textLength="109" x="286" y="150.1543">DefaultTPSLimiter</text><line style="stroke: #A80036; stroke-width: 1.5;" x1="258" x2="397" y1="162" y2="162"/><line style="stroke: #A80036; stroke-width: 1.5;" x1="258" x2="397" y1="170" y2="170"/><!--link Invocation to TPSLimiter--><path d="M103.3069,38.5 C124.778,38.5 151.27,38.5 178.431,38.5 " fill="none" id="Invocation-TPSLimiter" style="stroke: #A80036; stroke-width: 1.0;"/><text fill="#000000" font-family="sans-serif" font-size="13" lengthAdjust="spacingAndGlyphs" textLength="26" x="121.25" y="31.5669">请求</text><polygon fill="#000000" points="150.25,25.5664,156.25,28.5664,150.25,31.5664,150.25,25.5664" style="stroke: #000000; stroke-width: 1.0;"/><!--link TPSLimiter to DefaultTPSLimiter--><path d="M327.5,89.4271 C327.5,103.4543 327.5,118.0457 327.5,129.7062 " fill="none" id="TPSLimiter-DefaultTPSLimiter" style="stroke: #A80036; stroke-width: 1.0;"/><polygon fill="none" points="320.5,89.0245,327.5,69.024,334.5,89.0245,320.5,89.0245" style="stroke: #A80036; stroke-width: 1.0;"/><!--
@startuml
interface TPSLimiter
interface Invocation

TPSLimiter : boolean isAllowable(URL url, Invocation invocation)
Invocation - TPSLimiter : 请求 >
TPSLimiter <|- - DefaultTPSLimiter
@enduml

PlantUML version 1.2017.12(Thu Apr 27 00:06:36 CST 2017)
(GPL source distribution)
Java Runtime: Java(TM) SE Runtime Environment
JVM: Java HotSpot(TM) 64-Bit Server VM
Java Version: 1.8.0_111-b14
Operating System: Linux
OS Version: 4.4.0-75-generic
Default Encoding: UTF-8
Language: en
Country: US
--></g></svg>