<?xml version="1.0" encoding="UTF-8" standalone="no"?><svg xmlns="http://www.w3.org/2000/svg" xmlns:xlink="http://www.w3.org/1999/xlink" contentScriptType="application/ecmascript" contentStyleType="text/css" height="713px" preserveAspectRatio="none" style="width:330px;height:713px;" version="1.1" viewBox="0 0 330 713" width="330px" zoomAndPan="magnify"><defs><filter height="300%" id="f1k7r22dafyvvd" width="300%" x="-1" y="-1"><feGaussianBlur result="blurOut" stdDeviation="2.0"/><feColorMatrix in="blurOut" result="blurOut2" type="matrix" values="0 0 0 0 0 0 0 0 0 0 0 0 0 0 0 0 0 0 .4 0"/><feOffset dx="4.0" dy="4.0" in="blurOut2" result="blurOut3"/><feBlend in="SourceGraphic" in2="blurOut3" mode="normal"/></filter></defs><g><!--class AbstractApplicationContext--><rect fill="#FEFECE" filter="url(#f1k7r22dafyvvd)" height="48" id="AbstractApplicationContext" style="stroke: #A80036; stroke-width: 1.5;" width="202" x="62.5" y="224"/><ellipse cx="77.5" cy="240" fill="#A9DCDF" rx="11" ry="11" style="stroke: #A80036; stroke-width: 1.0;"/><path d="M77.6094,235.3438 L76.4531,240.4219 L78.7813,240.4219 L77.6094,235.3438 Z M76.125,233.1094 L79.1094,233.1094 L82.4688,245.5 L80.0156,245.5 L79.25,242.4375 L75.9688,242.4375 L75.2188,245.5 L72.7813,245.5 L76.125,233.1094 Z "/><text fill="#000000" font-family="sans-serif" font-size="12" font-style="italic" lengthAdjust="spacingAndGlyphs" textLength="170" x="91.5" y="244.1543">AbstractApplicationContext</text><line style="stroke: #A80036; stroke-width: 1.5;" x1="63.5" x2="263.5" y1="256" y2="256"/><line style="stroke: #A80036; stroke-width: 1.5;" x1="63.5" x2="263.5" y1="264" y2="264"/><!--class AbstractRefreshableApplicationContext--><rect fill="#FEFECE" filter="url(#f1k7r22dafyvvd)" height="48" id="AbstractRefreshableApplicationContext" style="stroke: #A80036; stroke-width: 1.5;" width="276" x="25.5" y="332"/><ellipse cx="40.5" cy="348" fill="#A9DCDF" rx="11" ry="11" style="stroke: #A80036; stroke-width: 1.0;"/><path d="M40.6094,343.3438 L39.4531,348.4219 L41.7813,348.4219 L40.6094,343.3438 Z M39.125,341.1094 L42.1094,341.1094 L45.4688,353.5 L43.0156,353.5 L42.25,350.4375 L38.9688,350.4375 L38.2188,353.5 L35.7813,353.5 L39.125,341.1094 Z "/><text fill="#000000" font-family="sans-serif" font-size="12" font-style="italic" lengthAdjust="spacingAndGlyphs" textLength="244" x="54.5" y="352.1543">AbstractRefreshableApplicationContext</text><line style="stroke: #A80036; stroke-width: 1.5;" x1="26.5" x2="300.5" y1="364" y2="364"/><line style="stroke: #A80036; stroke-width: 1.5;" x1="26.5" x2="300.5" y1="372" y2="372"/><!--class AbstractRefreshableConfigApplicationContext--><rect fill="#FEFECE" filter="url(#f1k7r22dafyvvd)" height="48" id="AbstractRefreshableConfigApplicationContext" style="stroke: #A80036; stroke-width: 1.5;" width="315" x="6" y="440"/><ellipse cx="21" cy="456" fill="#A9DCDF" rx="11" ry="11" style="stroke: #A80036; stroke-width: 1.0;"/><path d="M21.1094,451.3438 L19.9531,456.4219 L22.2813,456.4219 L21.1094,451.3438 Z M19.625,449.1094 L22.6094,449.1094 L25.9688,461.5 L23.5156,461.5 L22.75,458.4375 L19.4688,458.4375 L18.7188,461.5 L16.2813,461.5 L19.625,449.1094 Z "/><text fill="#000000" font-family="sans-serif" font-size="12" font-style="italic" lengthAdjust="spacingAndGlyphs" textLength="283" x="35" y="460.1543">AbstractRefreshableConfigApplicationContext</text><line style="stroke: #A80036; stroke-width: 1.5;" x1="7" x2="320" y1="472" y2="472"/><line style="stroke: #A80036; stroke-width: 1.5;" x1="7" x2="320" y1="480" y2="480"/><!--class AbstractXmlApplicationContext--><rect fill="#FEFECE" filter="url(#f1k7r22dafyvvd)" height="48" id="AbstractXmlApplicationContext" style="stroke: #A80036; stroke-width: 1.5;" width="224" x="51.5" y="548"/><ellipse cx="66.5" cy="564" fill="#A9DCDF" rx="11" ry="11" style="stroke: #A80036; stroke-width: 1.0;"/><path d="M66.6094,559.3438 L65.4531,564.4219 L67.7813,564.4219 L66.6094,559.3438 Z M65.125,557.1094 L68.1094,557.1094 L71.4688,569.5 L69.0156,569.5 L68.25,566.4375 L64.9688,566.4375 L64.2188,569.5 L61.7813,569.5 L65.125,557.1094 Z "/><text fill="#000000" font-family="sans-serif" font-size="12" font-style="italic" lengthAdjust="spacingAndGlyphs" textLength="192" x="80.5" y="568.1543">AbstractXmlApplicationContext</text><line style="stroke: #A80036; stroke-width: 1.5;" x1="52.5" x2="274.5" y1="580" y2="580"/><line style="stroke: #A80036; stroke-width: 1.5;" x1="52.5" x2="274.5" y1="588" y2="588"/><!--class ConfigurableApplicationContext--><rect fill="#FEFECE" filter="url(#f1k7r22dafyvvd)" height="48" id="ConfigurableApplicationContext" style="stroke: #A80036; stroke-width: 1.5;" width="229" x="49" y="116"/><ellipse cx="64" cy="132" fill="#B4A7E5" rx="11" ry="11" style="stroke: #A80036; stroke-width: 1.0;"/><path d="M59.9219,127.7656 L59.9219,125.6094 L67.3125,125.6094 L67.3125,127.7656 L64.8438,127.7656 L64.8438,135.8438 L67.3125,135.8438 L67.3125,138 L59.9219,138 L59.9219,135.8438 L62.3906,135.8438 L62.3906,127.7656 L59.9219,127.7656 Z "/><text fill="#000000" font-family="sans-serif" font-size="12" font-style="italic" lengthAdjust="spacingAndGlyphs" textLength="197" x="78" y="136.1543">ConfigurableApplicationContext</text><line style="stroke: #A80036; stroke-width: 1.5;" x1="50" x2="277" y1="148" y2="148"/><line style="stroke: #A80036; stroke-width: 1.5;" x1="50" x2="277" y1="156" y2="156"/><!--class ApplicationContext--><rect fill="#FEFECE" filter="url(#f1k7r22dafyvvd)" height="48" id="ApplicationContext" style="stroke: #A80036; stroke-width: 1.5;" width="150" x="88.5" y="8"/><ellipse cx="103.5" cy="24" fill="#B4A7E5" rx="11" ry="11" style="stroke: #A80036; stroke-width: 1.0;"/><path d="M99.4219,19.7656 L99.4219,17.6094 L106.8125,17.6094 L106.8125,19.7656 L104.3438,19.7656 L104.3438,27.8438 L106.8125,27.8438 L106.8125,30 L99.4219,30 L99.4219,27.8438 L101.8906,27.8438 L101.8906,19.7656 L99.4219,19.7656 Z "/><text fill="#000000" font-family="sans-serif" font-size="12" font-style="italic" lengthAdjust="spacingAndGlyphs" textLength="118" x="117.5" y="28.1543">ApplicationContext</text><line style="stroke: #A80036; stroke-width: 1.5;" x1="89.5" x2="237.5" y1="40" y2="40"/><line style="stroke: #A80036; stroke-width: 1.5;" x1="89.5" x2="237.5" y1="48" y2="48"/><!--class ClassPathXmlApplicationContext--><rect fill="#FEFECE" filter="url(#f1k7r22dafyvvd)" height="48" id="ClassPathXmlApplicationContext" style="stroke: #A80036; stroke-width: 1.5;" width="232" x="47.5" y="656"/><ellipse cx="62.5" cy="672" fill="#ADD1B2" rx="11" ry="11" style="stroke: #A80036; stroke-width: 1.0;"/><path d="M65.4688,677.6406 Q64.8906,677.9375 64.25,678.0859 Q63.6094,678.2344 62.9063,678.2344 Q60.4063,678.2344 59.0859,676.5859 Q57.7656,674.9375 57.7656,671.8125 Q57.7656,668.6875 59.0859,667.0313 Q60.4063,665.375 62.9063,665.375 Q63.6094,665.375 64.2578,665.5313 Q64.9063,665.6875 65.4688,665.9844 L65.4688,668.7031 Q64.8438,668.125 64.25,667.8516 Q63.6563,667.5781 63.0313,667.5781 Q61.6875,667.5781 61,668.6484 Q60.3125,669.7188 60.3125,671.8125 Q60.3125,673.9063 61,674.9766 Q61.6875,676.0469 63.0313,676.0469 Q63.6563,676.0469 64.25,675.7734 Q64.8438,675.5 65.4688,674.9219 L65.4688,677.6406 Z "/><text fill="#000000" font-family="sans-serif" font-size="12" lengthAdjust="spacingAndGlyphs" textLength="200" x="76.5" y="676.1543">ClassPathXmlApplicationContext</text><line style="stroke: #A80036; stroke-width: 1.5;" x1="48.5" x2="278.5" y1="688" y2="688"/><line style="stroke: #A80036; stroke-width: 1.5;" x1="48.5" x2="278.5" y1="696" y2="696"/><!--link ApplicationContext to ConfigurableApplicationContext--><path d="M163.5,76.024 C163.5,89.579 163.5,104.038 163.5,115.678 " fill="none" id="ApplicationContext-ConfigurableApplicationContext" style="stroke: #A80036; stroke-width: 1.0;"/><polygon fill="none" points="156.5,76,163.5,56,170.5,76,156.5,76" style="stroke: #A80036; stroke-width: 1.0;"/><!--link ConfigurableApplicationContext to AbstractApplicationContext--><path d="M163.5,184.024 C163.5,197.579 163.5,212.038 163.5,223.678 " fill="none" id="ConfigurableApplicationContext-AbstractApplicationContext" style="stroke: #A80036; stroke-width: 1.0;"/><polygon fill="none" points="156.5,184,163.5,164,170.5,184,156.5,184" style="stroke: #A80036; stroke-width: 1.0;"/><!--link AbstractApplicationContext to AbstractRefreshableApplicationContext--><path d="M163.5,292.024 C163.5,305.579 163.5,320.038 163.5,331.678 " fill="none" id="AbstractApplicationContext-AbstractRefreshableApplicationContext" style="stroke: #A80036; stroke-width: 1.0;"/><polygon fill="none" points="156.5,292,163.5,272,170.5,292,156.5,292" style="stroke: #A80036; stroke-width: 1.0;"/><!--link AbstractRefreshableApplicationContext to AbstractRefreshableConfigApplicationContext--><path d="M163.5,400.024 C163.5,413.579 163.5,428.038 163.5,439.678 " fill="none" id="AbstractRefreshableApplicationContext-AbstractRefreshableConfigApplicationContext" style="stroke: #A80036; stroke-width: 1.0;"/><polygon fill="none" points="156.5,400,163.5,380,170.5,400,156.5,400" style="stroke: #A80036; stroke-width: 1.0;"/><!--link AbstractRefreshableConfigApplicationContext to AbstractXmlApplicationContext--><path d="M163.5,508.024 C163.5,521.579 163.5,536.038 163.5,547.678 " fill="none" id="AbstractRefreshableConfigApplicationContext-AbstractXmlApplicationContext" style="stroke: #A80036; stroke-width: 1.0;"/><polygon fill="none" points="156.5,508,163.5,488,170.5,508,156.5,508" style="stroke: #A80036; stroke-width: 1.0;"/><!--link AbstractXmlApplicationContext to ClassPathXmlApplicationContext--><path d="M163.5,616.0236 C163.5,629.5792 163.5,644.0381 163.5,655.6784 " fill="none" id="AbstractXmlApplicationContext-ClassPathXmlApplicationContext" style="stroke: #A80036; stroke-width: 1.0;"/><polygon fill="none" points="156.5,616.0005,163.5,596,170.5,616.0004,156.5,616.0005" style="stroke: #A80036; stroke-width: 1.0;"/><!--
@startuml
abstract AbstractApplicationContext
abstract AbstractRefreshableApplicationContext
abstract AbstractRefreshableConfigApplicationContext
abstract AbstractXmlApplicationContext
interface ConfigurableApplicationContext
interface ApplicationContext

ApplicationContext <|- - ConfigurableApplicationContext
ConfigurableApplicationContext <|- - AbstractApplicationContext
AbstractApplicationContext <|- - AbstractRefreshableApplicationContext
AbstractRefreshableApplicationContext <|- - AbstractRefreshableConfigApplicationContext
AbstractRefreshableConfigApplicationContext <|- - AbstractXmlApplicationContext
AbstractXmlApplicationContext <|- - ClassPathXmlApplicationContext
@enduml

PlantUML version 1.2017.12(Thu Apr 27 00:06:36 CST 2017)
(GPL source distribution)
Java Runtime: Java(TM) SE Runtime Environment
JVM: Java HotSpot(TM) 64-Bit Server VM
Java Version: 1.8.0_111-b14
Operating System: Linux
OS Version: 4.4.0-75-generic
Default Encoding: UTF-8
Language: en
Country: US
--></g></svg>