<?xml version="1.0" encoding="UTF-8" standalone="no"?><svg xmlns="http://www.w3.org/2000/svg" xmlns:xlink="http://www.w3.org/1999/xlink" contentScriptType="application/ecmascript" contentStyleType="text/css" height="173px" preserveAspectRatio="none" style="width:292px;height:173px;" version="1.1" viewBox="0 0 292 173" width="292px" zoomAndPan="magnify"><defs><filter height="300%" id="f1ie70j6epp2m1" width="300%" x="-1" y="-1"><feGaussianBlur result="blurOut" stdDeviation="2.0"/><feColorMatrix in="blurOut" result="blurOut2" type="matrix" values="0 0 0 0 0 0 0 0 0 0 0 0 0 0 0 0 0 0 .4 0"/><feOffset dx="4.0" dy="4.0" in="blurOut2" result="blurOut3"/><feBlend in="SourceGraphic" in2="blurOut3" mode="normal"/></filter></defs><g><!--class BeanDefinitionDocumentReader--><rect fill="#FEFECE" filter="url(#f1ie70j6epp2m1)" height="48" id="BeanDefinitionDocumentReader" style="stroke: #A80036; stroke-width: 1.5;" width="232" x="28.5" y="8"/><ellipse cx="43.5" cy="24" fill="#B4A7E5" rx="11" ry="11" style="stroke: #A80036; stroke-width: 1.0;"/><path d="M39.4219,19.7656 L39.4219,17.6094 L46.8125,17.6094 L46.8125,19.7656 L44.3438,19.7656 L44.3438,27.8438 L46.8125,27.8438 L46.8125,30 L39.4219,30 L39.4219,27.8438 L41.8906,27.8438 L41.8906,19.7656 L39.4219,19.7656 Z "/><text fill="#000000" font-family="sans-serif" font-size="12" font-style="italic" lengthAdjust="spacingAndGlyphs" textLength="200" x="57.5" y="28.1543">BeanDefinitionDocumentReader</text><line style="stroke: #A80036; stroke-width: 1.5;" x1="29.5" x2="259.5" y1="40" y2="40"/><line style="stroke: #A80036; stroke-width: 1.5;" x1="29.5" x2="259.5" y1="48" y2="48"/><!--class DefaultBeanDefinitionDocumentReader--><rect fill="#FEFECE" filter="url(#f1ie70j6epp2m1)" height="48" id="DefaultBeanDefinitionDocumentReader" style="stroke: #A80036; stroke-width: 1.5;" width="277" x="6" y="116"/><ellipse cx="21" cy="132" fill="#ADD1B2" rx="11" ry="11" style="stroke: #A80036; stroke-width: 1.0;"/><path d="M23.9688,137.6406 Q23.3906,137.9375 22.75,138.0859 Q22.1094,138.2344 21.4063,138.2344 Q18.9063,138.2344 17.5859,136.5859 Q16.2656,134.9375 16.2656,131.8125 Q16.2656,128.6875 17.5859,127.0313 Q18.9063,125.375 21.4063,125.375 Q22.1094,125.375 22.7578,125.5313 Q23.4063,125.6875 23.9688,125.9844 L23.9688,128.7031 Q23.3438,128.125 22.75,127.8516 Q22.1563,127.5781 21.5313,127.5781 Q20.1875,127.5781 19.5,128.6484 Q18.8125,129.7188 18.8125,131.8125 Q18.8125,133.9063 19.5,134.9766 Q20.1875,136.0469 21.5313,136.0469 Q22.1563,136.0469 22.75,135.7734 Q23.3438,135.5 23.9688,134.9219 L23.9688,137.6406 Z "/><text fill="#000000" font-family="sans-serif" font-size="12" lengthAdjust="spacingAndGlyphs" textLength="245" x="35" y="136.1543">DefaultBeanDefinitionDocumentReader</text><line style="stroke: #A80036; stroke-width: 1.5;" x1="7" x2="282" y1="148" y2="148"/><line style="stroke: #A80036; stroke-width: 1.5;" x1="7" x2="282" y1="156" y2="156"/><!--link BeanDefinitionDocumentReader to DefaultBeanDefinitionDocumentReader--><path d="M144.5,76.0236 C144.5,89.5792 144.5,104.0381 144.5,115.6784 " fill="none" id="BeanDefinitionDocumentReader-DefaultBeanDefinitionDocumentReader" style="stroke: #A80036; stroke-width: 1.0;"/><polygon fill="none" points="137.5,76.0005,144.5,56,151.5,76.0004,137.5,76.0005" style="stroke: #A80036; stroke-width: 1.0;"/><!--
@startuml
interface BeanDefinitionDocumentReader
BeanDefinitionDocumentReader <|- - DefaultBeanDefinitionDocumentReader
@enduml

PlantUML version 1.2017.12(Thu Apr 27 00:06:36 CST 2017)
(GPL source distribution)
Java Runtime: Java(TM) SE Runtime Environment
JVM: Java HotSpot(TM) 64-Bit Server VM
Java Version: 1.8.0_111-b14
Operating System: Linux
OS Version: 4.4.0-75-generic
Default Encoding: UTF-8
Language: en
Country: US
--></g></svg>