<?xml version="1.0" encoding="UTF-8" standalone="no"?><svg xmlns="http://www.w3.org/2000/svg" xmlns:xlink="http://www.w3.org/1999/xlink" contentScriptType="application/ecmascript" contentStyleType="text/css" height="497px" preserveAspectRatio="none" style="width:865px;height:497px;" version="1.1" viewBox="0 0 865 497" width="865px" zoomAndPan="magnify"><defs><filter height="300%" id="f10ubrepjxodun" width="300%" x="-1" y="-1"><feGaussianBlur result="blurOut" stdDeviation="2.0"/><feColorMatrix in="blurOut" result="blurOut2" type="matrix" values="0 0 0 0 0 0 0 0 0 0 0 0 0 0 0 0 0 0 .4 0"/><feOffset dx="4.0" dy="4.0" in="blurOut2" result="blurOut3"/><feBlend in="SourceGraphic" in2="blurOut3" mode="normal"/></filter></defs><g><!--class InputStreamSource--><rect fill="#FEFECE" filter="url(#f10ubrepjxodun)" height="48" id="InputStreamSource" style="stroke: #A80036; stroke-width: 1.5;" width="154" x="411.5" y="8"/><ellipse cx="426.5" cy="24" fill="#B4A7E5" rx="11" ry="11" style="stroke: #A80036; stroke-width: 1.0;"/><path d="M422.4219,19.7656 L422.4219,17.6094 L429.8125,17.6094 L429.8125,19.7656 L427.3438,19.7656 L427.3438,27.8438 L429.8125,27.8438 L429.8125,30 L422.4219,30 L422.4219,27.8438 L424.8906,27.8438 L424.8906,19.7656 L422.4219,19.7656 Z "/><text fill="#000000" font-family="sans-serif" font-size="12" font-style="italic" lengthAdjust="spacingAndGlyphs" textLength="122" x="440.5" y="28.1543">InputStreamSource</text><line style="stroke: #A80036; stroke-width: 1.5;" x1="412.5" x2="564.5" y1="40" y2="40"/><line style="stroke: #A80036; stroke-width: 1.5;" x1="412.5" x2="564.5" y1="48" y2="48"/><!--class Resource--><rect fill="#FEFECE" filter="url(#f10ubrepjxodun)" height="48" id="Resource" style="stroke: #A80036; stroke-width: 1.5;" width="90" x="443.5" y="116"/><ellipse cx="458.5" cy="132" fill="#B4A7E5" rx="11" ry="11" style="stroke: #A80036; stroke-width: 1.0;"/><path d="M454.4219,127.7656 L454.4219,125.6094 L461.8125,125.6094 L461.8125,127.7656 L459.3438,127.7656 L459.3438,135.8438 L461.8125,135.8438 L461.8125,138 L454.4219,138 L454.4219,135.8438 L456.8906,135.8438 L456.8906,127.7656 L454.4219,127.7656 Z "/><text fill="#000000" font-family="sans-serif" font-size="12" font-style="italic" lengthAdjust="spacingAndGlyphs" textLength="58" x="472.5" y="136.1543">Resource</text><line style="stroke: #A80036; stroke-width: 1.5;" x1="444.5" x2="532.5" y1="148" y2="148"/><line style="stroke: #A80036; stroke-width: 1.5;" x1="444.5" x2="532.5" y1="156" y2="156"/><!--class AbstractResource--><rect fill="#FEFECE" filter="url(#f10ubrepjxodun)" height="48" id="AbstractResource" style="stroke: #A80036; stroke-width: 1.5;" width="142" x="417.5" y="224"/><ellipse cx="432.5" cy="240" fill="#A9DCDF" rx="11" ry="11" style="stroke: #A80036; stroke-width: 1.0;"/><path d="M432.6094,235.3438 L431.4531,240.4219 L433.7813,240.4219 L432.6094,235.3438 Z M431.125,233.1094 L434.1094,233.1094 L437.4688,245.5 L435.0156,245.5 L434.25,242.4375 L430.9688,242.4375 L430.2188,245.5 L427.7813,245.5 L431.125,233.1094 Z "/><text fill="#000000" font-family="sans-serif" font-size="12" font-style="italic" lengthAdjust="spacingAndGlyphs" textLength="110" x="446.5" y="244.1543">AbstractResource</text><line style="stroke: #A80036; stroke-width: 1.5;" x1="418.5" x2="558.5" y1="256" y2="256"/><line style="stroke: #A80036; stroke-width: 1.5;" x1="418.5" x2="558.5" y1="264" y2="264"/><!--class AbstractFileResolvingResource--><rect fill="#FEFECE" filter="url(#f10ubrepjxodun)" height="48" id="AbstractFileResolvingResource" style="stroke: #A80036; stroke-width: 1.5;" width="221" x="55" y="332"/><ellipse cx="70" cy="348" fill="#A9DCDF" rx="11" ry="11" style="stroke: #A80036; stroke-width: 1.0;"/><path d="M70.1094,343.3438 L68.9531,348.4219 L71.2813,348.4219 L70.1094,343.3438 Z M68.625,341.1094 L71.6094,341.1094 L74.9688,353.5 L72.5156,353.5 L71.75,350.4375 L68.4688,350.4375 L67.7188,353.5 L65.2813,353.5 L68.625,341.1094 Z "/><text fill="#000000" font-family="sans-serif" font-size="12" font-style="italic" lengthAdjust="spacingAndGlyphs" textLength="189" x="84" y="352.1543">AbstractFileResolvingResource</text><line style="stroke: #A80036; stroke-width: 1.5;" x1="56" x2="275" y1="364" y2="364"/><line style="stroke: #A80036; stroke-width: 1.5;" x1="56" x2="275" y1="372" y2="372"/><!--class ClassPathResource--><rect fill="#FEFECE" filter="url(#f10ubrepjxodun)" height="48" id="ClassPathResource" style="stroke: #A80036; stroke-width: 1.5;" width="153" x="6" y="440"/><ellipse cx="21" cy="456" fill="#ADD1B2" rx="11" ry="11" style="stroke: #A80036; stroke-width: 1.0;"/><path d="M23.9688,461.6406 Q23.3906,461.9375 22.75,462.0859 Q22.1094,462.2344 21.4063,462.2344 Q18.9063,462.2344 17.5859,460.5859 Q16.2656,458.9375 16.2656,455.8125 Q16.2656,452.6875 17.5859,451.0313 Q18.9063,449.375 21.4063,449.375 Q22.1094,449.375 22.7578,449.5313 Q23.4063,449.6875 23.9688,449.9844 L23.9688,452.7031 Q23.3438,452.125 22.75,451.8516 Q22.1563,451.5781 21.5313,451.5781 Q20.1875,451.5781 19.5,452.6484 Q18.8125,453.7188 18.8125,455.8125 Q18.8125,457.9063 19.5,458.9766 Q20.1875,460.0469 21.5313,460.0469 Q22.1563,460.0469 22.75,459.7734 Q23.3438,459.5 23.9688,458.9219 L23.9688,461.6406 Z "/><text fill="#000000" font-family="sans-serif" font-size="12" lengthAdjust="spacingAndGlyphs" textLength="121" x="35" y="460.1543">ClassPathResource</text><line style="stroke: #A80036; stroke-width: 1.5;" x1="7" x2="158" y1="472" y2="472"/><line style="stroke: #A80036; stroke-width: 1.5;" x1="7" x2="158" y1="480" y2="480"/><!--class FileSystemResource--><rect fill="#FEFECE" filter="url(#f10ubrepjxodun)" height="48" id="FileSystemResource" style="stroke: #A80036; stroke-width: 1.5;" width="157" x="311" y="332"/><ellipse cx="326" cy="348" fill="#ADD1B2" rx="11" ry="11" style="stroke: #A80036; stroke-width: 1.0;"/><path d="M328.9688,353.6406 Q328.3906,353.9375 327.75,354.0859 Q327.1094,354.2344 326.4063,354.2344 Q323.9063,354.2344 322.5859,352.5859 Q321.2656,350.9375 321.2656,347.8125 Q321.2656,344.6875 322.5859,343.0313 Q323.9063,341.375 326.4063,341.375 Q327.1094,341.375 327.7578,341.5313 Q328.4063,341.6875 328.9688,341.9844 L328.9688,344.7031 Q328.3438,344.125 327.75,343.8516 Q327.1563,343.5781 326.5313,343.5781 Q325.1875,343.5781 324.5,344.6484 Q323.8125,345.7188 323.8125,347.8125 Q323.8125,349.9063 324.5,350.9766 Q325.1875,352.0469 326.5313,352.0469 Q327.1563,352.0469 327.75,351.7734 Q328.3438,351.5 328.9688,350.9219 L328.9688,353.6406 Z "/><text fill="#000000" font-family="sans-serif" font-size="12" lengthAdjust="spacingAndGlyphs" textLength="125" x="340" y="352.1543">FileSystemResource</text><line style="stroke: #A80036; stroke-width: 1.5;" x1="312" x2="467" y1="364" y2="364"/><line style="stroke: #A80036; stroke-width: 1.5;" x1="312" x2="467" y1="372" y2="372"/><!--class UrlResource--><rect fill="#FEFECE" filter="url(#f10ubrepjxodun)" height="48" id="UrlResource" style="stroke: #A80036; stroke-width: 1.5;" width="108" x="194.5" y="440"/><ellipse cx="209.5" cy="456" fill="#ADD1B2" rx="11" ry="11" style="stroke: #A80036; stroke-width: 1.0;"/><path d="M212.4688,461.6406 Q211.8906,461.9375 211.25,462.0859 Q210.6094,462.2344 209.9063,462.2344 Q207.4063,462.2344 206.0859,460.5859 Q204.7656,458.9375 204.7656,455.8125 Q204.7656,452.6875 206.0859,451.0313 Q207.4063,449.375 209.9063,449.375 Q210.6094,449.375 211.2578,449.5313 Q211.9063,449.6875 212.4688,449.9844 L212.4688,452.7031 Q211.8438,452.125 211.25,451.8516 Q210.6563,451.5781 210.0313,451.5781 Q208.6875,451.5781 208,452.6484 Q207.3125,453.7188 207.3125,455.8125 Q207.3125,457.9063 208,458.9766 Q208.6875,460.0469 210.0313,460.0469 Q210.6563,460.0469 211.25,459.7734 Q211.8438,459.5 212.4688,458.9219 L212.4688,461.6406 Z "/><text fill="#000000" font-family="sans-serif" font-size="12" lengthAdjust="spacingAndGlyphs" textLength="76" x="223.5" y="460.1543">UrlResource</text><line style="stroke: #A80036; stroke-width: 1.5;" x1="195.5" x2="301.5" y1="472" y2="472"/><line style="stroke: #A80036; stroke-width: 1.5;" x1="195.5" x2="301.5" y1="480" y2="480"/><!--class InputStreamResource--><rect fill="#FEFECE" filter="url(#f10ubrepjxodun)" height="48" id="InputStreamResource" style="stroke: #A80036; stroke-width: 1.5;" width="168" x="503.5" y="332"/><ellipse cx="518.5" cy="348" fill="#ADD1B2" rx="11" ry="11" style="stroke: #A80036; stroke-width: 1.0;"/><path d="M521.4688,353.6406 Q520.8906,353.9375 520.25,354.0859 Q519.6094,354.2344 518.9063,354.2344 Q516.4063,354.2344 515.0859,352.5859 Q513.7656,350.9375 513.7656,347.8125 Q513.7656,344.6875 515.0859,343.0313 Q516.4063,341.375 518.9063,341.375 Q519.6094,341.375 520.2578,341.5313 Q520.9063,341.6875 521.4688,341.9844 L521.4688,344.7031 Q520.8438,344.125 520.25,343.8516 Q519.6563,343.5781 519.0313,343.5781 Q517.6875,343.5781 517,344.6484 Q516.3125,345.7188 516.3125,347.8125 Q516.3125,349.9063 517,350.9766 Q517.6875,352.0469 519.0313,352.0469 Q519.6563,352.0469 520.25,351.7734 Q520.8438,351.5 521.4688,350.9219 L521.4688,353.6406 Z "/><text fill="#000000" font-family="sans-serif" font-size="12" lengthAdjust="spacingAndGlyphs" textLength="136" x="532.5" y="352.1543">InputStreamResource</text><line style="stroke: #A80036; stroke-width: 1.5;" x1="504.5" x2="670.5" y1="364" y2="364"/><line style="stroke: #A80036; stroke-width: 1.5;" x1="504.5" x2="670.5" y1="372" y2="372"/><!--class ByteArrayResource--><rect fill="#FEFECE" filter="url(#f10ubrepjxodun)" height="48" id="ByteArrayResource" style="stroke: #A80036; stroke-width: 1.5;" width="150" x="706.5" y="332"/><ellipse cx="721.5" cy="348" fill="#ADD1B2" rx="11" ry="11" style="stroke: #A80036; stroke-width: 1.0;"/><path d="M724.4688,353.6406 Q723.8906,353.9375 723.25,354.0859 Q722.6094,354.2344 721.9063,354.2344 Q719.4063,354.2344 718.0859,352.5859 Q716.7656,350.9375 716.7656,347.8125 Q716.7656,344.6875 718.0859,343.0313 Q719.4063,341.375 721.9063,341.375 Q722.6094,341.375 723.2578,341.5313 Q723.9063,341.6875 724.4688,341.9844 L724.4688,344.7031 Q723.8438,344.125 723.25,343.8516 Q722.6563,343.5781 722.0313,343.5781 Q720.6875,343.5781 720,344.6484 Q719.3125,345.7188 719.3125,347.8125 Q719.3125,349.9063 720,350.9766 Q720.6875,352.0469 722.0313,352.0469 Q722.6563,352.0469 723.25,351.7734 Q723.8438,351.5 724.4688,350.9219 L724.4688,353.6406 Z "/><text fill="#000000" font-family="sans-serif" font-size="12" lengthAdjust="spacingAndGlyphs" textLength="118" x="735.5" y="352.1543">ByteArrayResource</text><line style="stroke: #A80036; stroke-width: 1.5;" x1="707.5" x2="855.5" y1="364" y2="364"/><line style="stroke: #A80036; stroke-width: 1.5;" x1="707.5" x2="855.5" y1="372" y2="372"/><!--link InputStreamSource to Resource--><path d="M488.5,76.024 C488.5,89.579 488.5,104.038 488.5,115.678 " fill="none" id="InputStreamSource-Resource" style="stroke: #A80036; stroke-width: 1.0;"/><polygon fill="none" points="481.5,76,488.5,56,495.5,76,481.5,76" style="stroke: #A80036; stroke-width: 1.0;"/><!--link Resource to AbstractResource--><path d="M488.5,184.024 C488.5,197.579 488.5,212.038 488.5,223.678 " fill="none" id="Resource-AbstractResource" style="stroke: #A80036; stroke-width: 1.0;"/><polygon fill="none" points="481.5,184,488.5,164,495.5,184,481.5,184" style="stroke: #A80036; stroke-width: 1.0;"/><!--link AbstractResource to AbstractFileResolvingResource--><path d="M399.307,278.271 C347.715,295.202 283.718,316.204 235.728,331.953 " fill="none" id="AbstractResource-AbstractFileResolvingResource" style="stroke: #A80036; stroke-width: 1.0;"/><polygon fill="none" points="397.228,271.586,418.414,272,401.594,284.888,397.228,271.586" style="stroke: #A80036; stroke-width: 1.0;"/><!--link AbstractFileResolvingResource to ClassPathResource--><path d="M134.823,396.1784 C123.374,410.7995 110.744,426.9295 100.7612,439.6784 " fill="none" id="AbstractFileResolvingResource-ClassPathResource" style="stroke: #A80036; stroke-width: 1.0;"/><polygon fill="none" points="129.649,391.4318,147.49,380,140.671,400.063,129.649,391.4318" style="stroke: #A80036; stroke-width: 1.0;"/><!--link AbstractResource to FileSystemResource--><path d="M453.24,286.753 C439.239,301.744 423.577,318.514 411.281,331.678 " fill="none" id="AbstractResource-FileSystemResource" style="stroke: #A80036; stroke-width: 1.0;"/><polygon fill="none" points="448.251,281.839,467.018,272,458.483,291.395,448.251,281.839" style="stroke: #A80036; stroke-width: 1.0;"/><!--link AbstractFileResolvingResource to UrlResource--><path d="M196.177,396.1784 C207.626,410.7995 220.256,426.9295 230.239,439.6784 " fill="none" id="AbstractFileResolvingResource-UrlResource" style="stroke: #A80036; stroke-width: 1.0;"/><polygon fill="none" points="190.329,400.063,183.51,380,201.351,391.4318,190.329,400.063" style="stroke: #A80036; stroke-width: 1.0;"/><!--link AbstractResource to InputStreamResource--><path d="M523.76,286.753 C537.761,301.744 553.423,318.514 565.719,331.678 " fill="none" id="AbstractResource-InputStreamResource" style="stroke: #A80036; stroke-width: 1.0;"/><polygon fill="none" points="518.517,291.395,509.982,272,528.749,281.839,518.517,291.395" style="stroke: #A80036; stroke-width: 1.0;"/><!--link AbstractResource to ByteArrayResource--><path d="M570.959,278.832 C617.485,295.664 674.742,316.378 717.795,331.953 " fill="none" id="AbstractResource-ByteArrayResource" style="stroke: #A80036; stroke-width: 1.0;"/><polygon fill="none" points="568.502,285.387,552.077,272,573.265,272.222,568.502,285.387" style="stroke: #A80036; stroke-width: 1.0;"/><!--
@startuml
interface InputStreamSource
interface Resource
abstract AbstractResource
abstract AbstractFileResolvingResource

InputStreamSource <|- - Resource
Resource <|- - AbstractResource
AbstractResource <|- - AbstractFileResolvingResource
AbstractFileResolvingResource <|- - ClassPathResource
AbstractResource <|- - FileSystemResource
AbstractFileResolvingResource <|- - UrlResource
AbstractResource <|- - InputStreamResource
AbstractResource <|- - ByteArrayResource
@enduml

PlantUML version 1.2017.12(Thu Apr 27 00:06:36 CST 2017)
(GPL source distribution)
Java Runtime: Java(TM) SE Runtime Environment
JVM: Java HotSpot(TM) 64-Bit Server VM
Java Version: 1.8.0_111-b14
Operating System: Linux
OS Version: 4.4.0-75-generic
Default Encoding: UTF-8
Language: en
Country: US
--></g></svg>