<?xml version="1.0" encoding="UTF-8" standalone="no"?><svg xmlns="http://www.w3.org/2000/svg" xmlns:xlink="http://www.w3.org/1999/xlink" contentScriptType="application/ecmascript" contentStyleType="text/css" height="186px" preserveAspectRatio="none" style="width:199px;height:186px;" version="1.1" viewBox="0 0 199 186" width="199px" zoomAndPan="magnify"><defs><filter height="300%" id="f378qcj3fv5b4" width="300%" x="-1" y="-1"><feGaussianBlur result="blurOut" stdDeviation="2.0"/><feColorMatrix in="blurOut" result="blurOut2" type="matrix" values="0 0 0 0 0 0 0 0 0 0 0 0 0 0 0 0 0 0 .4 0"/><feOffset dx="4.0" dy="4.0" in="blurOut2" result="blurOut3"/><feBlend in="SourceGraphic" in2="blurOut3" mode="normal"/></filter></defs><g><!--class DocumentLoader--><rect fill="#FEFECE" filter="url(#f378qcj3fv5b4)" height="60.8047" id="DocumentLoader" style="stroke: #A80036; stroke-width: 1.5;" width="162" x="17" y="8"/><ellipse cx="41.9" cy="24" fill="#B4A7E5" rx="11" ry="11" style="stroke: #A80036; stroke-width: 1.0;"/><path d="M37.8219,19.7656 L37.8219,17.6094 L45.2125,17.6094 L45.2125,19.7656 L42.7438,19.7656 L42.7438,27.8438 L45.2125,27.8438 L45.2125,30 L37.8219,30 L37.8219,27.8438 L40.2906,27.8438 L40.2906,19.7656 L37.8219,19.7656 Z "/><text fill="#000000" font-family="sans-serif" font-size="12" font-style="italic" lengthAdjust="spacingAndGlyphs" textLength="108" x="58.1" y="28.1543">DocumentLoader</text><line style="stroke: #A80036; stroke-width: 1.5;" x1="18" x2="178" y1="40" y2="40"/><line style="stroke: #A80036; stroke-width: 1.5;" x1="18" x2="178" y1="48" y2="48"/><text fill="#000000" font-family="sans-serif" font-size="11" lengthAdjust="spacingAndGlyphs" textLength="150" x="23" y="62.2104">Document loadDocument()</text><!--class DefaultDocumentLoader--><rect fill="#FEFECE" filter="url(#f378qcj3fv5b4)" height="48" id="DefaultDocumentLoader" style="stroke: #A80036; stroke-width: 1.5;" width="184" x="6" y="129"/><ellipse cx="21" cy="145" fill="#ADD1B2" rx="11" ry="11" style="stroke: #A80036; stroke-width: 1.0;"/><path d="M23.9688,150.6406 Q23.3906,150.9375 22.75,151.0859 Q22.1094,151.2344 21.4063,151.2344 Q18.9063,151.2344 17.5859,149.5859 Q16.2656,147.9375 16.2656,144.8125 Q16.2656,141.6875 17.5859,140.0313 Q18.9063,138.375 21.4063,138.375 Q22.1094,138.375 22.7578,138.5313 Q23.4063,138.6875 23.9688,138.9844 L23.9688,141.7031 Q23.3438,141.125 22.75,140.8516 Q22.1563,140.5781 21.5313,140.5781 Q20.1875,140.5781 19.5,141.6484 Q18.8125,142.7188 18.8125,144.8125 Q18.8125,146.9063 19.5,147.9766 Q20.1875,149.0469 21.5313,149.0469 Q22.1563,149.0469 22.75,148.7734 Q23.3438,148.5 23.9688,147.9219 L23.9688,150.6406 Z "/><text fill="#000000" font-family="sans-serif" font-size="12" lengthAdjust="spacingAndGlyphs" textLength="152" x="35" y="149.1543">DefaultDocumentLoader</text><line style="stroke: #A80036; stroke-width: 1.5;" x1="7" x2="189" y1="161" y2="161"/><line style="stroke: #A80036; stroke-width: 1.5;" x1="7" x2="189" y1="169" y2="169"/><!--link DocumentLoader to DefaultDocumentLoader--><path d="M98,89.1067 C98,102.8764 98,117.1847 98,128.6686 " fill="none" id="DocumentLoader-DefaultDocumentLoader" style="stroke: #A80036; stroke-width: 1.0;"/><polygon fill="none" points="91.0001,89.0581,98,69.058,105.0001,89.058,91.0001,89.0581" style="stroke: #A80036; stroke-width: 1.0;"/><!--
@startuml
interface DocumentLoader
DocumentLoader : Document loadDocument()
DocumentLoader <|- - DefaultDocumentLoader
@enduml

PlantUML version 1.2017.12(Thu Apr 27 00:06:36 CST 2017)
(GPL source distribution)
Java Runtime: Java(TM) SE Runtime Environment
JVM: Java HotSpot(TM) 64-Bit Server VM
Java Version: 1.8.0_111-b14
Operating System: Linux
OS Version: 4.4.0-75-generic
Default Encoding: UTF-8
Language: en
Country: US
--></g></svg>