<?xml version="1.0" encoding="UTF-8" standalone="no"?><svg xmlns="http://www.w3.org/2000/svg" xmlns:xlink="http://www.w3.org/1999/xlink" contentScriptType="application/ecmascript" contentStyleType="text/css" height="294px" preserveAspectRatio="none" style="width:616px;height:294px;" version="1.1" viewBox="0 0 616 294" width="616px" zoomAndPan="magnify"><defs><filter height="300%" id="f8efmyfgfuz33" width="300%" x="-1" y="-1"><feGaussianBlur result="blurOut" stdDeviation="2.0"/><feColorMatrix in="blurOut" result="blurOut2" type="matrix" values="0 0 0 0 0 0 0 0 0 0 0 0 0 0 0 0 0 0 .4 0"/><feOffset dx="4.0" dy="4.0" in="blurOut2" result="blurOut3"/><feBlend in="SourceGraphic" in2="blurOut3" mode="normal"/></filter></defs><g><!--class EntityResolver--><rect fill="#FEFECE" filter="url(#f8efmyfgfuz33)" height="60.8047" id="EntityResolver" style="stroke: #A80036; stroke-width: 1.5;" width="165" x="219.5" y="8"/><ellipse cx="254.75" cy="24" fill="#B4A7E5" rx="11" ry="11" style="stroke: #A80036; stroke-width: 1.0;"/><path d="M250.6719,19.7656 L250.6719,17.6094 L258.0625,17.6094 L258.0625,19.7656 L255.5938,19.7656 L255.5938,27.8438 L258.0625,27.8438 L258.0625,30 L250.6719,30 L250.6719,27.8438 L253.1406,27.8438 L253.1406,19.7656 L250.6719,19.7656 Z "/><text fill="#000000" font-family="sans-serif" font-size="12" font-style="italic" lengthAdjust="spacingAndGlyphs" textLength="88" x="273.25" y="28.1543">EntityResolver</text><line style="stroke: #A80036; stroke-width: 1.5;" x1="220.5" x2="383.5" y1="40" y2="40"/><line style="stroke: #A80036; stroke-width: 1.5;" x1="220.5" x2="383.5" y1="48" y2="48"/><text fill="#000000" font-family="sans-serif" font-size="11" lengthAdjust="spacingAndGlyphs" textLength="153" x="225.5" y="62.2104">InputSource resolveEntity()</text><!--class DelegatingEntityResolver--><rect fill="#FEFECE" filter="url(#f8efmyfgfuz33)" height="48" id="DelegatingEntityResolver" style="stroke: #A80036; stroke-width: 1.5;" width="188" x="6" y="129"/><ellipse cx="21" cy="145" fill="#ADD1B2" rx="11" ry="11" style="stroke: #A80036; stroke-width: 1.0;"/><path d="M23.9688,150.6406 Q23.3906,150.9375 22.75,151.0859 Q22.1094,151.2344 21.4063,151.2344 Q18.9063,151.2344 17.5859,149.5859 Q16.2656,147.9375 16.2656,144.8125 Q16.2656,141.6875 17.5859,140.0313 Q18.9063,138.375 21.4063,138.375 Q22.1094,138.375 22.7578,138.5313 Q23.4063,138.6875 23.9688,138.9844 L23.9688,141.7031 Q23.3438,141.125 22.75,140.8516 Q22.1563,140.5781 21.5313,140.5781 Q20.1875,140.5781 19.5,141.6484 Q18.8125,142.7188 18.8125,144.8125 Q18.8125,146.9063 19.5,147.9766 Q20.1875,149.0469 21.5313,149.0469 Q22.1563,149.0469 22.75,148.7734 Q23.3438,148.5 23.9688,147.9219 L23.9688,150.6406 Z "/><text fill="#000000" font-family="sans-serif" font-size="12" lengthAdjust="spacingAndGlyphs" textLength="156" x="35" y="149.1543">DelegatingEntityResolver</text><line style="stroke: #A80036; stroke-width: 1.5;" x1="7" x2="193" y1="161" y2="161"/><line style="stroke: #A80036; stroke-width: 1.5;" x1="7" x2="193" y1="169" y2="169"/><!--class ResourceEntityResolver--><rect fill="#FEFECE" filter="url(#f8efmyfgfuz33)" height="48" id="ResourceEntityResolver" style="stroke: #A80036; stroke-width: 1.5;" width="179" x="10.5" y="237"/><ellipse cx="25.5" cy="253" fill="#ADD1B2" rx="11" ry="11" style="stroke: #A80036; stroke-width: 1.0;"/><path d="M28.4688,258.6406 Q27.8906,258.9375 27.25,259.0859 Q26.6094,259.2344 25.9063,259.2344 Q23.4063,259.2344 22.0859,257.5859 Q20.7656,255.9375 20.7656,252.8125 Q20.7656,249.6875 22.0859,248.0313 Q23.4063,246.375 25.9063,246.375 Q26.6094,246.375 27.2578,246.5313 Q27.9063,246.6875 28.4688,246.9844 L28.4688,249.7031 Q27.8438,249.125 27.25,248.8516 Q26.6563,248.5781 26.0313,248.5781 Q24.6875,248.5781 24,249.6484 Q23.3125,250.7188 23.3125,252.8125 Q23.3125,254.9063 24,255.9766 Q24.6875,257.0469 26.0313,257.0469 Q26.6563,257.0469 27.25,256.7734 Q27.8438,256.5 28.4688,255.9219 L28.4688,258.6406 Z "/><text fill="#000000" font-family="sans-serif" font-size="12" lengthAdjust="spacingAndGlyphs" textLength="147" x="39.5" y="257.1543">ResourceEntityResolver</text><line style="stroke: #A80036; stroke-width: 1.5;" x1="11.5" x2="188.5" y1="269" y2="269"/><line style="stroke: #A80036; stroke-width: 1.5;" x1="11.5" x2="188.5" y1="277" y2="277"/><!--class BeansDtdResolver--><rect fill="#FEFECE" filter="url(#f8efmyfgfuz33)" height="48" id="BeansDtdResolver" style="stroke: #A80036; stroke-width: 1.5;" width="146" x="229" y="129"/><ellipse cx="244" cy="145" fill="#ADD1B2" rx="11" ry="11" style="stroke: #A80036; stroke-width: 1.0;"/><path d="M246.9688,150.6406 Q246.3906,150.9375 245.75,151.0859 Q245.1094,151.2344 244.4063,151.2344 Q241.9063,151.2344 240.5859,149.5859 Q239.2656,147.9375 239.2656,144.8125 Q239.2656,141.6875 240.5859,140.0313 Q241.9063,138.375 244.4063,138.375 Q245.1094,138.375 245.7578,138.5313 Q246.4063,138.6875 246.9688,138.9844 L246.9688,141.7031 Q246.3438,141.125 245.75,140.8516 Q245.1563,140.5781 244.5313,140.5781 Q243.1875,140.5781 242.5,141.6484 Q241.8125,142.7188 241.8125,144.8125 Q241.8125,146.9063 242.5,147.9766 Q243.1875,149.0469 244.5313,149.0469 Q245.1563,149.0469 245.75,148.7734 Q246.3438,148.5 246.9688,147.9219 L246.9688,150.6406 Z "/><text fill="#000000" font-family="sans-serif" font-size="12" lengthAdjust="spacingAndGlyphs" textLength="114" x="258" y="149.1543">BeansDtdResolver</text><line style="stroke: #A80036; stroke-width: 1.5;" x1="230" x2="374" y1="161" y2="161"/><line style="stroke: #A80036; stroke-width: 1.5;" x1="230" x2="374" y1="169" y2="169"/><!--class PluggableSchemaResolver--><rect fill="#FEFECE" filter="url(#f8efmyfgfuz33)" height="48" id="PluggableSchemaResolver" style="stroke: #A80036; stroke-width: 1.5;" width="197" x="410.5" y="129"/><ellipse cx="425.5" cy="145" fill="#ADD1B2" rx="11" ry="11" style="stroke: #A80036; stroke-width: 1.0;"/><path d="M428.4688,150.6406 Q427.8906,150.9375 427.25,151.0859 Q426.6094,151.2344 425.9063,151.2344 Q423.4063,151.2344 422.0859,149.5859 Q420.7656,147.9375 420.7656,144.8125 Q420.7656,141.6875 422.0859,140.0313 Q423.4063,138.375 425.9063,138.375 Q426.6094,138.375 427.2578,138.5313 Q427.9063,138.6875 428.4688,138.9844 L428.4688,141.7031 Q427.8438,141.125 427.25,140.8516 Q426.6563,140.5781 426.0313,140.5781 Q424.6875,140.5781 424,141.6484 Q423.3125,142.7188 423.3125,144.8125 Q423.3125,146.9063 424,147.9766 Q424.6875,149.0469 426.0313,149.0469 Q426.6563,149.0469 427.25,148.7734 Q427.8438,148.5 428.4688,147.9219 L428.4688,150.6406 Z "/><text fill="#000000" font-family="sans-serif" font-size="12" lengthAdjust="spacingAndGlyphs" textLength="165" x="439.5" y="149.1543">PluggableSchemaResolver</text><line style="stroke: #A80036; stroke-width: 1.5;" x1="411.5" x2="606.5" y1="161" y2="161"/><line style="stroke: #A80036; stroke-width: 1.5;" x1="411.5" x2="606.5" y1="169" y2="169"/><!--link EntityResolver to DelegatingEntityResolver--><path d="M231.343,78.851 C201.352,95.554 167.426,114.448 141.568,128.85 " fill="none" id="EntityResolver-DelegatingEntityResolver" style="stroke: #A80036; stroke-width: 1.0;"/><polygon fill="none" points="228.048,72.674,248.927,69.058,234.86,84.905,228.048,72.674" style="stroke: #A80036; stroke-width: 1.0;"/><!--link DelegatingEntityResolver to ResourceEntityResolver--><path d="M100,197.0236 C100,210.5792 100,225.0381 100,236.6784 " fill="none" id="DelegatingEntityResolver-ResourceEntityResolver" style="stroke: #A80036; stroke-width: 1.0;"/><polygon fill="none" points="93.0001,197.0005,100,177,107,197.0004,93.0001,197.0005" style="stroke: #A80036; stroke-width: 1.0;"/><!--link EntityResolver to BeansDtdResolver--><path d="M302,89.107 C302,102.876 302,117.185 302,128.669 " fill="none" id="EntityResolver-BeansDtdResolver" style="stroke: #A80036; stroke-width: 1.0;"/><polygon fill="none" points="295,89.058,302,69.058,309,89.058,295,89.058" style="stroke: #A80036; stroke-width: 1.0;"/><!--link EntityResolver to PluggableSchemaResolver--><path d="M373.973,78.616 C404.813,95.376 439.781,114.381 466.404,128.85 " fill="none" id="EntityResolver-PluggableSchemaResolver" style="stroke: #A80036; stroke-width: 1.0;"/><polygon fill="none" points="370.617,84.759,356.387,69.058,377.302,72.458,370.617,84.759" style="stroke: #A80036; stroke-width: 1.0;"/><!--
@startuml
interface EntityResolver
EntityResolver : InputSource resolveEntity()
EntityResolver <|- - DelegatingEntityResolver
DelegatingEntityResolver <|- - ResourceEntityResolver
EntityResolver <|- - BeansDtdResolver
EntityResolver <|- - PluggableSchemaResolver
@enduml

PlantUML version 1.2017.12(Thu Apr 27 00:06:36 CST 2017)
(GPL source distribution)
Java Runtime: Java(TM) SE Runtime Environment
JVM: Java HotSpot(TM) 64-Bit Server VM
Java Version: 1.8.0_111-b14
Operating System: Linux
OS Version: 4.4.0-75-generic
Default Encoding: UTF-8
Language: en
Country: US
--></g></svg>