<?xml version="1.0" encoding="UTF-8" standalone="no"?><svg xmlns="http://www.w3.org/2000/svg" xmlns:xlink="http://www.w3.org/1999/xlink" contentScriptType="application/ecmascript" contentStyleType="text/css" height="281px" preserveAspectRatio="none" style="width:379px;height:281px;" version="1.1" viewBox="0 0 379 281" width="379px" zoomAndPan="magnify"><defs><filter height="300%" id="fv2misgzyutqc" width="300%" x="-1" y="-1"><feGaussianBlur result="blurOut" stdDeviation="2.0"/><feColorMatrix in="blurOut" result="blurOut2" type="matrix" values="0 0 0 0 0 0 0 0 0 0 0 0 0 0 0 0 0 0 .4 0"/><feOffset dx="4.0" dy="4.0" in="blurOut2" result="blurOut3"/><feBlend in="SourceGraphic" in2="blurOut3" mode="normal"/></filter></defs><g><!--class BeanDefinitionReader--><rect fill="#FEFECE" filter="url(#fv2misgzyutqc)" height="48" id="BeanDefinitionReader" style="stroke: #A80036; stroke-width: 1.5;" width="168" x="6" y="8"/><ellipse cx="21" cy="24" fill="#B4A7E5" rx="11" ry="11" style="stroke: #A80036; stroke-width: 1.0;"/><path d="M16.9219,19.7656 L16.9219,17.6094 L24.3125,17.6094 L24.3125,19.7656 L21.8438,19.7656 L21.8438,27.8438 L24.3125,27.8438 L24.3125,30 L16.9219,30 L16.9219,27.8438 L19.3906,27.8438 L19.3906,19.7656 L16.9219,19.7656 Z "/><text fill="#000000" font-family="sans-serif" font-size="12" font-style="italic" lengthAdjust="spacingAndGlyphs" textLength="136" x="35" y="28.1543">BeanDefinitionReader</text><line style="stroke: #A80036; stroke-width: 1.5;" x1="7" x2="173" y1="40" y2="40"/><line style="stroke: #A80036; stroke-width: 1.5;" x1="7" x2="173" y1="48" y2="48"/><!--class EnvironmentCapable--><rect fill="#FEFECE" filter="url(#fv2misgzyutqc)" height="48" id="EnvironmentCapable" style="stroke: #A80036; stroke-width: 1.5;" width="161" x="209.5" y="8"/><ellipse cx="224.5" cy="24" fill="#B4A7E5" rx="11" ry="11" style="stroke: #A80036; stroke-width: 1.0;"/><path d="M220.4219,19.7656 L220.4219,17.6094 L227.8125,17.6094 L227.8125,19.7656 L225.3438,19.7656 L225.3438,27.8438 L227.8125,27.8438 L227.8125,30 L220.4219,30 L220.4219,27.8438 L222.8906,27.8438 L222.8906,19.7656 L220.4219,19.7656 Z "/><text fill="#000000" font-family="sans-serif" font-size="12" font-style="italic" lengthAdjust="spacingAndGlyphs" textLength="129" x="238.5" y="28.1543">EnvironmentCapable</text><line style="stroke: #A80036; stroke-width: 1.5;" x1="210.5" x2="369.5" y1="40" y2="40"/><line style="stroke: #A80036; stroke-width: 1.5;" x1="210.5" x2="369.5" y1="48" y2="48"/><!--class AbstractBeanDefinitionReader--><rect fill="#FEFECE" filter="url(#fv2misgzyutqc)" height="48" id="AbstractBeanDefinitionReader" style="stroke: #A80036; stroke-width: 1.5;" width="220" x="80" y="116"/><ellipse cx="95" cy="132" fill="#A9DCDF" rx="11" ry="11" style="stroke: #A80036; stroke-width: 1.0;"/><path d="M95.1094,127.3438 L93.9531,132.4219 L96.2813,132.4219 L95.1094,127.3438 Z M93.625,125.1094 L96.6094,125.1094 L99.9688,137.5 L97.5156,137.5 L96.75,134.4375 L93.4688,134.4375 L92.7188,137.5 L90.2813,137.5 L93.625,125.1094 Z "/><text fill="#000000" font-family="sans-serif" font-size="12" font-style="italic" lengthAdjust="spacingAndGlyphs" textLength="188" x="109" y="136.1543">AbstractBeanDefinitionReader</text><line style="stroke: #A80036; stroke-width: 1.5;" x1="81" x2="299" y1="148" y2="148"/><line style="stroke: #A80036; stroke-width: 1.5;" x1="81" x2="299" y1="156" y2="156"/><!--class XmlBeanDefinitionReader--><rect fill="#FEFECE" filter="url(#fv2misgzyutqc)" height="48" id="XmlBeanDefinitionReader" style="stroke: #A80036; stroke-width: 1.5;" width="189" x="95.5" y="224"/><ellipse cx="110.5" cy="240" fill="#ADD1B2" rx="11" ry="11" style="stroke: #A80036; stroke-width: 1.0;"/><path d="M113.4688,245.6406 Q112.8906,245.9375 112.25,246.0859 Q111.6094,246.2344 110.9063,246.2344 Q108.4063,246.2344 107.0859,244.5859 Q105.7656,242.9375 105.7656,239.8125 Q105.7656,236.6875 107.0859,235.0313 Q108.4063,233.375 110.9063,233.375 Q111.6094,233.375 112.2578,233.5313 Q112.9063,233.6875 113.4688,233.9844 L113.4688,236.7031 Q112.8438,236.125 112.25,235.8516 Q111.6563,235.5781 111.0313,235.5781 Q109.6875,235.5781 109,236.6484 Q108.3125,237.7188 108.3125,239.8125 Q108.3125,241.9063 109,242.9766 Q109.6875,244.0469 111.0313,244.0469 Q111.6563,244.0469 112.25,243.7734 Q112.8438,243.5 113.4688,242.9219 L113.4688,245.6406 Z "/><text fill="#000000" font-family="sans-serif" font-size="12" lengthAdjust="spacingAndGlyphs" textLength="157" x="124.5" y="244.1543">XmlBeanDefinitionReader</text><line style="stroke: #A80036; stroke-width: 1.5;" x1="96.5" x2="283.5" y1="256" y2="256"/><line style="stroke: #A80036; stroke-width: 1.5;" x1="96.5" x2="283.5" y1="264" y2="264"/><!--link BeanDefinitionReader to AbstractBeanDefinitionReader--><path d="M125.616,70.753 C139.758,85.744 155.579,102.514 167.999,115.678 " fill="none" id="BeanDefinitionReader-AbstractBeanDefinitionReader" style="stroke: #A80036; stroke-width: 1.0;"/><polygon fill="none" points="120.331,75.352,111.699,56,130.515,65.745,120.331,75.352" style="stroke: #A80036; stroke-width: 1.0;"/><!--link EnvironmentCapable to AbstractBeanDefinitionReader--><path d="M254.384,70.753 C240.242,85.744 224.421,102.514 212.001,115.678 " fill="none" id="EnvironmentCapable-AbstractBeanDefinitionReader" style="stroke: #A80036; stroke-width: 1.0;"/><polygon fill="none" points="249.485,65.745,268.301,56,259.669,75.352,249.485,65.745" style="stroke: #A80036; stroke-width: 1.0;"/><!--link AbstractBeanDefinitionReader to XmlBeanDefinitionReader--><path d="M190,184.0236 C190,197.5792 190,212.0381 190,223.6784 " fill="none" id="AbstractBeanDefinitionReader-XmlBeanDefinitionReader" style="stroke: #A80036; stroke-width: 1.0;"/><polygon fill="none" points="183,184.0005,190,164,197,184.0004,183,184.0005" style="stroke: #A80036; stroke-width: 1.0;"/><!--
@startuml
interface BeanDefinitionReader
interface EnvironmentCapable
abstract AbstractBeanDefinitionReader

BeanDefinitionReader <|- - AbstractBeanDefinitionReader
EnvironmentCapable <|- - AbstractBeanDefinitionReader
AbstractBeanDefinitionReader <|- - XmlBeanDefinitionReader
@enduml

PlantUML version 1.2017.12(Thu Apr 27 00:06:36 CST 2017)
(GPL source distribution)
Java Runtime: Java(TM) SE Runtime Environment
JVM: Java HotSpot(TM) 64-Bit Server VM
Java Version: 1.8.0_111-b14
Operating System: Linux
OS Version: 4.4.0-75-generic
Default Encoding: UTF-8
Language: en
Country: US
--></g></svg>