<?xml version="1.0" encoding="UTF-8" standalone="no"?><svg xmlns="http://www.w3.org/2000/svg" xmlns:xlink="http://www.w3.org/1999/xlink" contentScriptType="application/ecmascript" contentStyleType="text/css" height="605px" preserveAspectRatio="none" style="width:517px;height:605px;" version="1.1" viewBox="0 0 517 605" width="517px" zoomAndPan="magnify"><defs><filter height="300%" id="f1tze2u2vnakvl" width="300%" x="-1" y="-1"><feGaussianBlur result="blurOut" stdDeviation="2.0"/><feColorMatrix in="blurOut" result="blurOut2" type="matrix" values="0 0 0 0 0 0 0 0 0 0 0 0 0 0 0 0 0 0 .4 0"/><feOffset dx="4.0" dy="4.0" in="blurOut2" result="blurOut3"/><feBlend in="SourceGraphic" in2="blurOut3" mode="normal"/></filter></defs><g><!--class BeanFactory--><rect fill="#FEFECE" filter="url(#f1tze2u2vnakvl)" height="48" id="BeanFactory" style="stroke: #A80036; stroke-width: 1.5;" width="111" x="198.5" y="8"/><ellipse cx="213.5" cy="24" fill="#B4A7E5" rx="11" ry="11" style="stroke: #A80036; stroke-width: 1.0;"/><path d="M209.4219,19.7656 L209.4219,17.6094 L216.8125,17.6094 L216.8125,19.7656 L214.3438,19.7656 L214.3438,27.8438 L216.8125,27.8438 L216.8125,30 L209.4219,30 L209.4219,27.8438 L211.8906,27.8438 L211.8906,19.7656 L209.4219,19.7656 Z "/><text fill="#000000" font-family="sans-serif" font-size="12" font-style="italic" lengthAdjust="spacingAndGlyphs" textLength="79" x="227.5" y="28.1543">BeanFactory</text><line style="stroke: #A80036; stroke-width: 1.5;" x1="199.5" x2="308.5" y1="40" y2="40"/><line style="stroke: #A80036; stroke-width: 1.5;" x1="199.5" x2="308.5" y1="48" y2="48"/><!--class ListableBeanFactory--><rect fill="#FEFECE" filter="url(#f1tze2u2vnakvl)" height="48" id="ListableBeanFactory" style="stroke: #A80036; stroke-width: 1.5;" width="159" x="66.5" y="116"/><ellipse cx="81.5" cy="132" fill="#B4A7E5" rx="11" ry="11" style="stroke: #A80036; stroke-width: 1.0;"/><path d="M77.4219,127.7656 L77.4219,125.6094 L84.8125,125.6094 L84.8125,127.7656 L82.3438,127.7656 L82.3438,135.8438 L84.8125,135.8438 L84.8125,138 L77.4219,138 L77.4219,135.8438 L79.8906,135.8438 L79.8906,127.7656 L77.4219,127.7656 Z "/><text fill="#000000" font-family="sans-serif" font-size="12" font-style="italic" lengthAdjust="spacingAndGlyphs" textLength="127" x="95.5" y="136.1543">ListableBeanFactory</text><line style="stroke: #A80036; stroke-width: 1.5;" x1="67.5" x2="224.5" y1="148" y2="148"/><line style="stroke: #A80036; stroke-width: 1.5;" x1="67.5" x2="224.5" y1="156" y2="156"/><!--class ConfigurableListableBeanFactory--><rect fill="#FEFECE" filter="url(#f1tze2u2vnakvl)" height="48" id="ConfigurableListableBeanFactory" style="stroke: #A80036; stroke-width: 1.5;" width="238" x="6" y="224"/><ellipse cx="21" cy="240" fill="#B4A7E5" rx="11" ry="11" style="stroke: #A80036; stroke-width: 1.0;"/><path d="M16.9219,235.7656 L16.9219,233.6094 L24.3125,233.6094 L24.3125,235.7656 L21.8438,235.7656 L21.8438,243.8438 L24.3125,243.8438 L24.3125,246 L16.9219,246 L16.9219,243.8438 L19.3906,243.8438 L19.3906,235.7656 L16.9219,235.7656 Z "/><text fill="#000000" font-family="sans-serif" font-size="12" font-style="italic" lengthAdjust="spacingAndGlyphs" textLength="206" x="35" y="244.1543">ConfigurableListableBeanFactory</text><line style="stroke: #A80036; stroke-width: 1.5;" x1="7" x2="243" y1="256" y2="256"/><line style="stroke: #A80036; stroke-width: 1.5;" x1="7" x2="243" y1="264" y2="264"/><!--class HierarchicalBeanFactory--><rect fill="#FEFECE" filter="url(#f1tze2u2vnakvl)" height="48" id="HierarchicalBeanFactory" style="stroke: #A80036; stroke-width: 1.5;" width="185" x="270.5" y="116"/><ellipse cx="285.5" cy="132" fill="#B4A7E5" rx="11" ry="11" style="stroke: #A80036; stroke-width: 1.0;"/><path d="M281.4219,127.7656 L281.4219,125.6094 L288.8125,125.6094 L288.8125,127.7656 L286.3438,127.7656 L286.3438,135.8438 L288.8125,135.8438 L288.8125,138 L281.4219,138 L281.4219,135.8438 L283.8906,135.8438 L283.8906,127.7656 L281.4219,127.7656 Z "/><text fill="#000000" font-family="sans-serif" font-size="12" font-style="italic" lengthAdjust="spacingAndGlyphs" textLength="153" x="299.5" y="136.1543">HierarchicalBeanFactory</text><line style="stroke: #A80036; stroke-width: 1.5;" x1="271.5" x2="454.5" y1="148" y2="148"/><line style="stroke: #A80036; stroke-width: 1.5;" x1="271.5" x2="454.5" y1="156" y2="156"/><!--class ConfigurableBeanFactory--><rect fill="#FEFECE" filter="url(#f1tze2u2vnakvl)" height="48" id="ConfigurableBeanFactory" style="stroke: #A80036; stroke-width: 1.5;" width="190" x="279" y="224"/><ellipse cx="294" cy="240" fill="#B4A7E5" rx="11" ry="11" style="stroke: #A80036; stroke-width: 1.0;"/><path d="M289.9219,235.7656 L289.9219,233.6094 L297.3125,233.6094 L297.3125,235.7656 L294.8438,235.7656 L294.8438,243.8438 L297.3125,243.8438 L297.3125,246 L289.9219,246 L289.9219,243.8438 L292.3906,243.8438 L292.3906,235.7656 L289.9219,235.7656 Z "/><text fill="#000000" font-family="sans-serif" font-size="12" font-style="italic" lengthAdjust="spacingAndGlyphs" textLength="158" x="308" y="244.1543">ConfigurableBeanFactory</text><line style="stroke: #A80036; stroke-width: 1.5;" x1="280" x2="468" y1="256" y2="256"/><line style="stroke: #A80036; stroke-width: 1.5;" x1="280" x2="468" y1="264" y2="264"/><!--class AbstractAutowireCapableBeanFactory--><rect fill="#FEFECE" filter="url(#f1tze2u2vnakvl)" height="48" id="AbstractAutowireCapableBeanFactory" style="stroke: #A80036; stroke-width: 1.5;" width="269" x="239.5" y="440"/><ellipse cx="254.5" cy="456" fill="#A9DCDF" rx="11" ry="11" style="stroke: #A80036; stroke-width: 1.0;"/><path d="M254.6094,451.3438 L253.4531,456.4219 L255.7813,456.4219 L254.6094,451.3438 Z M253.125,449.1094 L256.1094,449.1094 L259.4688,461.5 L257.0156,461.5 L256.25,458.4375 L252.9688,458.4375 L252.2188,461.5 L249.7813,461.5 L253.125,449.1094 Z "/><text fill="#000000" font-family="sans-serif" font-size="12" font-style="italic" lengthAdjust="spacingAndGlyphs" textLength="237" x="268.5" y="460.1543">AbstractAutowireCapableBeanFactory</text><line style="stroke: #A80036; stroke-width: 1.5;" x1="240.5" x2="507.5" y1="472" y2="472"/><line style="stroke: #A80036; stroke-width: 1.5;" x1="240.5" x2="507.5" y1="480" y2="480"/><!--class AbstractBeanFactory--><rect fill="#FEFECE" filter="url(#f1tze2u2vnakvl)" height="48" id="AbstractBeanFactory" style="stroke: #A80036; stroke-width: 1.5;" width="163" x="292.5" y="332"/><ellipse cx="307.5" cy="348" fill="#A9DCDF" rx="11" ry="11" style="stroke: #A80036; stroke-width: 1.0;"/><path d="M307.6094,343.3438 L306.4531,348.4219 L308.7813,348.4219 L307.6094,343.3438 Z M306.125,341.1094 L309.1094,341.1094 L312.4688,353.5 L310.0156,353.5 L309.25,350.4375 L305.9688,350.4375 L305.2188,353.5 L302.7813,353.5 L306.125,341.1094 Z "/><text fill="#000000" font-family="sans-serif" font-size="12" font-style="italic" lengthAdjust="spacingAndGlyphs" textLength="131" x="321.5" y="352.1543">AbstractBeanFactory</text><line style="stroke: #A80036; stroke-width: 1.5;" x1="293.5" x2="454.5" y1="364" y2="364"/><line style="stroke: #A80036; stroke-width: 1.5;" x1="293.5" x2="454.5" y1="372" y2="372"/><!--class DefaultListableBeanFactory--><rect fill="#FEFECE" filter="url(#f1tze2u2vnakvl)" height="48" id="DefaultListableBeanFactory" style="stroke: #A80036; stroke-width: 1.5;" width="203" x="272.5" y="548"/><ellipse cx="287.5" cy="564" fill="#ADD1B2" rx="11" ry="11" style="stroke: #A80036; stroke-width: 1.0;"/><path d="M290.4688,569.6406 Q289.8906,569.9375 289.25,570.0859 Q288.6094,570.2344 287.9063,570.2344 Q285.4063,570.2344 284.0859,568.5859 Q282.7656,566.9375 282.7656,563.8125 Q282.7656,560.6875 284.0859,559.0313 Q285.4063,557.375 287.9063,557.375 Q288.6094,557.375 289.2578,557.5313 Q289.9063,557.6875 290.4688,557.9844 L290.4688,560.7031 Q289.8438,560.125 289.25,559.8516 Q288.6563,559.5781 288.0313,559.5781 Q286.6875,559.5781 286,560.6484 Q285.3125,561.7188 285.3125,563.8125 Q285.3125,565.9063 286,566.9766 Q286.6875,568.0469 288.0313,568.0469 Q288.6563,568.0469 289.25,567.7734 Q289.8438,567.5 290.4688,566.9219 L290.4688,569.6406 Z "/><text fill="#000000" font-family="sans-serif" font-size="12" lengthAdjust="spacingAndGlyphs" textLength="171" x="301.5" y="568.1543">DefaultListableBeanFactory</text><line style="stroke: #A80036; stroke-width: 1.5;" x1="273.5" x2="474.5" y1="580" y2="580"/><line style="stroke: #A80036; stroke-width: 1.5;" x1="273.5" x2="474.5" y1="588" y2="588"/><!--link BeanFactory to ListableBeanFactory--><path d="M216.016,70.28 C200.621,85.391 183.316,102.375 169.762,115.678 " fill="none" id="BeanFactory-ListableBeanFactory" style="stroke: #A80036; stroke-width: 1.0;"/><polygon fill="none" points="211.389,65.014,230.566,56,221.195,75.006,211.389,65.014" style="stroke: #A80036; stroke-width: 1.0;"/><!--link BeanFactory to HierarchicalBeanFactory--><path d="M292.335,70.28 C307.873,85.391 325.339,102.375 339.018,115.678 " fill="none" id="BeanFactory-HierarchicalBeanFactory" style="stroke: #A80036; stroke-width: 1.0;"/><polygon fill="none" points="287.109,74.962,277.651,56,296.87,64.926,287.109,74.962" style="stroke: #A80036; stroke-width: 1.0;"/><!--link HierarchicalBeanFactory to ConfigurableBeanFactory--><path d="M367.465,184.024 C368.871,197.579 370.372,212.038 371.58,223.678 " fill="none" id="HierarchicalBeanFactory-ConfigurableBeanFactory" style="stroke: #A80036; stroke-width: 1.0;"/><polygon fill="none" points="360.489,184.616,365.387,164,374.414,183.171,360.489,184.616" style="stroke: #A80036; stroke-width: 1.0;"/><!--link ConfigurableBeanFactory to AbstractBeanFactory--><path d="M374,292.024 C374,305.579 374,320.038 374,331.678 " fill="none" id="ConfigurableBeanFactory-AbstractBeanFactory" style="stroke: #A80036; stroke-width: 1.0;"/><polygon fill="none" points="367,292,374,272,381,292,367,292" style="stroke: #A80036; stroke-width: 1.0;"/><!--link ListableBeanFactory to ConfigurableListableBeanFactory--><path d="M137.476,184.024 C134.791,197.579 131.926,212.038 129.62,223.678 " fill="none" id="ListableBeanFactory-ConfigurableListableBeanFactory" style="stroke: #A80036; stroke-width: 1.0;"/><polygon fill="none" points="130.69,182.259,141.443,164,144.423,184.98,130.69,182.259" style="stroke: #A80036; stroke-width: 1.0;"/><!--link AbstractBeanFactory to AbstractAutowireCapableBeanFactory--><path d="M374,400.024 C374,413.579 374,428.038 374,439.678 " fill="none" id="AbstractBeanFactory-AbstractAutowireCapableBeanFactory" style="stroke: #A80036; stroke-width: 1.0;"/><polygon fill="none" points="367,400,374,380,381,400,367,400" style="stroke: #A80036; stroke-width: 1.0;"/><!--link AbstractAutowireCapableBeanFactory to DefaultListableBeanFactory--><path d="M374,508.0236 C374,521.5792 374,536.0381 374,547.6784 " fill="none" id="AbstractAutowireCapableBeanFactory-DefaultListableBeanFactory" style="stroke: #A80036; stroke-width: 1.0;"/><polygon fill="none" points="367,508.0005,374,488,381,508.0004,367,508.0005" style="stroke: #A80036; stroke-width: 1.0;"/><!--
@startuml
interface BeanFactory
interface ListableBeanFactory
interface ConfigurableListableBeanFactory
interface HierarchicalBeanFactory
interface ConfigurableBeanFactory
abstract AbstractAutowireCapableBeanFactory
abstract AbstractBeanFactory

BeanFactory <|- - ListableBeanFactory
BeanFactory <|- - HierarchicalBeanFactory
HierarchicalBeanFactory <|- - ConfigurableBeanFactory
ConfigurableBeanFactory <|- - AbstractBeanFactory
ListableBeanFactory <|- - ConfigurableListableBeanFactory
AbstractBeanFactory <|- - AbstractAutowireCapableBeanFactory
AbstractAutowireCapableBeanFactory <|- - DefaultListableBeanFactory
@enduml

PlantUML version 1.2017.12(Thu Apr 27 00:06:36 CST 2017)
(GPL source distribution)
Java Runtime: Java(TM) SE Runtime Environment
JVM: Java HotSpot(TM) 64-Bit Server VM
Java Version: 1.8.0_111-b14
Operating System: Linux
OS Version: 4.4.0-75-generic
Default Encoding: UTF-8
Language: en
Country: US
--></g></svg>